<svg xmlns="http://www.w3.org/2000/svg" width="1024" height="1024" viewBox="0 0 74 74" fill="none">
  <g clip-path="url(#clip0_398_4619)">
    <rect width="74" height="74" rx="22" fill="#F5EAFA"/>
    <path d="M33.7775 31.0996C36.9829 48.645 38.0626 58.6998 36.9829 77.9997" stroke="#CFC3F5" stroke-width="41.5013"/>
    <path d="M22.0435 38.3061C21.2899 34.8903 12.0002 27.5 -1.99984 26" stroke="#CFC3F5" stroke-width="15.1834"/>
    <path d="M20.0002 35.5C19.0555 34.3206 10.5002 25.5 -1.99984 25.5" stroke="#B099EF" stroke-width="6.74818"/>
    <path d="M47.2688 32.2639C46.8529 28.7908 41.0002 6.5 31.5002 -7" stroke="#CFC3F5" stroke-width="15.1834"/>
    <path d="M32.4279 31.4297C33.0881 32.8073 33.9982 34.4272 35.2992 38.1108" stroke="#B099EF" stroke-width="1.68705"/>
    <path d="M36.8134 30.7559C37.4736 32.1335 38.3837 33.7533 39.6847 37.437" stroke="#B099EF" stroke-width="1.68705"/>
    <path d="M52.6713 55.3934C69.3729 49.32 89.0438 53.099 69.8791 20.3027" stroke="#CFC3F5" stroke-width="9.44746"/>
    <ellipse cx="46.9357" cy="41.3908" rx="1.51835" ry="1.34963" transform="rotate(-90 46.9357 41.3908)" fill="#002B53"/>
    <ellipse cx="29.3906" cy="42.4035" rx="1.51835" ry="1.34963" transform="rotate(-90 29.3906 42.4035)" fill="#002B53"/>
    <ellipse cx="26.0178" cy="47.8014" rx="3.88022" ry="3.37408" transform="rotate(-90 26.0178 47.8014)" fill="#B099EF"/>
    <ellipse cx="50.9856" cy="46.1149" rx="3.88022" ry="3.37408" transform="rotate(-90 50.9856 46.1149)" fill="#B099EF"/>
    <path d="M46.7612 27.6129C46.2695 24.1497 40 7 34 -2.5" stroke="#B099EF" stroke-width="6.74818"/>
    <path d="M68.7611 24.7057C68.03 23.3561 66.3317 20.7243 64.7122 18.2949" stroke="#CFC3F5" stroke-width="3.03668"/>
    <path d="M69.8791 20.3027C70.2727 20.9213 71.1612 22.4622 71.5661 23.6768" stroke="#704FE6" stroke-width="1.34964"/>
    <path d="M72.2406 18.9531C72.6343 19.5717 73.5228 21.1126 73.9277 22.3272" stroke="#704FE6" stroke-width="1.34964"/>
    <path d="M44.9232 46.0601L32.7443 47.0957C32.0766 47.1525 31.6486 47.8369 31.9039 48.4564C34.8652 55.6414 37.1301 54.2785 39.8504 54.2785C44.0664 54.2785 45.3592 50.2159 45.996 47.2614C46.1377 46.6037 45.5935 46.0031 44.9232 46.0601Z" fill="#F25FB2" stroke="#F25FB2" stroke-width="0.337409" stroke-linejoin="round"/>
    <path d="M-2.99985 73.4457C-3.05609 67.3161 13.23 51.5749 20.1131 59.4028" stroke="#CFC3F5" stroke-width="9.44746"/>
  </g>
  <defs>
    <clipPath id="clip0_398_4619">
      <rect width="74" height="74" rx="22" fill="white"/>
    </clipPath>
  </defs>
</svg>