<svg width="296" height="74" viewBox="0 0 296 74" fill="none" xmlns="http://www.w3.org/2000/svg">
<g clip-path="url(#clip0_18_4)">
<rect width="74" height="74" rx="22" fill="#F5EAFA"/>
<path d="M33.7775 31.0996C36.9829 48.645 38.0626 58.6998 36.9829 77.9997" stroke="#CFC3F5" stroke-width="41.5013"/>
<path d="M22.0435 38.3061C21.2899 34.8903 12.0002 27.5 -1.99984 26" stroke="#CFC3F5" stroke-width="15.1834"/>
<path d="M20.0002 35.5C19.0555 34.3206 10.5002 25.5 -1.99984 25.5" stroke="#B099EF" stroke-width="6.74818"/>
<path d="M47.2688 32.2639C46.8529 28.7908 41.0002 6.5 31.5002 -7" stroke="#CFC3F5" stroke-width="15.1834"/>
<path d="M32.4279 31.4297C33.0881 32.8073 33.9982 34.4272 35.2992 38.1108" stroke="#B099EF" stroke-width="1.68705"/>
<path d="M36.8134 30.7559C37.4736 32.1335 38.3837 33.7533 39.6847 37.437" stroke="#B099EF" stroke-width="1.68705"/>
<path d="M52.6713 55.3934C69.3729 49.32 89.0438 53.099 69.8791 20.3027" stroke="#CFC3F5" stroke-width="9.44746"/>
<ellipse cx="46.9357" cy="41.3908" rx="1.51835" ry="1.34963" transform="rotate(-90 46.9357 41.3908)" fill="#002B53"/>
<ellipse cx="29.3906" cy="42.4035" rx="1.51835" ry="1.34963" transform="rotate(-90 29.3906 42.4035)" fill="#002B53"/>
<ellipse cx="26.0178" cy="47.8014" rx="3.88022" ry="3.37408" transform="rotate(-90 26.0178 47.8014)" fill="#B099EF"/>
<ellipse cx="50.9856" cy="46.1149" rx="3.88022" ry="3.37408" transform="rotate(-90 50.9856 46.1149)" fill="#B099EF"/>
<path d="M46.7612 27.6129C46.2695 24.1497 40 7 34 -2.5" stroke="#B099EF" stroke-width="6.74818"/>
<path d="M68.7611 24.7057C68.03 23.3561 66.3317 20.7243 64.7122 18.2949" stroke="#CFC3F5" stroke-width="3.03668"/>
<path d="M69.8791 20.3027C70.2727 20.9213 71.1612 22.4622 71.5661 23.6768" stroke="#704FE6" stroke-width="1.34964"/>
<path d="M72.2406 18.9531C72.6343 19.5717 73.5228 21.1126 73.9277 22.3272" stroke="#704FE6" stroke-width="1.34964"/>
<path d="M44.9232 46.0601L32.7443 47.0957C32.0766 47.1525 31.6486 47.8369 31.9039 48.4564C34.8652 55.6414 37.1301 54.2785 39.8504 54.2785C44.0664 54.2785 45.3592 50.2159 45.996 47.2614C46.1377 46.6037 45.5935 46.0031 44.9232 46.0601Z" fill="#F25FB2" stroke="#F25FB2" stroke-width="0.337409" stroke-linejoin="round"/>
<path d="M-2.99985 73.4457C-3.05609 67.3161 13.23 51.5749 20.1131 59.4028" stroke="#CFC3F5" stroke-width="9.44746"/>
</g>
<path d="M108.375 24.75V26.1719H95.4688V24.75H98.4531V21.1797C97.3281 20.5312 96.6484 19.5156 96.6562 18.2656C96.6484 16.0156 98.8516 14.5312 101.891 14.5312C104.945 14.5312 107.164 16.0156 107.156 18.2656C107.164 19.5 106.5 20.4922 105.406 21.1406V24.75H108.375ZM98.3594 18.2656C98.3516 19.7109 99.7812 20.6328 101.891 20.625C103.992 20.6328 105.453 19.7109 105.453 18.2656C105.453 16.7969 103.992 15.8984 101.891 15.9062C99.7812 15.8984 98.3516 16.7969 98.3594 18.2656ZM100.172 24.75H103.641V21.8047C103.102 21.9219 102.516 21.9844 101.891 21.9844C101.281 21.9844 100.703 21.9219 100.172 21.8125V24.75ZM120.743 13.7656V27.9062H119.024V13.7656H120.743ZM109.743 16.4062V15H116.399V20.2969H111.539V23.1406C113.766 23.125 115.68 23.0078 117.883 22.6406L118.039 24.0625C115.641 24.4766 113.532 24.5703 110.993 24.5625H109.758V18.9219H114.633V16.4062H109.743ZM134.673 13.7656V27.8906H133.001V13.7656H134.673ZM122.626 19.875C122.626 16.7656 123.829 14.8359 125.673 14.8438C127.383 14.8359 128.548 16.4375 128.751 19.0781H130.11V14.0156H131.766V27.2031H130.11V20.4844H128.766C128.602 23.2422 127.423 24.9297 125.673 24.9219C123.829 24.9297 122.626 22.9922 122.626 19.875ZM124.235 19.875C124.227 22.0859 124.774 23.2734 125.673 23.2656C126.61 23.2734 127.165 22.0859 127.173 19.875C127.165 17.6719 126.61 16.4766 125.673 16.4844C124.774 16.4766 124.227 17.6719 124.235 19.875ZM147.361 14.8125V15.6562C147.345 16.6172 147.345 18.0234 147.017 19.8125L145.298 19.6562C145.579 18.2031 145.634 17.1172 145.65 16.25H140.158V14.8125H147.361ZM139.314 20.9375C140.15 20.9297 141.087 20.9219 142.079 20.9062V18.0312H143.798V20.8516C145.259 20.7891 146.759 20.6797 148.126 20.4844L148.22 21.7344C145.283 22.2656 141.947 22.3203 139.47 22.3281L139.314 20.9375ZM141.423 27.6094V23.4062H143.173V26.2031H151.189V27.6094H141.423ZM148.954 24.3438V13.7656H150.736V18.1719H152.564V19.625H150.736V24.3438H148.954ZM164.744 13.7812V21.7656H162.994V13.7812H164.744ZM152.978 20.1094C155.267 19.3828 156.455 17.5469 156.447 15.6875V14.3125H158.244V15.6875C158.236 17.4922 159.439 19.1719 161.65 19.875L160.806 21.2031C159.173 20.6953 158.002 19.6562 157.361 18.3047C156.728 19.7578 155.533 20.9219 153.838 21.4844L152.978 20.1094ZM155.369 27.7188V22.4688H164.744V27.7188H155.369ZM157.088 26.3125H163.041V23.8438H157.088V26.3125ZM178.236 13.7656V27.9062H176.486V13.7656H178.236ZM166.939 19.7812C166.932 16.7344 168.486 14.7969 170.627 14.7969C172.744 14.7969 174.307 16.7344 174.314 19.7812C174.307 22.8516 172.744 24.7812 170.627 24.7812C168.486 24.7812 166.932 22.8516 166.939 19.7812ZM168.611 19.7812C168.611 21.9531 169.432 23.2109 170.627 23.2188C171.814 23.2109 172.627 21.9531 172.627 19.7812C172.627 17.625 171.814 16.3594 170.627 16.3594C169.432 16.3594 168.611 17.625 168.611 19.7812ZM194.612 13.7656V16.8125H196.581V18.25H194.612V20.875H192.878V13.7656H194.612ZM183.956 20.5V14.6719H190.643V20.5H183.956ZM184.815 27.5V22.0781H186.518V26.0859C187.323 26.0391 188.159 25.9219 188.971 25.6562L189.221 27.0156C187.971 27.4531 186.768 27.5078 185.565 27.5H184.815ZM185.659 19.1406H188.94V16.0312H185.659V19.1406ZM188.737 23.4844V22.2344H191.456V21.125H193.159V22.2344H195.846V23.4844H188.737ZM189.596 25.8906C189.581 24.6562 190.682 23.9062 192.284 23.9062C193.87 23.9062 194.979 24.6562 194.987 25.8906C194.979 27.1016 193.87 27.8594 192.284 27.8594C190.674 27.8594 189.581 27.1016 189.596 25.8906ZM191.143 25.8906C191.135 26.3984 191.62 26.6875 192.284 26.6875C192.948 26.6875 193.424 26.3984 193.424 25.8906C193.424 25.375 192.948 25.0938 192.284 25.0938C191.62 25.0938 191.135 25.375 191.143 25.8906ZM209.854 21.0625V22.4531H196.979V21.0625H209.854ZM198.308 17.0781C198.308 15.2891 200.315 14.2109 203.401 14.2188C206.479 14.2109 208.487 15.2891 208.495 17.0781C208.487 18.875 206.479 19.9688 203.401 19.9688C200.315 19.9688 198.308 18.875 198.308 17.0781ZM198.573 27.6094V23.5H200.308V26.2031H208.401V27.6094H198.573ZM200.12 17.0781C200.104 18.0391 201.347 18.5547 203.401 18.5469C205.464 18.5547 206.698 18.0391 206.698 17.0781C206.698 16.1484 205.464 15.6094 203.401 15.6094C201.347 15.6094 200.104 16.1484 200.12 17.0781Z" fill="#704FE6"/>
<path d="M105.532 42.9492V51.5234H96.8406V42.9492H105.532ZM98.9109 58.9062V53.0078H101.43V56.8945H111.294V58.9062H98.9109ZM99.3016 49.5508H103.052V44.9219H99.3016V49.5508ZM108.325 54.1797V41.543H110.825V54.1797H108.325ZM119.546 45.5469C119.556 48.8867 120.904 52.1387 123.863 53.418L122.339 55.4102C120.366 54.4531 119.038 52.6758 118.296 50.4785C117.534 52.8125 116.167 54.7266 114.136 55.7227L112.573 53.6914C115.62 52.3145 117.007 48.8867 117.027 45.5469V42.8906H119.546V45.5469ZM121.87 49.1211V47.1094H125.366V41.5234H127.827V59.3359H125.366V49.1211H121.87Z" fill="#232323"/>
<path d="M141.238 59.6367C139.365 59.6367 137.957 58.4951 137.889 56.916H139.352C139.434 57.7568 140.24 58.3721 141.238 58.3789C142.441 58.3721 143.303 57.5039 143.303 56.3281C143.303 55.125 142.414 54.25 141.17 54.2363C140.377 54.2363 139.769 54.5029 139.434 55.1113H138.012L138.654 49.6016H144.26V50.8867H139.898L139.57 53.6621H139.666C140.076 53.2656 140.773 52.999 141.525 52.9922C143.392 52.999 144.766 54.3799 144.766 56.2871C144.766 58.2354 143.303 59.6367 141.238 59.6367ZM145.866 57.5723V56.3555L150.241 49.6016H152.101V56.3008H153.454V57.5723H152.101V59.5H150.679V57.5723H145.866ZM147.452 56.3008H150.679V51.3926H150.57L147.452 56.2188V56.3008ZM164.754 48.4121V60.6621H163.51V54.3047H161.993V60.0742H160.776V48.7402H161.993V53.252H163.51V48.4121H164.754ZM154.227 57.1621C156.948 55.6172 158.089 53.5322 158.294 51.0371H154.747V49.9707H159.559C159.552 53.1904 158.486 56.0889 154.979 58.0645L154.227 57.1621ZM176.273 48.4258V55.6035H174.974V55.0156H172.582V54.1953H174.974V48.4258H176.273ZM166.06 52.9375C168.432 52.9443 171.427 52.917 174.072 52.6367L174.14 53.4707C172.985 53.6348 171.782 53.7305 170.613 53.792V55.6309H169.328V53.8398C168.227 53.874 167.168 53.874 166.211 53.8672L166.06 52.9375ZM166.976 50.4766C166.97 49.3555 168.18 48.6309 170.039 48.6309C171.864 48.6309 173.088 49.3555 173.101 50.4766C173.088 51.6182 171.864 52.3086 170.039 52.3086C168.18 52.3086 166.97 51.6182 166.976 50.4766ZM167.892 56.916V56.0137H176.273V58.6523H169.219V59.5957H176.642V60.5391H167.947V57.791H174.988V56.916H167.892ZM168.193 50.4766C168.186 51.0576 168.911 51.4336 170.039 51.4336C171.153 51.4336 171.871 51.0576 171.871 50.4766C171.871 49.8887 171.153 49.5059 170.039 49.5059C168.911 49.5059 168.186 49.8887 168.193 50.4766Z" fill="#5C5C5D"/>
<rect x="185" y="41.5" width="74" height="24" rx="12" fill="#F5EAFA"/>
<path d="M209.363 48.4492V59.043H208.039V48.4492H209.363ZM200.152 55.7734C201.488 54.748 201.752 52.9082 201.758 51.3555V49.3281H202.977V51.3555C202.977 52.5156 203.123 53.9688 203.85 55.0527C204.57 53.9863 204.711 52.5566 204.723 51.3555V49.3281H205.965V51.3555C205.965 52.9375 206.234 54.7715 207.57 55.7734L206.773 56.6992C206.035 56.1484 205.59 55.293 205.332 54.3203C205.074 55.3223 204.623 56.2188 203.855 56.7812C203.088 56.2188 202.637 55.3281 202.373 54.332C202.121 55.2754 201.699 56.1074 200.996 56.6523L200.152 55.7734ZM218.838 48.4492V51.1797H220.315V52.2695H218.838V55.457H217.537V48.4492H218.838ZM210.6 51.7188C210.594 50.1953 211.824 49.1523 213.459 49.1406C215.088 49.1523 216.307 50.1953 216.319 51.7188C216.307 53.2246 215.088 54.2793 213.459 54.2734C211.824 54.2793 210.594 53.2246 210.6 51.7188ZM211.432 57.9648C213.553 57.666 214.854 56.5293 214.854 55.2461V54.9531H216.155V55.2461C216.143 56.5293 217.455 57.666 219.588 57.9648L219.073 58.9844C217.432 58.7207 216.155 57.9707 215.516 56.916C214.865 57.9707 213.588 58.7207 211.948 58.9844L211.432 57.9648ZM211.877 51.7188C211.871 52.5977 212.545 53.1719 213.459 53.1719C214.362 53.1719 215.035 52.5977 215.041 51.7188C215.035 50.8164 214.362 50.248 213.459 50.2539C212.545 50.248 211.871 50.8164 211.877 51.7188ZM231.577 48.4492V51.4258H233.065V52.5039H231.577V56.1133H230.276V48.4492H231.577ZM223.667 54.3203V49.3281H228.413V50.3711H224.956V53.2539C226.948 53.2539 228.055 53.1895 229.315 52.9258L229.456 53.9805C228.067 54.2559 226.837 54.3203 224.522 54.3203H223.667ZM224.792 58.832V55.3047H226.093V57.7773H231.999V58.832H224.792ZM242.493 48.4492V59.043H241.251V48.4492H242.493ZM233.247 55.8789C235.438 54.584 236.446 52.9258 236.645 50.793H233.81V49.7383H237.935C237.935 50.2715 237.899 50.793 237.823 51.2969H239.06V48.707H240.302V58.5391H239.06V55H237.407V53.9336H239.06V52.3633H237.601C237.097 54.1211 235.995 55.6328 234.009 56.8047L233.247 55.8789Z" fill="#704FE6"/>
<path d="M285.5 48.9998L288.5 51.9998M276 61.4998V57.9998L287.293 46.7068C287.481 46.5194 287.735 46.4141 288 46.4141C288.265 46.4141 288.519 46.5194 288.707 46.7068L290.793 48.7928C290.98 48.9804 291.086 49.2347 291.086 49.4998C291.086 49.765 290.98 50.0193 290.793 50.2068L279.5 61.4998H276Z" stroke="#989899" stroke-width="1.5" stroke-linecap="round" stroke-linejoin="round"/>
<defs>
<clipPath id="clip0_18_4">
<rect width="74" height="74" rx="22" fill="white"/>
</clipPath>
</defs>
</svg>
