<svg width="228" height="157" viewBox="0 0 228 157" fill="none" xmlns="http://www.w3.org/2000/svg">
<rect width="45" height="128" rx="3" fill="#704FE6"/>
<rect x="61" y="63" width="45" height="65" rx="3" fill="#B099EF"/>
<rect x="122" y="110" width="45" height="18" rx="3" fill="#CFC3F5"/>
<rect x="183" y="86" width="45" height="42" rx="3" fill="#E2DAFC"/>
<path d="M22.2025 149.551V150.631H10.9916V149.551H13.6713V146.352C12.6664 145.798 12.0511 144.923 12.058 143.822C12.0511 141.895 13.9447 140.63 16.5697 140.623C19.2015 140.63 21.0951 141.895 21.0951 143.822C21.0951 144.902 20.5072 145.771 19.5228 146.324V149.551H22.2025ZM13.3158 143.822C13.3158 145.135 14.6488 145.989 16.5697 145.996C18.4769 145.989 19.8304 145.135 19.8373 143.822C19.8304 142.503 18.4769 141.662 16.5697 141.662C14.6488 141.662 13.3158 142.503 13.3158 143.822ZM14.9564 149.551H18.2103V146.83C17.7113 146.946 17.1576 147.008 16.5697 147.008C15.9955 147.008 15.4486 146.946 14.9564 146.83V149.551ZM32.983 139.912V152.189H31.6842V139.912H32.983ZM23.4948 142.072V141.02H29.237V145.49H24.8346V148.17C26.8239 148.163 28.5534 148.067 30.6041 147.732L30.7272 148.799C28.5602 149.161 26.7145 149.243 24.5475 149.25H23.5084V144.451H27.9108V142.072H23.4948Z" fill="#5C5C5D"/>
<path d="M78.8138 141.225V141.977C78.807 143.009 78.807 144.588 78.4584 146.775L77.1732 146.68C77.4877 144.725 77.5218 143.296 77.5287 142.277H72.5521V141.225H78.8138ZM71.8685 148.471C72.6341 148.464 73.4886 148.457 74.3841 148.437V144.725H75.6693V148.396C76.9681 148.341 78.3011 148.259 79.5248 148.102L79.5931 149.072C77.0433 149.482 74.1927 149.537 72.0189 149.523L71.8685 148.471ZM80.222 152.162V139.912H81.5345V144.971H83.4076V146.078H81.5345V152.162H80.222ZM91.1256 141.156V142.195H83.8248V141.156H86.8327V139.857H88.1315V141.156H91.1256ZM84.4948 144.971C84.4879 143.631 85.7047 142.756 87.4752 142.742C89.2389 142.756 90.442 143.631 90.442 144.971C90.442 146.317 89.2389 147.199 87.4752 147.199C85.7047 147.199 84.4879 146.317 84.4948 144.971ZM85.3424 149.25V148.197H93.4362V152.162H92.1373V149.25H85.3424ZM85.7526 144.971C85.7389 145.729 86.4362 146.188 87.4752 146.188C88.5143 146.188 89.2116 145.729 89.2252 144.971C89.2116 144.219 88.5143 143.747 87.4752 143.74C86.4362 143.747 85.7389 144.219 85.7526 144.971ZM92.1373 147.568V139.912H93.4362V143.234H95.2135V144.314H93.4362V147.568H92.1373Z" fill="#5C5C5D"/>
<path d="M138.515 147.609C141.167 147.609 142.842 148.45 142.849 149.879C142.842 151.301 141.167 152.142 138.515 152.135C135.89 152.142 134.208 151.301 134.208 149.879C134.208 148.45 135.89 147.609 138.515 147.609ZM133.005 146.598V145.545H137.476V143.248H138.747V145.545H144.148V146.598H133.005ZM134.304 141.553V140.514H142.753V141.539C142.76 142.517 142.76 143.528 142.411 144.793L141.14 144.656C141.468 143.405 141.468 142.503 141.468 141.553H134.304ZM135.507 149.879C135.494 150.672 136.662 151.13 138.515 151.137C140.388 151.13 141.55 150.672 141.564 149.879C141.55 149.072 140.388 148.601 138.515 148.594C136.662 148.601 135.494 149.072 135.507 149.879ZM156.008 146.434V147.486H144.798V146.434H147.887V145.367H146.233V142.318H153.301V141.266H146.206V140.24H154.6V143.275H147.518V144.355H154.846V145.367H152.973V146.434H156.008ZM146.096 150.193C146.083 148.895 147.648 148.211 150.389 148.211C153.096 148.211 154.662 148.895 154.669 150.193C154.662 151.465 153.096 152.155 150.389 152.162C147.648 152.155 146.083 151.465 146.096 150.193ZM147.409 150.193C147.402 150.843 148.448 151.198 150.389 151.191C152.31 151.198 153.342 150.843 153.356 150.193C153.342 149.537 152.31 149.175 150.389 149.168C148.448 149.175 147.402 149.537 147.409 150.193ZM149.173 146.434H151.715V145.367H149.173V146.434Z" fill="#5C5C5D"/>
<path d="M204.177 139.912V152.162H202.865V139.912H204.177ZM194.115 148.881C197.369 147.329 198.961 145.121 199.214 142.264H194.703V141.225H200.527C200.527 144.813 199.002 147.917 194.798 149.934L194.115 148.881ZM212.1 140.992V142.059H207.643V144.424H211.854V145.463H207.643V148.211C209.687 148.197 211.205 148.122 212.975 147.828L213.098 148.881C211.205 149.195 209.578 149.257 207.315 149.264H206.331V140.992H212.1ZM214.055 152.162V139.912H215.354V144.738H217.323V145.832H215.354V152.162H214.055Z" fill="#5C5C5D"/>
</svg>
