<?xml version="1.0" standalone="no"?>
<!DOCTYPE svg PUBLIC "-//W3C//DTD SVG 20010904//EN"
 "http://www.w3.org/TR/2001/REC-SVG-20010904/DTD/svg10.dtd">
<svg version="1.0" xmlns="http://www.w3.org/2000/svg"
 width="225.000000pt" height="233.000000pt" viewBox="0 0 225.000000 233.000000"
 preserveAspectRatio="xMidYMid meet">

<g transform="translate(0.000000,233.000000) scale(0.100000,-0.100000)"
fill="#000000" stroke="none">
<path d="M0 1165 l0 -1165 1125 0 1125 0 0 1165 0 1165 -592 0 c-575 0 -591
-1 -574 -19 21 -23 41 -118 33 -153 -4 -14 -21 -40 -39 -57 -23 -22 -33 -41
-33 -62 0 -27 -6 -32 -57 -53 l-56 -23 -10 23 c-6 12 -14 38 -17 57 -6 33 -3
40 39 85 48 52 58 85 28 101 -46 24 -122 -31 -122 -90 0 -61 -81 -94 -114 -47
-32 45 -10 142 44 199 l37 39 -409 0 -408 0 0 -1165z m1099 789 c12 -15 21
-35 21 -46 0 -48 -107 -102 -157 -79 -56 26 -45 98 20 130 57 29 91 27 116 -5z
m-428 -86 c2 -26 0 -50 -4 -54 -4 -4 -7 19 -7 51 0 69 7 70 11 3z m48 -137 c2
-129 -6 -92 -12 59 -3 87 -2 116 3 80 4 -30 8 -93 9 -139z m-87 112 c3 -29 1
-53 -4 -53 -4 0 -8 26 -8 57 0 69 6 67 12 -4z m127 -117 c1 -55 -1 -97 -3 -95
-2 2 -6 65 -9 139 -3 84 -2 120 3 95 5 -22 9 -85 9 -139z m-161 -11 c2 -49 1
-87 -1 -85 -2 3 -7 61 -9 130 -3 69 -3 107 1 85 4 -22 8 -80 9 -130z m202 81
c0 -39 -6 -31 -14 19 -5 29 -4 36 3 25 6 -8 11 -28 11 -44z m-241 -80 c1 -96
-5 -80 -12 29 -3 52 -2 79 3 65 4 -14 8 -56 9 -94z m714 70 c-15 -13 -30 -22
-32 -20 -7 7 31 44 46 44 8 0 2 -10 -14 -24z m41 -16 c-27 -22 -53 -40 -59
-40 -15 1 78 79 94 80 7 0 -9 -18 -35 -40z m31 -26 c-22 -18 -44 -34 -50 -33
-5 0 10 17 35 39 24 22 47 37 50 34 3 -3 -13 -21 -35 -40z m35 -8 c0 -2 -8
-10 -17 -17 -16 -13 -17 -12 -4 4 13 16 21 21 21 13z m-583 -48 c-3 -7 -5 -2
-5 12 0 14 2 19 5 13 2 -7 2 -19 0 -25z m-160 -20 c-3 -7 -5 -2 -5 12 0 14 2
19 5 13 2 -7 2 -19 0 -25z m226 -36 c3 -31 2 -50 -4 -47 -5 4 -9 29 -9 57 0
64 6 60 13 -10z m-35 -62 l0 -25 -8 25 c-4 14 -8 45 -8 70 l1 45 8 -45 c4 -25
7 -56 7 -70z m69 58 c-3 -8 -6 -5 -6 6 -1 11 2 17 5 13 3 -3 4 -12 1 -19z
m-108 -51 c1 -10 -3 -15 -9 -12 -5 3 -10 21 -9 38 0 27 2 29 9 12 5 -11 9 -28
9 -38z m429 -49 c52 -132 85 -239 110 -358 23 -108 62 -363 62 -407 0 -16 2
-32 6 -35 3 -3 40 3 82 14 217 54 259 83 249 173 -10 91 -76 249 -159 377
l-40 62 23 19 c23 19 24 18 42 -4 10 -12 22 -29 27 -38 8 -14 16 -12 69 17
l60 33 25 -43 c101 -174 162 -357 154 -467 -12 -166 -115 -251 -390 -321
l-126 -32 -4 -213 c-1 -118 -6 -216 -9 -219 -3 -3 -201 5 -440 19 -239 14
-435 25 -436 25 -1 0 0 65 4 145 7 161 2 180 -46 168 -76 -18 -214 -130 -252
-205 l-19 -38 -100 0 c-98 0 -100 0 -100 24 0 47 69 162 139 235 107 109 206
166 324 186 34 5 37 9 37 38 0 18 -11 98 -24 177 -26 156 -61 258 -139 401
-23 42 -40 79 -37 81 3 3 63 39 133 82 100 60 131 75 142 66 19 -15 127 -238
161 -333 25 -66 32 -77 49 -73 11 3 64 13 117 22 97 17 98 17 92 43 -13 56
-76 243 -98 293 l-24 53 132 67 c72 37 138 67 147 67 11 1 28 -30 57 -101z"/>
<path d="M1156 905 c-20 -20 -4 -58 22 -53 22 4 27 41 9 57 -12 9 -18 8 -31
-4z"/>
<path d="M775 880 c-9 -15 4 -50 19 -50 20 0 39 27 32 45 -6 17 -42 20 -51 5z"/>
</g>
</svg>
