<svg width="272" height="56" viewBox="0 0 272 56" fill="none" xmlns="http://www.w3.org/2000/svg">
<path d="M13.2188 13.7812V14.8125H7.48438V19.2969H6.28125V14.8125H0.5625V13.7812H13.2188ZM1.35938 11.7188C3.83594 11.3828 6.27344 9.86719 6.28125 8.125V8.10938H1.79688V7.10938H6.28125V5.375H7.48438V7.10938H12V8.10938H7.5V8.125C7.5 9.85938 9.92188 11.3828 12.4062 11.7188L11.9531 12.7031C9.80469 12.375 7.78125 11.2969 6.89844 9.78906C6.01562 11.3125 3.96094 12.375 1.8125 12.7031L1.35938 11.7188ZM18.805 8.70312C18.8128 10.5547 20.2738 12.1641 22.3363 12.8125L21.7269 13.7969C20.1253 13.2734 18.8519 12.1719 18.2269 10.7422C17.6253 12.2734 16.3597 13.4609 14.7269 14.0312L14.1175 13.0781C16.1722 12.3906 17.5941 10.6641 17.6019 8.70312V8.25H14.4613V7.25H17.6019V5.46875H18.8363V7.25H21.9456V8.25H18.805V8.70312ZM16.6644 18.9688V14.8281H17.8988V17.9375H25.9769V18.9688H16.6644ZM21.4613 10.6875V9.67188H24.3519V5.39062H25.5863V15.7656H24.3519V10.6875H21.4613ZM42.7275 5.375V12.5938H41.5244V5.375H42.7275ZM31.4775 11.6406C33.5478 10.9531 35.0322 9.25 35.04 7.34375V7.1875H31.79V6.17188H39.4775V7.1875H36.2744V7.34375C36.2822 9.14844 37.7588 10.7422 39.8525 11.3594L39.2431 12.3125C37.6025 11.7969 36.2978 10.6953 35.6806 9.27344C35.0791 10.8281 33.7509 12.0391 32.0556 12.6094L31.4775 11.6406ZM33.7119 14.2344V13.2656H42.7431V16.5781H34.9463V18.125H43.2431V19.1094H33.7431V15.6562H41.5244V14.2344H33.7119ZM57.4856 12.4844V13.5H51.8294V16.3438H50.6106V13.5H44.7669V12.4844H57.4856ZM46.3919 18.9688V14.9688H47.6263V17.9375H56.0638V18.9688H46.3919ZM46.4231 10.8906V6.0625H55.8294V10.8906H46.4231ZM47.6263 9.90625H54.6106V7.03125H47.6263V9.90625Z" fill="#5C5C5D"/>
<path d="M5.33203 33.3711C7.98828 33.3711 9.90234 35.793 9.92188 39.6016C9.90234 43.4395 7.98828 45.8516 5.33203 45.8516C2.64648 45.8516 0.732422 43.4395 0.742188 39.6016C0.732422 35.793 2.64648 33.3711 5.33203 33.3711ZM2.83203 39.6016C2.82227 42.3164 3.84766 43.8887 5.33203 43.8984C6.82617 43.8887 7.82227 42.3164 7.83203 39.6016C7.82227 36.9062 6.82617 35.3242 5.33203 35.3242C3.84766 35.3242 2.82227 36.9062 2.83203 39.6016ZM12.2461 49.7383V32.082H14.4141V38.8594H17.1289V40.6953H14.4141V49.7383H12.2461ZM32.1586 32.082V49.7578H29.9711V32.082H32.1586ZM18.0375 39.6016C18.0277 35.793 19.9711 33.3711 22.6469 33.3711C25.2934 33.3711 27.2465 35.793 27.2563 39.6016C27.2465 43.4395 25.2934 45.8516 22.6469 45.8516C19.9711 45.8516 18.0277 43.4395 18.0375 39.6016ZM20.1273 39.6016C20.1273 42.3164 21.1527 43.8887 22.6469 43.8984C24.1313 43.8887 25.1469 42.3164 25.1469 39.6016C25.1469 36.9062 24.1313 35.3242 22.6469 35.3242C21.1527 35.3242 20.1273 36.9062 20.1273 39.6016ZM49.5906 32.082V49.7383H47.5008V32.082H49.5906ZM34.532 39.7188C34.532 35.832 36.0359 33.4199 38.3406 33.4297C40.4793 33.4199 41.9344 35.4219 42.1883 38.7227H43.8875V32.3945H45.9578V48.8789H43.8875V40.4805H42.2078C42.0027 43.9277 40.5281 46.0371 38.3406 46.0273C36.0359 46.0371 34.532 43.6152 34.532 39.7188ZM36.5438 39.7188C36.534 42.4824 37.2176 43.9668 38.3406 43.957C39.5125 43.9668 40.2059 42.4824 40.2156 39.7188C40.2059 36.9648 39.5125 35.4707 38.3406 35.4805C37.2176 35.4707 36.534 36.9648 36.5438 39.7188ZM66.4758 32.082V49.7383H64.4055V32.082H66.4758ZM51.1047 44.4648C54.757 42.3066 56.4367 39.543 56.7687 35.9883H52.0031V34.2305H58.9172C58.9172 35.9395 58.7023 37.541 58.2238 39.0352H60.675V32.5117H62.7258V48.8984H60.675V40.7734H57.5109C56.4855 42.7949 54.8254 44.5625 52.3352 46.0078L51.1047 44.4648ZM87.1602 32.082V49.7578H84.9727V32.082H87.1602ZM73.0391 39.6016C73.0293 35.793 74.9727 33.3711 77.6484 33.3711C80.2949 33.3711 82.248 35.793 82.2578 39.6016C82.248 43.4395 80.2949 45.8516 77.6484 45.8516C74.9727 45.8516 73.0293 43.4395 73.0391 39.6016ZM75.1289 39.6016C75.1289 42.3164 76.1543 43.8887 77.6484 43.8984C79.1328 43.8887 80.1484 42.3164 80.1484 39.6016C80.1484 36.9062 79.1328 35.3242 77.6484 35.3242C76.1543 35.3242 75.1289 36.9062 75.1289 39.6016ZM104.143 32.082V41.6719H101.975V37.043H98.9672V35.2852H101.975V32.082H104.143ZM90.0219 34.5039V32.8633H98.0102V37.5117H92.2289V39.0547C95.0609 39.0449 97.0238 38.9668 99.2797 38.5469L99.475 40.2461C96.9359 40.6758 94.7582 40.7441 91.4477 40.7344H90.0414V35.9688H95.8422V34.5039H90.0219ZM91.9945 44.2109V42.5703H97.1508V41.1445H99.3187V42.5703H104.455V44.2109H91.9945ZM93.2055 47.2383C93.1957 45.627 95.0316 44.7871 98.225 44.7773C101.418 44.7871 103.274 45.627 103.264 47.2383C103.274 48.8887 101.418 49.7188 98.225 49.7188C95.0316 49.7188 93.1957 48.8887 93.2055 47.2383ZM95.3148 47.2383C95.3051 47.9023 96.2621 48.2148 98.225 48.2148C100.178 48.2148 101.145 47.9023 101.155 47.2383C101.145 46.6328 100.178 46.291 98.225 46.2812C96.2621 46.291 95.3051 46.6328 95.3148 47.2383ZM121.477 32.082V49.7383H119.407V32.082H121.477ZM106.106 44.4648C109.759 42.3066 111.438 39.543 111.77 35.9883H107.005V34.2305H113.919C113.919 35.9395 113.704 37.541 113.225 39.0352H115.677V32.5117H117.727V48.8984H115.677V40.7734H112.512C111.487 42.7949 109.827 44.5625 107.337 46.0078L106.106 44.4648ZM143.568 39.25V40.9688H136.576V42.2969H141.556V46.6328H131.517V47.9219H142.045V49.582H129.388V45.0703H139.427V43.9375H129.369V42.2969H134.408V40.9688H127.474V39.25H143.568ZM129.505 38.1367V32.6289H141.498V38.1367H129.505ZM131.634 36.4375H139.33V34.3281H131.634V36.4375ZM149.184 33.3711C151.566 33.3711 153.334 35.3633 153.646 38.5859H157.016V32.082H159.164V49.7578H157.016V40.3438H153.666C153.432 43.752 151.635 45.8516 149.184 45.8516C146.527 45.8516 144.643 43.4395 144.652 39.6016C144.643 35.793 146.527 33.3711 149.184 33.3711ZM146.742 39.6016C146.732 42.3164 147.729 43.8887 149.184 43.8984C150.648 43.8887 151.635 42.3164 151.645 39.6016C151.635 36.9062 150.648 35.3242 149.184 35.3242C147.729 35.3242 146.732 36.9062 146.742 39.6016ZM177.377 45.832V47.6094H161.245V45.832H168.198V42.3945H163.022V33.2539H165.19V36.1445H173.373V33.2539H175.541V42.3945H170.346V45.832H177.377ZM165.19 40.6367H173.373V37.8828H165.19V40.6367ZM183.637 36.7109C183.647 39.5625 184.624 42.5312 187.016 44.0352L185.825 45.6953C184.233 44.7383 183.198 43.0977 182.612 41.1738C181.977 43.293 180.845 45.0898 179.184 46.1055L177.837 44.4844C180.405 42.9316 181.538 39.8164 181.548 36.8086V33.6445H183.637V36.7109ZM185.122 39.9531V38.1562H187.641V32.3945H189.692V48.8789H187.641V39.9531H185.122ZM191.274 49.7383V32.082H193.364V49.7383H191.274ZM211.148 45.8125V47.5898H195.015V45.8125H198.745V41.3496C197.339 40.5391 196.489 39.2695 196.499 37.707C196.489 34.8945 199.243 33.0391 203.042 33.0391C206.861 33.0391 209.634 34.8945 209.624 37.707C209.634 39.25 208.804 40.4902 207.437 41.3008V45.8125H211.148ZM198.628 37.707C198.618 39.5137 200.405 40.666 203.042 40.6562C205.669 40.666 207.495 39.5137 207.495 37.707C207.495 35.8711 205.669 34.748 203.042 34.7578C200.405 34.748 198.618 35.8711 198.628 37.707ZM200.894 45.8125H205.23V42.1309C204.556 42.2773 203.823 42.3555 203.042 42.3555C202.28 42.3555 201.558 42.2773 200.894 42.1406V45.8125ZM215.533 33.8594L215.318 43.8398H213.111L212.877 33.8594H215.533ZM212.701 46.6328C212.691 45.8125 213.384 45.1387 214.224 45.1289C215.035 45.1387 215.728 45.8125 215.728 46.6328C215.728 47.4727 215.035 48.1562 214.224 48.1562C213.384 48.1562 212.691 47.4727 212.701 46.6328Z" fill="#232323"/>
<g clip-path="url(#clip0_266_7539)">
<path d="M247.191 28.9756C245.889 36.1012 246.006 44.9091 246.444 52.7473" stroke="#FEBC2E" stroke-width="16.8548"/>
<path d="M251.956 31.9019C252.263 30.5147 253.464 26.7701 255.824 22.8896" stroke="#FEBC2E" stroke-width="6.16639"/>
<path d="M252.467 30.0031C252.773 28.6159 253.464 26.7701 255.824 22.8896" stroke="#FA8D26" stroke-width="2.74062"/>
<path d="M241.712 29.4479C241.881 28.0374 242.711 24.1932 244.679 20.1006" stroke="#FEBC2E" stroke-width="6.16639"/>
<path d="M247.739 29.1099C247.471 29.6694 247.101 30.3272 246.573 31.8232" stroke="#FA8D26" stroke-width="0.685155"/>
<path d="M245.958 28.8354C245.69 29.395 245.32 30.0528 244.792 31.5488" stroke="#FA8D26" stroke-width="0.685155"/>
<path d="M239.518 38.842C232.735 36.3755 224.746 37.9102 232.529 24.5908" stroke="#FEBC2E" stroke-width="3.83687"/>
<ellipse cx="0.616639" cy="0.548124" rx="0.616639" ry="0.548124" transform="matrix(-1.31134e-07 -1 -1 1.31134e-07 242.395 33.7715)" fill="#002B53"/>
<ellipse cx="0.616639" cy="0.548124" rx="0.616639" ry="0.548124" transform="matrix(-1.31134e-07 -1 -1 1.31134e-07 249.52 34.1826)" fill="#002B53"/>
<ellipse cx="1.57586" cy="1.37031" rx="1.57586" ry="1.37031" transform="matrix(-1.31134e-07 -1 -1 1.31134e-07 251.713 37.3345)" fill="#FA8D26"/>
<ellipse cx="1.57586" cy="1.37031" rx="1.57586" ry="1.37031" transform="matrix(-1.31134e-07 -1 -1 1.31134e-07 241.572 36.6494)" fill="#FA8D26"/>
<path d="M241.918 27.5596C242.117 26.1531 242.667 24.2601 244.724 20.2114" stroke="#FA8D26" stroke-width="2.74062"/>
<path d="M232.983 26.3795C233.28 25.8313 233.97 24.7625 234.627 23.7759" stroke="#FEBC2E" stroke-width="1.23328"/>
<path d="M232.528 24.5908C232.368 24.842 232.008 25.4678 231.843 25.9611" stroke="#F86E21" stroke-width="0.548124"/>
<path d="M231.569 24.0425C231.409 24.2937 231.048 24.9195 230.884 25.4128" stroke="#F86E21" stroke-width="0.548124"/>
<path d="M242.664 35.0516L247.611 35.4722C247.882 35.4952 248.056 35.7732 247.952 36.0248C246.749 38.9428 245.829 38.3893 244.725 38.3893C243.012 38.3893 242.487 36.7394 242.229 35.5395C242.171 35.2724 242.392 35.0284 242.664 35.0516Z" fill="#F86E21" stroke="#F86E21" stroke-width="0.137031" stroke-linejoin="round"/>
<path d="M262.128 46.1727C262.151 43.6833 255.536 37.2904 252.741 40.4695" stroke="#FEBC2E" stroke-width="3.83687"/>
</g>
<defs>
<clipPath id="clip0_266_7539">
<rect width="49" height="45" fill="white" transform="matrix(-1 0 0 1 272 5.5)"/>
</clipPath>
</defs>
</svg>
