<svg width="163" height="180" viewBox="0 0 163 180" fill="none" xmlns="http://www.w3.org/2000/svg">
<g clip-path="url(#clip0_338_9094)">
<rect width="163" height="180" rx="27" fill="#FFF0CE"/>
<path d="M77.9507 131.264C81.76 152.115 83.0431 164.064 81.76 187" stroke="#FFD25C" stroke-width="49.3201"/>
<path d="M64.006 139.828C63.1104 135.768 59.5933 124.811 52.6891 113.456" stroke="#FFD25C" stroke-width="18.0439"/>
<path d="M62.513 134.271C61.6174 130.212 59.5933 124.811 52.6891 113.456" stroke="#FEBC2E" stroke-width="8.01953"/>
<path d="M93.984 132.647C93.4898 128.519 91.0612 117.271 85.3007 105.295" stroke="#FFD25C" stroke-width="18.0439"/>
<path d="M76.3466 131.656C77.1312 133.293 78.2128 135.218 79.7588 139.596" stroke="#FEBC2E" stroke-width="2.00488"/>
<path d="M81.5588 130.854C82.3434 132.492 83.4249 134.417 84.971 138.794" stroke="#FEBC2E" stroke-width="2.00488"/>
<path d="M100.405 160.134C120.253 152.916 143.63 157.407 120.854 118.432" stroke="#FFD25C" stroke-width="11.2273"/>
<ellipse cx="93.5886" cy="143.493" rx="1.8044" ry="1.6039" transform="rotate(-90 93.5886 143.493)" fill="#002B53"/>
<ellipse cx="72.7379" cy="144.697" rx="1.8044" ry="1.6039" transform="rotate(-90 72.7379 144.697)" fill="#002B53"/>
<ellipse cx="68.7278" cy="151.112" rx="4.61125" ry="4.00975" transform="rotate(-90 68.7278 151.112)" fill="#FEBC2E"/>
<ellipse cx="98.3998" cy="149.107" rx="4.61125" ry="4.00975" transform="rotate(-90 98.3998 149.107)" fill="#FEBC2E"/>
<path d="M93.3805 127.119C92.7962 123.004 91.1887 117.464 85.1679 105.617" stroke="#FEBC2E" stroke-width="8.01953"/>
<path d="M119.525 123.665C118.657 122.061 116.638 118.933 114.714 116.046" stroke="#FFD25C" stroke-width="3.60879"/>
<path d="M120.854 118.432C121.322 119.167 122.378 120.998 122.859 122.442" stroke="#FA8D26" stroke-width="1.60391"/>
<path d="M123.66 116.828C124.128 117.563 125.184 119.394 125.665 120.838" stroke="#FA8D26" stroke-width="1.60391"/>
<path d="M91.1963 149.042L76.7229 150.273C75.9295 150.34 75.4208 151.154 75.7243 151.89C79.2434 160.428 81.9351 158.809 85.1678 158.809C90.1781 158.809 91.7145 153.981 92.4712 150.47C92.6396 149.688 91.993 148.974 91.1963 149.042Z" fill="#FA8D26" stroke="#FA8D26" stroke-width="0.400976" stroke-linejoin="round"/>
<path d="M34.2441 181.587C34.1772 174.302 53.5315 155.596 61.7114 164.898" stroke="#FFD25C" stroke-width="11.2273"/>
<path d="M38.5395 38.02C38.5395 37.02 39.3395 36.2 40.3395 36.2H52.7195C53.7195 36.2 54.5395 37.02 54.5395 38.02V45.28C54.5395 46.28 53.7195 47.08 52.7195 47.08H48.5395V50.1H53.2995C54.2995 50.1 55.1195 50.92 55.1195 51.92C55.1195 52.92 54.2995 53.72 53.2995 53.72H39.7395C38.7395 53.72 37.9395 52.92 37.9395 51.92C37.9395 50.92 38.7395 50.1 39.7395 50.1H44.5395V47.08H40.3595C39.3595 47.08 38.5395 46.28 38.5395 45.28V38.02ZM50.5395 43.46V39.82H42.5395V43.46H50.5395ZM69.034 37.6C69.034 36.5 69.914 35.6 71.034 35.6C72.134 35.6 73.034 36.5 73.034 37.6V39.28H73.194C74.214 39.28 75.074 40.14 75.074 41.16C75.074 42.18 74.214 43.04 73.194 43.04H73.034V46.68H73.194C74.214 46.68 75.074 47.54 75.074 48.56C75.074 49.58 74.214 50.44 73.194 50.44H73.034V52.7C73.034 53.82 72.134 54.7 71.034 54.7C69.914 54.7 69.034 53.82 69.034 52.7V37.6ZM56.834 41.2C56.834 38.32 59.174 36 62.054 36C64.934 36 67.294 38.32 67.294 41.2V48.84C67.294 51.72 64.934 54.02 62.054 54.02C59.174 54.02 56.834 51.72 56.834 48.84V41.2ZM60.754 49.1C60.774 49.8 61.374 50.34 62.074 50.34C62.774 50.34 63.374 49.78 63.374 49.08V40.88C63.374 40.2 62.754 39.64 62.074 39.64C61.374 39.64 60.754 40.2 60.754 40.88V49.1ZM87.3085 53.14C86.1285 53.8 84.7485 54.14 83.3085 54.14C79.2885 54.14 75.9885 51.66 75.9885 47.2V43.04C75.9885 38.58 79.2885 36.1 83.3085 36.1C87.1685 36.1 90.6485 38.54 90.6485 43.04V47.2C90.6485 48.38 90.4085 49.42 89.9885 50.32L90.2285 50.56C90.6885 51.06 90.9885 51.62 90.9885 52.2C90.9885 52.58 90.8885 52.94 90.6485 53.3C90.2885 53.8 89.6285 54.14 88.9885 54.14C88.5685 54.14 88.1485 54 87.8085 53.64L87.3085 53.14ZM86.6285 43.2C86.6285 41.32 85.0885 39.94 83.3085 39.94C81.5085 39.94 80.0085 41.28 80.0085 43.18V47.02C80.0085 48.92 81.4285 50.2 83.2285 50.2C83.5685 50.2 83.9085 50.16 84.2285 50.06L83.2885 49.1C82.8685 48.64 82.5885 48.04 82.5885 47.44C82.5885 47.02 82.7085 46.62 82.9685 46.3C83.3485 45.82 83.9685 45.52 84.5885 45.52C85.0285 45.52 85.4485 45.68 85.8085 46.04L86.6285 46.88V43.2ZM92.3715 40.08C92.3715 37.76 94.2515 35.88 96.5715 35.88C98.8915 35.88 100.771 37.76 100.771 40.08V42.78H101.971V37.3C101.971 36.36 102.731 35.6 103.671 35.6C104.611 35.6 105.371 36.36 105.371 37.3V53C105.371 53.96 104.611 54.7 103.671 54.7C102.731 54.7 101.971 53.96 101.971 53V46.74H100.771V49.88C100.771 52.2 98.8915 54.08 96.5715 54.08C94.2515 54.08 92.3715 52.2 92.3715 49.88V40.08ZM106.171 37.3C106.171 36.36 106.931 35.6 107.871 35.6C108.811 35.6 109.571 36.36 109.571 37.3V53C109.571 53.96 108.811 54.7 107.871 54.7C106.931 54.7 106.171 53.96 106.171 53V37.3ZM95.7115 49.62C95.7115 50.1 96.0915 50.48 96.5715 50.48C97.0515 50.48 97.4315 50.1 97.4315 49.62V40.38C97.4315 39.9 97.0515 39.52 96.5715 39.52C96.0915 39.52 95.7115 39.9 95.7115 40.38V49.62ZM119.186 44.76C119.186 43.68 120.086 42.78 121.166 42.78V37.3C121.166 36.36 121.926 35.6 122.866 35.6C123.806 35.6 124.566 36.36 124.566 37.3V53C124.566 53.96 123.806 54.7 122.866 54.7C121.926 54.7 121.166 53.96 121.166 53V46.74C120.086 46.74 119.186 45.84 119.186 44.76ZM125.366 37.3C125.366 36.36 126.126 35.6 127.066 35.6C128.006 35.6 128.766 36.36 128.766 37.3V53C128.766 53.96 128.006 54.7 127.066 54.7C126.126 54.7 125.366 53.96 125.366 53V37.3ZM113.166 39.82C112.166 39.82 111.366 39.02 111.366 38.02C111.366 37.02 112.166 36.2 113.166 36.2H118.346C119.346 36.2 120.166 37.02 120.166 38.02C120.166 38.24 120.126 38.46 120.046 38.64L116.606 52.68C116.346 53.7 115.286 54.18 114.446 53.98C113.546 53.76 112.866 52.8 113.106 51.86L116.066 39.82H113.166ZM40.2925 75.76C40.2925 74.68 41.1925 73.78 42.2725 73.78H43.2125V68.6C43.2125 67.5 44.0925 66.6 45.2125 66.6C46.3125 66.6 47.2125 67.5 47.2125 68.6V83.7C47.2125 84.82 46.3125 85.7 45.2125 85.7C44.0925 85.7 43.2125 84.82 43.2125 83.7V77.74H42.2725C41.1925 77.74 40.2925 76.84 40.2925 75.76ZM30.8125 68.92C30.8125 67.92 31.6125 67.1 32.6125 67.1H39.3725C40.3725 67.1 41.1925 67.92 41.1925 68.92C41.1925 69.92 40.3725 70.72 39.3725 70.72H34.8125V81.28H39.5525C40.5525 81.28 41.3725 82.1 41.3725 83.1C41.3725 84.1 40.5525 84.9 39.5525 84.9H32.6125C31.6125 84.9 30.8125 84.1 30.8125 83.1V68.92ZM68.6133 68.6C68.6133 67.5 69.4933 66.6 70.6133 66.6C71.7133 66.6 72.6133 67.5 72.6133 68.6V74C72.6133 75.12 71.7133 76 70.6133 76C69.4933 76 68.6133 75.12 68.6133 74V68.6ZM57.3733 70.06C56.5333 70.02 55.8733 69.32 55.8733 68.46C55.8733 67.58 56.5933 66.84 57.4733 66.84H65.6933C66.5733 66.84 67.2933 67.58 67.2933 68.46C67.2933 69.34 66.5733 70.06 65.6933 70.06H61.7133L61.5333 70.58H64.6333C65.3933 70.58 66.0333 71.04 66.2533 71.64L66.8933 73.28C67.2533 74.2 66.5333 75.42 65.5133 75.72C64.4133 76.04 63.2933 75.42 62.9733 74.42L62.6533 73.6H60.3933L60.0933 74.42C59.7333 75.4 58.6533 76.04 57.5533 75.72C56.5333 75.42 55.8733 74.22 56.1733 73.28L57.3733 70.06ZM72.6133 80.94C72.6133 81.68 72.0133 82.3 71.2533 82.3H60.7133V82.8H71.4533C72.2133 82.8 72.7933 83.42 72.7933 84.14C72.7933 84.9 72.2133 85.5 71.4533 85.5H58.0733C57.3133 85.5 56.7133 84.9 56.7133 84.14V80.96C56.7133 80.22 57.3133 79.6 58.0733 79.6H68.6133V79.1H58.0533C57.2933 79.1 56.7133 78.48 56.7133 77.76C56.7133 77 57.2933 76.4 58.0533 76.4H71.2533C72.0133 76.4 72.6133 77 72.6133 77.76V80.94ZM91.6878 72.56C91.6878 73.42 90.9678 74.1 90.1078 74.1H77.2678C76.4078 74.1 75.7078 73.42 75.7078 72.56V68.48C75.7078 67.6 76.4278 66.9 77.2878 66.9H90.1078C90.9678 66.9 91.6878 67.6 91.6878 68.48V72.56ZM87.7278 71.02V69.98H79.6678V71.02H87.7278ZM75.1078 76.52C75.1078 75.64 75.8278 74.94 76.6878 74.94H90.7278C91.5878 74.94 92.3078 75.64 92.3078 76.52C92.3078 77.38 91.5878 78.06 90.7278 78.06H85.7078V78.7C85.7078 79.82 84.8078 80.7 83.7078 80.7C82.5878 80.7 81.7078 79.82 81.7078 78.7V78.06H76.6678C75.8078 78.06 75.1078 77.38 75.1078 76.52ZM75.7078 80.88C75.7078 79.78 76.5878 78.88 77.7078 78.88C78.8078 78.88 79.7078 79.78 79.7078 80.88V82.22H90.3278C91.1878 82.22 91.9078 82.94 91.9078 83.82C91.9078 84.68 91.1878 85.38 90.3278 85.38H77.2678C76.4078 85.38 75.7078 84.68 75.7078 83.82V80.88ZM93.4623 70.44C93.4623 69.5 94.2223 68.72 95.1623 68.72H96.5423V68.3C96.5423 67.36 97.3023 66.6 98.2423 66.6C99.1823 66.6 99.9423 67.36 99.9423 68.3V68.72H101.202C102.142 68.72 102.922 69.5 102.922 70.44C102.922 71.38 102.142 72.14 101.202 72.14H95.1623C94.2223 72.14 93.4623 71.38 93.4623 70.44ZM103.202 68.3C103.202 67.36 103.962 66.6 104.902 66.6C105.842 66.6 106.602 67.36 106.602 68.3V73.62H107.802V68.3C107.802 67.36 108.562 66.6 109.502 66.6C110.442 66.6 111.202 67.36 111.202 68.3V84C111.202 84.96 110.442 85.7 109.502 85.7C108.562 85.7 107.802 84.96 107.802 84V77.5H106.602V84C106.602 84.96 105.842 85.7 104.902 85.7C103.962 85.7 103.202 84.96 103.202 84V68.3ZM94.0823 76.8C94.0823 74.48 95.9023 72.6 98.2223 72.6C100.542 72.6 102.362 74.48 102.362 76.8V81C102.362 83.32 100.542 85.2 98.2223 85.2C95.9023 85.2 94.0823 83.32 94.0823 81V76.8ZM97.4223 80.74C97.4223 81.22 97.7423 81.6 98.2223 81.6C98.7023 81.6 99.0223 81.22 99.0223 80.74V77.1C99.0223 76.62 98.7023 76.24 98.2223 76.24C97.7423 76.24 97.4223 76.62 97.4223 77.1V80.74ZM124.377 76.82C124.377 77.82 123.557 78.62 122.557 78.62H120.737V80.54H125.597V68.5C125.597 67.46 126.437 66.6 127.497 66.6C128.537 66.6 129.397 67.46 129.397 68.5V73.86H129.417C130.497 73.86 131.397 74.76 131.397 75.84C131.397 76.92 130.497 77.82 129.417 77.82H129.397V83.82C129.397 84.88 128.537 85.72 127.497 85.72C126.557 85.72 125.777 85.04 125.617 84.16H114.697C113.697 84.16 112.897 83.36 112.897 82.36C112.897 81.36 113.697 80.54 114.697 80.54H116.937V78.62H115.317C114.317 78.62 113.497 77.82 113.497 76.82V69C113.497 67.9 114.277 67 115.397 67C116.497 67 117.257 67.9 117.257 69V69.74H120.597V69C120.597 67.9 121.357 67 122.477 67C123.577 67 124.377 67.9 124.377 69V76.82ZM120.597 75.04V73.32H117.257V75.04H120.597ZM132.591 68.4C132.591 67.3 133.471 66.4 134.591 66.4C135.691 66.4 136.591 67.3 136.591 68.4V78.5C136.591 79.62 135.691 80.5 134.591 80.5C133.471 80.5 132.591 79.62 132.591 78.5V68.4ZM132.591 83.42C132.591 82.34 133.491 81.44 134.571 81.44C135.651 81.44 136.551 82.34 136.551 83.42C136.551 84.5 135.651 85.4 134.571 85.4C133.491 85.4 132.591 84.5 132.591 83.42Z" fill="#FEBC2E"/>
</g>
<defs>
<clipPath id="clip0_338_9094">
<rect width="163" height="180" rx="27" fill="white"/>
</clipPath>
</defs>
</svg>
