<svg xmlns="http://www.w3.org/2000/svg" width="90" height="69" viewBox="0 0 90 69" fill="none">
  <path fill-rule="evenodd" clip-rule="evenodd" d="M24.5033 59.9999H65.7147C65.7437 46.6202 64.3943 36.4704 61.7952 22.2441L21.2516 29.6511C23.4789 41.8426 24.531 49.5736 24.5033 59.9999Z" fill="#FFD25C"/>
  <path d="M29.8709 33.1039C29.1225 29.7117 26.1834 20.5552 20.4138 11.0664" stroke="#FFD25C" stroke-width="15.0785"/>
  <path d="M28.6232 28.4608C27.8749 25.0686 26.1834 20.5552 20.4138 11.0664" stroke="#FEBC2E" stroke-width="6.70157"/>
  <path d="M54.922 27.1031C54.509 23.654 52.4795 14.254 47.6656 4.24634" stroke="#FFD25C" stroke-width="15.0785"/>
  <path d="M40.1835 26.2759C40.8392 27.644 41.743 29.2526 43.035 32.9108" stroke="#FEBC2E" stroke-width="1.67539"/>
  <path d="M44.5392 25.6057C45.1948 26.9738 46.0986 28.5825 47.3906 32.2406" stroke="#FEBC2E" stroke-width="1.67539"/>
  <path d="M60.2885 50.0733C76.8748 44.0418 96.4099 47.7947 77.3774 15.2251" stroke="#FFD25C" stroke-width="9.3822"/>
  <ellipse cx="54.5915" cy="36.1674" rx="1.50785" ry="1.34031" transform="rotate(-90 54.5915 36.1674)" fill="#002B53"/>
  <ellipse cx="37.1678" cy="37.1728" rx="1.50785" ry="1.34031" transform="rotate(-90 37.1678 37.1728)" fill="#002B53"/>
  <ellipse cx="33.817" cy="42.534" rx="3.8534" ry="3.35078" transform="rotate(-90 33.817 42.534)" fill="#FEBC2E"/>
  <ellipse cx="58.6128" cy="40.8588" rx="3.8534" ry="3.35078" transform="rotate(-90 58.6128 40.8588)" fill="#FEBC2E"/>
  <path d="M54.4177 22.4847C53.9295 19.0454 52.5861 14.4164 47.5548 4.51636" stroke="#FEBC2E" stroke-width="6.70157"/>
  <path d="M76.267 19.5982C75.541 18.2579 73.8544 15.6443 72.246 13.2317" stroke="#FFD25C" stroke-width="3.01571"/>
  <path d="M77.3774 15.2251C77.7683 15.8394 78.6507 17.3696 79.0528 18.5759" stroke="#FA8D26" stroke-width="1.34031"/>
  <path d="M79.7226 13.8848C80.1135 14.4991 80.9959 16.0293 81.398 17.2355" stroke="#FA8D26" stroke-width="1.34031"/>
  <path d="M52.5931 40.8041L40.4983 41.8326C39.8352 41.889 39.4101 42.5687 39.6637 43.1839C42.6045 50.3192 44.8538 48.9657 47.5553 48.9657C51.7422 48.9657 53.0261 44.9313 53.6585 41.9972C53.7992 41.3441 53.2588 40.7475 52.5931 40.8041Z" fill="#FA8D26" stroke="#FA8D26" stroke-width="0.335078" stroke-linejoin="round"/>
  <path d="M5.00002 68.0001C4.94418 61.9129 21.1178 46.2805 27.9534 54.0543" stroke="#FFD25C" stroke-width="9.3822"/>
</svg>