<svg xmlns="http://www.w3.org/2000/svg" width="15" height="18" viewBox="0 0 15 18" fill="none">
  <path d="M7.87891 1.5C8.07891 1.5 8.27891 1.52 8.48891 1.57C9.33891 1.76 10.0389 2.43 10.2789 3.26C10.6189 4.44 10.0789 5.27 9.73891 5.66C9.41891 6.01 9.28892 6.5 9.38892 6.96C9.47892 7.43 9.78892 7.82 10.2189 8.02C12.1489 8.92 13.3889 10.87 13.3889 12.99V15.46C13.3889 16.03 12.9289 16.5 12.3489 16.5H3.41891C2.84891 16.5 2.37891 16.04 2.37891 15.46V12.99C2.37891 10.87 3.61892 8.92 5.54892 8.02C5.97892 7.82 6.28891 7.43 6.37891 6.96C6.46891 6.49 6.33892 6.01 6.02892 5.66C5.72892 5.33 5.37891 4.77 5.37891 4C5.37891 2.62 6.49891 1.5 7.87891 1.5ZM7.87891 0C5.66891 0 3.87891 1.79 3.87891 4C3.87891 5.03 4.27891 5.95 4.91891 6.66C2.53891 7.78 0.878906 10.19 0.878906 12.99V15.46C0.878906 16.86 2.01891 18 3.41891 18H12.3489C13.7489 18 14.8889 16.86 14.8889 15.46V12.99C14.8889 10.19 13.2389 7.78 10.8489 6.66C11.7189 5.69 12.1389 4.32 11.7189 2.85C11.3289 1.5 10.1989 0.420001 8.82892 0.110001C8.49892 0.0300006 8.18891 0 7.87891 0Z" fill="black"/>
</svg>