<svg width="94" height="95" viewBox="0 0 94 95" fill="none" xmlns="http://www.w3.org/2000/svg">
<rect x="29.5" y="13" width="30" height="46" rx="15" fill="#FA8D26" stroke="white" stroke-width="2"/>
<path d="M52 36.5V39" stroke="#FFD25C" stroke-width="5" stroke-linecap="round"/>
<path fill-rule="evenodd" clip-rule="evenodd" d="M25 45C25 42.5147 22.9853 40.5 20.5 40.5C18.0147 40.5 16 42.5147 16 45C16 59.2089 26.3981 70.9892 40 73.1467V81C40 83.4853 42.0147 85.5 44.5 85.5C46.9853 85.5 49 83.4853 49 81V73.1467C62.6019 70.9892 73 59.2089 73 45C73 42.5147 70.9853 40.5 68.5 40.5C66.0147 40.5 64 42.5147 64 45C64 55.7696 55.2696 64.5 44.5 64.5C33.7304 64.5 25 55.7696 25 45Z" fill="#987DF9"/>
<path d="M40 73.1467H41V72.2929L40.1567 72.1591L40 73.1467ZM49 73.1467L48.8433 72.1591L48 72.2929V73.1467H49ZM20.5 41.5C22.433 41.5 24 43.067 24 45H26C26 41.9624 23.5376 39.5 20.5 39.5V41.5ZM17 45C17 43.067 18.567 41.5 20.5 41.5V39.5C17.4624 39.5 15 41.9624 15 45H17ZM40.1567 72.1591C27.0328 70.0774 17 58.7094 17 45H15C15 59.7084 25.7633 71.901 39.8433 74.1344L40.1567 72.1591ZM41 81V73.1467H39V81H41ZM44.5 84.5C42.567 84.5 41 82.933 41 81H39C39 84.0376 41.4624 86.5 44.5 86.5V84.5ZM48 81C48 82.933 46.433 84.5 44.5 84.5V86.5C47.5376 86.5 50 84.0376 50 81H48ZM48 73.1467V81H50V73.1467H48ZM72 45C72 58.7094 61.9672 70.0774 48.8433 72.1591L49.1567 74.1344C63.2367 71.901 74 59.7084 74 45H72ZM68.5 41.5C70.433 41.5 72 43.067 72 45H74C74 41.9624 71.5376 39.5 68.5 39.5V41.5ZM65 45C65 43.067 66.567 41.5 68.5 41.5V39.5C65.4624 39.5 63 41.9624 63 45H65ZM44.5 65.5C55.8218 65.5 65 56.3218 65 45H63C63 55.2173 54.7173 63.5 44.5 63.5V65.5ZM24 45C24 56.3218 33.1782 65.5 44.5 65.5V63.5C34.2827 63.5 26 55.2173 26 45H24Z" fill="white"/>
<path d="M52 30.5C52 27.5 50.5 21.4 44.5 21" stroke="#FFD25C" stroke-width="5" stroke-linecap="round"/>
<g style="mix-blend-mode:soft-light">
<path d="M37.4999 8C20.5 11.5 8.00002 31 8 47.5" stroke="#FFF7E2" stroke-width="16" stroke-linecap="round"/>
</g>
</svg>
