<svg width="342" height="183" viewBox="0 0 342 183" fill="none" xmlns="http://www.w3.org/2000/svg">
<rect y="17.5" width="88" height="27" rx="13.5" fill="#987DF9"/>
<path d="M20.2578 26.6641C21.6992 26.6641 22.7773 27.8477 22.9883 29.7695H24.8398V25.9141H26.3164V36.6016H24.8398V30.9648H23.0059C22.8477 33.0156 21.7461 34.2695 20.2578 34.2695C18.6406 34.2695 17.4805 32.8047 17.4922 30.4609C17.4805 28.1348 18.6406 26.6641 20.2578 26.6641ZM18.9219 30.4609C18.916 32.0488 19.4609 32.916 20.2578 32.9102C21.0605 32.916 21.5938 32.0488 21.5938 30.4609C21.5938 28.8789 21.0605 28.0117 20.2578 28.0117C19.4609 28.0117 18.916 28.8789 18.9219 30.4609ZM36.3655 25.9258V33.7773H34.8772V25.9258H36.3655ZM27.9983 27.8125V26.6172H32.9436V30.0156H29.4748V31.1992C31.385 31.1934 32.592 31.1348 33.9748 30.8711L34.1389 32.0664C32.5862 32.3594 31.2034 32.418 28.9475 32.418H28.01V28.9141H31.4553V27.8125H27.9983ZM29.1936 36.3906V33.1211H30.6819V35.1953H36.6467V36.3906H29.1936ZM46.5083 25.9141V36.6016H44.9966V25.9141H46.5083ZM37.895 30.4609C37.8891 28.1348 39.0786 26.6641 40.7192 26.6641C42.3247 26.6641 43.52 28.1348 43.52 30.4609C43.52 32.8047 42.3247 34.2695 40.7192 34.2695C39.0786 34.2695 37.8891 32.8047 37.895 30.4609ZM39.3364 30.4609C39.3305 32.0488 39.8872 32.916 40.7192 32.9102C41.5278 32.916 42.0727 32.0488 42.0786 30.4609C42.0727 28.8789 41.5278 28.0117 40.7192 28.0117C39.8872 28.0117 39.3305 28.8789 39.3364 30.4609ZM55.2392 27.0977V28.2812H53.5986C53.6045 29.3477 54.2138 30.3672 55.5556 30.8359L54.8877 31.9492C53.9384 31.6152 53.2998 31 52.9189 30.2441C52.5439 31.082 51.8994 31.7676 50.9267 32.125L50.2236 31.0469C51.5654 30.5312 52.1689 29.4238 52.1806 28.2812H50.5283V27.0977H52.1806V26.043H53.5986V27.0977H55.2392ZM51.5244 35.3711C53.8037 35.084 54.9463 33.9238 54.9463 32.8047V32.6289H56.4463V32.8047C56.4404 33.9238 57.6005 35.084 59.8681 35.3711L59.3525 36.5312C57.6064 36.2969 56.3584 35.5703 55.7021 34.5742C55.04 35.5703 53.7861 36.2969 52.0517 36.5312L51.5244 35.3711ZM55.7197 32.1953V26.0898H57.1259V28.4688H57.9814V25.9258H59.3994V33.1328H57.9814V29.6875H57.1259V32.1953H55.7197ZM63.0852 26.2188V27.1445H67.3625V26.2188H68.8508V30.2383H65.968V31.1055H70.093V32.2891H60.3664V31.1055H64.4914V30.2383H61.6086V26.2188H63.0852ZM61.0227 35.3828C63.343 35.1367 64.4562 34.0762 64.468 33.0273V32.8281H65.9797V33.0273C65.9738 34.0762 67.0871 35.1367 69.4367 35.3828L68.9211 36.5312C67.1516 36.3027 65.8859 35.6406 65.2238 34.709C64.5559 35.6406 63.302 36.3027 61.55 36.5312L61.0227 35.3828ZM63.0852 29.0781H67.3625V28.2578H63.0852V29.0781Z" fill="white"/>
<path d="M12.054 72.522H2.268C1.68 72.522 1.358 72.2 1.358 71.612V68.63C1.358 68.112 1.792 67.804 2.324 67.804C2.87 67.804 3.304 68.112 3.304 68.63V71.01H12.054C12.474 71.01 12.81 71.346 12.81 71.766C12.81 72.172 12.474 72.522 12.054 72.522ZM7.042 78.038C6.51 78.038 6.09 77.744 6.09 77.226V75.336H1.302C0.868 75.336 0.518 74.986 0.518 74.552C0.518 74.118 0.868 73.768 1.302 73.768H12.698C13.132 73.768 13.482 74.118 13.482 74.552C13.482 74.986 13.132 75.336 12.698 75.336H8.008V77.226C8.008 77.744 7.588 78.038 7.042 78.038ZM12.194 80.754H2.268C1.68 80.754 1.358 80.432 1.358 79.844V77.156C1.358 76.624 1.792 76.316 2.338 76.316C2.87 76.316 3.304 76.624 3.304 77.156V79.242H12.194C12.614 79.242 12.95 79.578 12.95 79.998C12.95 80.418 12.614 80.754 12.194 80.754ZM25.284 74.916C24.738 74.916 24.304 74.608 24.304 74.062V68.644C24.304 68.112 24.738 67.804 25.284 67.804C25.844 67.804 26.264 68.112 26.264 68.644V70.282H27.258C27.692 70.282 28.014 70.646 28.014 71.08C28.014 71.528 27.692 71.892 27.258 71.892H26.264V74.062C26.264 74.608 25.844 74.916 25.284 74.916ZM18.298 74.636C16.31 74.636 14.672 73.642 14.672 71.682V70.87C14.672 68.91 16.31 67.902 18.298 67.902C20.3 67.902 21.924 68.91 21.924 70.87V71.682C21.924 73.642 20.3 74.636 18.298 74.636ZM18.326 73.208C19.32 73.208 20.076 72.704 20.076 71.738V70.814C20.076 69.848 19.32 69.33 18.326 69.33C17.304 69.33 16.548 69.848 16.548 70.814V71.738C16.548 72.704 17.304 73.208 18.326 73.208ZM25.788 76.834H15.862C15.47 76.834 15.148 76.512 15.148 76.12C15.148 75.728 15.47 75.406 15.862 75.406H25.788C26.166 75.406 26.502 75.728 26.502 76.12C26.502 76.512 26.166 76.834 25.788 76.834ZM25.928 80.754H15.722C15.33 80.754 15.008 80.432 15.008 80.04C15.008 79.648 15.33 79.326 15.722 79.326H17.374L17.206 77.926C17.15 77.436 17.556 77.128 18.172 77.128C18.732 77.128 19.082 77.366 19.138 77.8L19.32 79.326H22.316L22.498 77.8C22.54 77.366 22.904 77.128 23.464 77.128C24.066 77.128 24.486 77.436 24.43 77.926L24.262 79.326H25.928C26.306 79.326 26.642 79.648 26.642 80.04C26.642 80.432 26.306 80.754 25.928 80.754ZM36.876 67.804C37.366 67.804 37.758 68.112 37.758 68.588V80.082C37.758 80.558 37.366 80.866 36.876 80.866C36.4 80.866 36.008 80.558 36.008 80.082V74.734H34.286V77.646C34.286 79.298 32.998 80.432 31.374 80.432C29.736 80.432 28.448 79.298 28.448 77.646V70.856C28.448 69.204 29.736 68.07 31.374 68.07C32.998 68.07 34.286 69.204 34.286 70.856V73.11H36.008V68.588C36.008 68.112 36.4 67.804 36.876 67.804ZM39.718 67.804C40.208 67.804 40.6 68.126 40.6 68.602V80.068C40.6 80.544 40.208 80.866 39.718 80.866C39.228 80.866 38.836 80.544 38.836 80.068V68.602C38.836 68.126 39.228 67.804 39.718 67.804ZM32.564 77.618V70.884C32.564 70.142 32.046 69.624 31.388 69.624C30.73 69.624 30.212 70.142 30.212 70.884V77.618C30.212 78.374 30.73 78.878 31.388 78.878C32.046 78.878 32.564 78.374 32.564 77.618ZM57.8033 74.37H53.0293V75.952H55.6053C56.9913 75.952 57.9293 77.072 57.9293 78.36C57.9293 79.69 56.9913 80.81 55.6053 80.81H48.5493C47.1493 80.81 46.2253 79.69 46.2253 78.36C46.2253 77.072 47.1493 75.952 48.5493 75.952H51.1113V74.37H46.3653C45.9453 74.37 45.5953 74.02 45.5953 73.6C45.5953 73.18 45.9453 72.844 46.3653 72.844H54.8493C55.3253 71.668 55.5773 70.576 55.7033 69.554H47.0793C46.6593 69.554 46.3233 69.218 46.3233 68.784C46.3233 68.378 46.6593 68.028 47.0793 68.028H56.8233C57.4393 68.028 57.7333 68.392 57.6773 68.994C57.5233 70.282 57.2573 71.556 56.7953 72.844H57.8033C58.2233 72.844 58.5593 73.18 58.5593 73.6C58.5593 74.02 58.2233 74.37 57.8033 74.37ZM56.0393 78.346C56.0393 77.814 55.6613 77.422 55.1433 77.422H48.9833C48.4793 77.422 48.1153 77.814 48.1153 78.346C48.1153 78.892 48.4793 79.298 48.9833 79.298H55.1433C55.6613 79.298 56.0393 78.892 56.0393 78.346ZM70.5293 72.718H71.5233C71.9293 72.718 72.2793 73.068 72.2793 73.502C72.2793 73.922 71.9293 74.272 71.5233 74.272H60.0853C59.6653 74.272 59.3153 73.922 59.3153 73.502C59.3153 73.068 59.6653 72.718 60.0853 72.718H68.5833C69.0313 71.598 69.2833 70.52 69.3813 69.54H60.7993C60.3793 69.54 60.0433 69.204 60.0433 68.784C60.0433 68.364 60.3793 68.028 60.7993 68.028H70.5293C71.1453 68.028 71.4253 68.392 71.3693 69.008C71.2573 70.24 70.9773 71.486 70.5293 72.718ZM61.0233 75.784H70.5713C71.1313 75.784 71.4393 76.092 71.4393 76.652V80.082C71.4393 80.614 71.0193 80.866 70.4733 80.866C70.0393 80.866 69.6893 80.698 69.5633 80.348L61.0373 80.726C60.4773 80.754 60.1553 80.432 60.1553 79.872V76.652C60.1553 76.092 60.4633 75.784 61.0233 75.784ZM69.5213 77.226H62.0733V79.214L69.5213 78.906V77.226ZM80.9593 70.366H73.9033C73.5113 70.366 73.1753 70.044 73.1753 69.638C73.1753 69.232 73.5113 68.91 73.9033 68.91H76.4233V68.168C76.4233 67.706 76.8713 67.44 77.4313 67.44C77.9913 67.44 78.4393 67.706 78.4393 68.168V68.91H80.9593C81.3513 68.91 81.6873 69.232 81.6873 69.638C81.6873 70.044 81.3513 70.366 80.9593 70.366ZM84.0813 77.52C83.5353 77.52 83.1013 77.212 83.1013 76.68V68.644C83.1013 68.112 83.5353 67.804 84.0813 67.804C84.6413 67.804 85.0613 68.112 85.0613 68.644V71.444H86.0273C86.4893 71.444 86.8113 71.808 86.8113 72.256C86.8113 72.704 86.4893 73.068 86.0273 73.068H85.0613V76.68C85.0613 77.212 84.6413 77.52 84.0813 77.52ZM73.5253 73.432C73.5253 72.004 74.5613 71.024 75.7653 71.024H79.1113C80.3153 71.024 81.3373 72.004 81.3373 73.432C81.3373 74.86 80.3153 75.854 79.1113 75.854H75.7653C74.5613 75.854 73.5253 74.86 73.5253 73.432ZM76.3673 74.412H78.5233C79.1953 74.412 79.5733 73.964 79.5733 73.432C79.5733 72.886 79.1953 72.452 78.5233 72.452H76.3673C75.6953 72.452 75.3173 72.886 75.3173 73.432C75.3173 73.964 75.6953 74.412 76.3673 74.412ZM84.6693 80.754H75.0933C74.5053 80.754 74.1693 80.432 74.1693 79.844V77.408C74.1693 76.876 74.6173 76.568 75.1633 76.568C75.7093 76.568 76.1433 76.876 76.1433 77.408V79.214H84.6693C85.1033 79.214 85.4533 79.564 85.4533 79.984C85.4533 80.404 85.1033 80.754 84.6693 80.754ZM99.5065 67.804C99.9965 67.804 100.389 68.112 100.389 68.588V80.082C100.389 80.558 99.9965 80.866 99.5065 80.866C99.0165 80.866 98.6385 80.558 98.6385 80.082V74.734H96.4265C95.6285 77.576 94.1025 79.2 92.0585 80.012C91.9745 80.054 91.8625 80.068 91.7505 80.068C91.3025 80.068 90.9245 79.704 90.9245 79.242C90.9245 78.906 91.1485 78.598 91.4285 78.472C94.3685 77.24 95.2225 74.006 95.2225 70.058H91.8065C91.3725 70.058 90.9945 69.708 90.9945 69.246C90.9945 68.812 91.3725 68.434 91.8065 68.434H96.0765C96.6925 68.434 97.0145 68.77 97.0145 69.372V69.652C97.0145 70.94 96.9305 72.088 96.7765 73.11H98.6385V68.588C98.6385 68.112 99.0165 67.804 99.5065 67.804ZM102.433 67.804C102.923 67.804 103.315 68.126 103.315 68.602V80.068C103.315 80.544 102.923 80.866 102.433 80.866C101.943 80.866 101.551 80.544 101.551 80.068V68.602C101.551 68.126 101.943 67.804 102.433 67.804ZM119.818 75.056C119.258 75.056 118.824 74.748 118.824 74.216V68.658C118.824 68.126 119.258 67.804 119.818 67.804C120.364 67.804 120.812 68.126 120.812 68.658V74.216C120.812 74.748 120.364 75.056 119.818 75.056ZM112.622 74.58C110.508 74.58 108.8 73.586 108.8 71.626V70.87C108.8 68.91 110.508 67.902 112.622 67.902C114.708 67.902 116.416 68.91 116.416 70.87V71.626C116.416 73.586 114.708 74.58 112.622 74.58ZM112.622 73.152C113.672 73.152 114.484 72.648 114.484 71.696V70.814C114.484 69.862 113.672 69.33 112.622 69.33C111.544 69.33 110.746 69.862 110.746 70.814V71.696C110.746 72.648 111.544 73.152 112.622 73.152ZM114.54 80.768C113.462 80.362 112.636 79.648 112.286 78.864C111.922 79.746 111.026 80.46 109.794 80.768C109.304 80.894 108.814 80.516 108.814 79.998C108.814 79.634 109.038 79.34 109.374 79.242C110.704 78.864 111.348 77.884 111.348 76.82V76.358C111.348 75.896 111.768 75.616 112.272 75.616C112.79 75.616 113.196 75.896 113.196 76.358V76.82C113.196 78.01 114.148 78.99 115.198 79.368C116.262 78.99 117.214 77.968 117.214 76.736V76.218C117.214 75.756 117.62 75.476 118.138 75.476C118.642 75.476 119.048 75.756 119.048 76.218V76.736C119.048 77.828 119.692 78.864 121.008 79.242C121.316 79.34 121.568 79.634 121.568 79.998C121.568 80.516 121.064 80.894 120.56 80.754C119.384 80.46 118.544 79.718 118.18 78.836C117.816 79.662 116.976 80.376 115.87 80.782C115.394 80.95 115.002 80.95 114.54 80.768ZM133.538 67.804C134.084 67.804 134.518 68.168 134.518 68.686V79.97C134.518 80.502 134.084 80.866 133.538 80.866C132.992 80.866 132.558 80.502 132.558 79.97V74.748H129.744V77.086C129.744 79.088 128.176 80.432 126.132 80.432C124.088 80.432 122.52 79.088 122.52 77.086V71.416C122.52 69.414 124.088 68.07 126.132 68.07C128.176 68.07 129.744 69.414 129.744 71.416V73.124H132.558V68.686C132.558 68.168 132.992 67.804 133.538 67.804ZM127.896 77.184V71.304C127.896 70.338 127.168 69.638 126.146 69.638C125.11 69.638 124.396 70.338 124.396 71.304V77.184C124.396 78.192 125.11 78.864 126.146 78.864C127.168 78.864 127.896 78.192 127.896 77.184ZM141.042 71.332V70.8C141.042 69.89 140.468 69.428 139.432 69.428C138.396 69.428 137.794 69.932 137.794 70.814V71.066C137.794 71.542 137.416 71.892 136.842 71.892C136.268 71.892 135.89 71.542 135.89 71.066V70.534C135.89 68.602 137.374 67.762 139.432 67.762C141.448 67.762 142.96 68.602 142.96 70.562V71.374C142.96 73.362 140.314 73.558 140.286 75.462L140.272 76.47C140.258 77.03 139.88 77.324 139.376 77.324C138.872 77.324 138.494 77.03 138.494 76.456V75.392C138.494 73.194 141.042 72.62 141.042 71.332ZM139.614 80.572H139.166C138.746 80.572 138.438 80.278 138.438 79.858V79.41C138.438 78.99 138.746 78.682 139.166 78.682H139.614C140.034 78.682 140.328 78.99 140.328 79.41V79.858C140.328 80.278 140.034 80.572 139.614 80.572Z" fill="white"/>
<path d="M19.56 120.7C18.312 120.7 17.28 119.86 17.28 118.612V100.06C17.28 98.836 18.312 97.996 19.56 97.996C20.832 97.996 21.84 98.836 21.84 100.06V106.564H22.968C24.048 106.564 24.6 107.452 24.6 108.508C24.6 109.612 24.048 110.5 22.968 110.5H21.84V118.612C21.84 119.86 20.832 120.7 19.56 120.7ZM3.144 119.332C1.968 119.332 1.008 118.396 1.008 117.196C1.008 116.5 1.344 115.876 1.872 115.468C4.344 113.692 6.216 110.956 6.216 104.98V100.564C6.216 99.316 7.224 98.524 8.472 98.524C9.72 98.524 10.728 99.316 10.728 100.564V104.98C10.728 110.956 12.6 113.692 15.048 115.468C15.576 115.876 15.96 116.5 15.96 117.196C15.96 118.396 14.976 119.38 13.776 119.38C13.248 119.38 12.768 119.188 12.408 118.876C10.752 117.58 9.336 115.804 8.472 113.788C7.608 115.78 6.168 117.556 4.536 118.852C4.176 119.164 3.672 119.332 3.144 119.332ZM43.776 114.964C42.48 114.964 41.448 114.316 41.448 113.044V99.94C41.448 98.668 42.48 97.996 43.776 97.996C45.048 97.996 46.08 98.668 46.08 99.94V113.044C46.08 114.316 45.048 114.964 43.776 114.964ZM26.784 111.364C25.584 111.628 24.552 110.692 24.552 109.564C24.552 108.7 25.152 107.98 25.968 107.764C28.296 107.188 30 105.508 30 102.796V102.22H26.568C25.608 102.22 24.792 101.428 24.792 100.444C24.792 99.484 25.608 98.668 26.568 98.668H37.632C38.592 98.668 39.408 99.484 39.408 100.444C39.408 101.428 38.592 102.22 37.632 102.22H34.2V102.796C34.2 105.532 35.928 107.188 38.232 107.764C39.048 107.98 39.648 108.7 39.648 109.564C39.648 110.74 38.592 111.604 37.416 111.364C35.04 110.836 33.192 109.612 32.088 107.74C31.008 109.612 29.136 110.836 26.784 111.364ZM44.976 120.436H28.128C26.88 120.436 26.184 119.764 26.184 118.516V114.46C26.184 113.164 27.24 112.492 28.536 112.492C29.832 112.492 30.888 113.164 30.888 114.46V116.98H44.976C45.936 116.98 46.704 117.772 46.704 118.708C46.704 119.668 45.936 120.436 44.976 120.436ZM65.256 105.652H52.824C50.592 105.652 48.792 104.02 48.792 101.956C48.792 99.844 50.592 98.212 52.824 98.212H65.256C67.464 98.212 69.288 99.844 69.288 101.956C69.288 104.02 67.464 105.652 65.256 105.652ZM54.096 102.796H64.056C64.56 102.796 64.968 102.436 64.968 101.956C64.968 101.5 64.56 101.14 64.056 101.14H54.096C53.592 101.14 53.208 101.5 53.208 101.956C53.208 102.436 53.592 102.796 54.096 102.796ZM68.736 109.876H49.368C48.504 109.876 47.808 109.204 47.808 108.316C47.808 107.452 48.504 106.78 49.368 106.78H68.736C69.576 106.78 70.296 107.452 70.296 108.316C70.296 109.204 69.576 109.876 68.736 109.876ZM68.352 120.436H50.448C49.536 120.436 49.032 119.956 49.032 119.044V115.924C49.032 115.012 49.536 114.532 50.448 114.532H64.512V113.548H49.992C49.344 113.548 48.816 112.996 48.816 112.348C48.816 111.7 49.344 111.148 49.992 111.148H67.656C68.544 111.148 69.048 111.652 69.048 112.54V115.396C69.048 116.308 68.544 116.812 67.656 116.812H53.592V117.844H68.352C69.072 117.844 69.648 118.444 69.648 119.14C69.648 119.86 69.072 120.436 68.352 120.436ZM97.8433 97.996C99.0673 97.996 100.075 98.62 100.075 99.844V110.164C100.075 111.388 99.0673 111.988 97.8433 111.988C96.5953 111.988 95.5873 111.388 95.5873 110.164V99.844C95.5873 98.62 96.5953 97.996 97.8433 97.996ZM81.2113 110.596C80.9233 110.86 80.4673 110.98 80.0353 110.98C79.0753 110.98 78.3073 110.212 78.3073 109.276C78.3073 108.676 78.6193 108.22 79.0033 107.812C79.9633 106.78 80.7793 105.46 80.7793 103.228V102.1H80.1073C79.1953 102.1 78.5713 101.332 78.5713 100.396C78.5713 99.436 79.1953 98.668 80.1073 98.668H84.9313C85.6993 98.668 86.1553 99.436 86.1553 100.396C86.1553 101.332 85.6993 102.1 84.9313 102.1H84.4753V103.228C84.4753 105.628 85.4353 107.092 86.2993 107.908C87.1873 107.092 88.1473 105.628 88.1473 103.228V102.1H87.7153C86.9473 102.1 86.4913 101.332 86.4913 100.396C86.4913 99.436 86.9473 98.668 87.7153 98.668H92.5633C93.4753 98.668 94.0753 99.436 94.0753 100.396C94.0753 101.332 93.4753 102.1 92.5633 102.1H91.8673V103.228C91.8673 105.46 92.7313 106.78 93.6673 107.812C94.0513 108.244 94.3873 108.652 94.3873 109.276C94.3873 110.26 93.5953 111.052 92.6353 111.052C92.1793 111.052 91.7953 110.884 91.5073 110.644C90.7873 110.068 90.2353 109.276 89.7793 108.388C89.2993 109.348 88.6033 110.092 87.8833 110.668C86.9233 111.484 85.7233 111.484 84.7393 110.668C84.0193 110.092 83.3233 109.348 82.8193 108.388C82.4113 109.276 81.8593 110.044 81.2113 110.596ZM81.1633 112.66H98.1313C99.3793 112.66 100.075 113.356 100.075 114.604V118.732C100.075 120.028 99.0193 120.7 97.6993 120.7C96.3793 120.7 95.3233 120.028 95.3233 118.732V116.14H81.1633C80.2273 116.14 79.4353 115.372 79.4353 114.388C79.4353 113.452 80.2273 112.66 81.1633 112.66ZM121.123 97.996C122.371 97.996 123.403 98.836 123.403 100.06V118.612C123.403 119.836 122.371 120.7 121.123 120.7C119.851 120.7 118.843 119.86 118.843 118.612V110.572H115.003V114.148C115.003 117.652 112.195 120.004 108.667 120.004C105.163 120.004 102.355 117.652 102.355 114.148V104.428C102.355 100.948 105.163 98.572 108.667 98.572C112.195 98.572 115.003 100.948 115.003 104.428V106.804H118.843V100.06C118.843 98.836 119.851 97.996 121.123 97.996ZM110.875 114.388V104.188C110.875 103.06 109.963 102.1 108.715 102.1C107.443 102.1 106.555 103.06 106.555 104.188V114.388C106.555 115.564 107.443 116.452 108.715 116.452C109.963 116.452 110.875 115.564 110.875 114.388ZM144.595 120.7C143.323 120.7 142.315 119.86 142.315 118.612V109.492H139.267C138.211 109.492 137.395 108.628 137.395 107.596C137.395 106.588 138.211 105.724 139.267 105.724H142.315V100.06C142.315 98.836 143.323 97.996 144.595 97.996C145.867 97.996 146.875 98.836 146.875 100.06V118.612C146.875 119.836 145.867 120.7 144.595 120.7ZM127.267 119.332C126.091 119.332 125.107 118.396 125.107 117.196C125.107 116.5 125.467 115.876 125.995 115.468C128.539 113.644 130.507 110.956 130.507 104.98V100.564C130.507 99.316 131.539 98.524 132.787 98.524C134.011 98.524 135.019 99.316 135.019 100.564V104.98C135.019 110.956 136.987 113.644 139.531 115.468C140.059 115.876 140.443 116.5 140.443 117.196C140.443 118.396 139.459 119.38 138.259 119.38C137.731 119.38 137.251 119.188 136.891 118.876C135.211 117.532 133.675 115.804 132.763 113.788C131.851 115.78 130.339 117.508 128.659 118.852C128.275 119.164 127.771 119.332 127.267 119.332ZM20.256 140.436H3.768C2.616 140.436 1.992 139.836 1.992 138.684V135.084C1.992 133.932 2.616 133.332 3.768 133.332H20.256C21.384 133.332 22.008 133.932 22.008 135.084V138.684C22.008 139.836 21.384 140.436 20.256 140.436ZM17.616 136.14H6.408V137.628H17.616V136.14ZM21.696 144.588H14.184V146.028H20.616C21.504 146.028 22.008 146.508 22.008 147.42V150.396C22.008 151.308 21.504 151.812 20.616 151.812H6.552V152.844H21.312C22.032 152.844 22.608 153.444 22.608 154.14C22.608 154.86 22.032 155.436 21.312 155.436H3.408C2.496 155.436 1.992 154.956 1.992 154.044V150.876C1.992 149.964 2.496 149.46 3.408 149.46H17.448V148.5H3.024C2.328 148.5 1.776 147.948 1.776 147.276C1.776 146.58 2.328 146.028 3.024 146.028H9.792V144.588H2.328C1.464 144.588 0.768 143.892 0.768 143.028C0.768 142.164 1.464 141.468 2.328 141.468H21.696C22.536 141.468 23.256 142.164 23.256 143.028C23.256 143.892 22.536 144.588 21.696 144.588ZM43.848 132.996C45.096 132.996 46.128 133.836 46.128 135.06V153.612C46.128 154.836 45.096 155.7 43.848 155.7C42.576 155.7 41.568 154.86 41.568 153.612V145.572H37.728V149.148C37.728 152.652 34.92 155.004 31.392 155.004C27.888 155.004 25.08 152.652 25.08 149.148V139.428C25.08 135.948 27.888 133.572 31.392 133.572C34.92 133.572 37.728 135.948 37.728 139.428V141.804H41.568V135.06C41.568 133.836 42.576 132.996 43.848 132.996ZM33.6 149.388V139.188C33.6 138.06 32.688 137.1 31.44 137.1C30.168 137.1 29.28 138.06 29.28 139.188V149.388C29.28 150.564 30.168 151.452 31.44 151.452C32.688 151.452 33.6 150.564 33.6 149.388ZM67.296 146.436H50.808C49.656 146.436 49.032 145.836 49.032 144.684V135.204C49.032 133.932 50.064 133.284 51.336 133.284C52.608 133.284 53.616 133.932 53.616 135.204V136.476H64.488V135.18C64.488 133.932 65.496 133.284 66.768 133.284C68.04 133.284 69.048 133.932 69.048 135.18V144.684C69.048 145.836 68.424 146.436 67.296 146.436ZM53.616 139.764V142.98H64.488V139.764H53.616ZM68.424 155.004H49.68C48.672 155.004 47.808 154.188 47.808 153.132C47.808 152.1 48.672 151.26 49.68 151.26H56.736V149.196C56.736 147.924 57.768 147.252 59.04 147.252C60.312 147.252 61.344 147.9 61.344 149.172V151.26H68.424C69.432 151.26 70.296 152.1 70.296 153.132C70.296 154.188 69.432 155.004 68.424 155.004ZM90.12 155.7C88.872 155.7 87.84 154.86 87.84 153.612V135.06C87.84 133.836 88.872 132.996 90.12 132.996C91.392 132.996 92.4 133.836 92.4 135.06V141.564H93.528C94.608 141.564 95.16 142.452 95.16 143.508C95.16 144.612 94.608 145.5 93.528 145.5H92.4V153.612C92.4 154.86 91.392 155.7 90.12 155.7ZM73.632 154.428C72.48 154.428 71.568 153.492 71.568 152.34C71.568 151.596 72 151.02 72.576 150.564C74.784 148.86 76.848 145.884 76.848 139.74V137.892H73.824C72.792 137.892 71.904 137.028 71.904 135.972C71.904 134.916 72.792 134.076 73.824 134.076H84.24C85.272 134.076 86.136 134.916 86.136 135.972C86.136 137.028 85.272 137.892 84.24 137.892H81.192V139.74C81.192 145.884 83.256 148.86 85.464 150.564C86.04 151.02 86.496 151.572 86.496 152.34C86.496 153.492 85.56 154.452 84.408 154.452C83.952 154.452 83.544 154.332 83.208 154.068C81.432 152.892 79.728 150.804 79.008 148.572C78.288 150.804 76.584 152.868 74.832 154.068C74.496 154.308 74.064 154.428 73.632 154.428ZM95.88 147.468L95.712 142.548V135.108C95.712 133.836 96.648 132.948 97.896 132.948C99.144 132.948 100.08 133.836 100.08 135.108V142.548L99.936 147.468C99.888 148.74 99.048 149.508 97.92 149.508C96.768 149.508 95.928 148.74 95.88 147.468ZM98.448 155.316H97.344C96.504 155.316 95.88 154.692 95.88 153.852V152.772C95.88 151.932 96.504 151.308 97.344 151.308H98.448C99.288 151.308 99.912 151.932 99.912 152.772V153.852C99.912 154.692 99.288 155.316 98.448 155.316Z" fill="white"/>
<g clip-path="url(#clip0_338_9096)">
<path d="M255.352 94.7266C250.223 122.801 250.682 157.504 252.41 188.386" stroke="#FFE4A1" stroke-width="66.4069"/>
<path d="M274.127 106.256C275.333 100.791 280.069 86.0373 289.365 70.7485" stroke="#FFE4A1" stroke-width="24.2952"/>
<path d="M276.138 98.7751C277.343 93.3096 280.069 86.0373 289.365 70.7485" stroke="#FEBC2E" stroke-width="10.7979"/>
<path d="M233.763 96.5881C234.428 91.0308 237.698 75.885 245.455 59.7603" stroke="#FFE4A1" stroke-width="24.2952"/>
<path d="M257.512 95.2559C256.455 97.4603 254.999 100.052 252.917 105.946" stroke="#FEBC2E" stroke-width="2.69947"/>
<path d="M250.495 94.1743C249.438 96.3787 247.982 98.9706 245.9 104.865" stroke="#FEBC2E" stroke-width="2.69947"/>
<path d="M225.117 133.598C198.392 123.88 166.916 129.926 197.582 77.4487" stroke="#FFE4A1" stroke-width="15.117"/>
<ellipse cx="2.42952" cy="2.15957" rx="2.42952" ry="2.15957" transform="matrix(-1.31134e-07 -1 -1 1.31134e-07 237.521 111.754)" fill="#002B53"/>
<ellipse cx="2.42952" cy="2.15957" rx="2.42952" ry="2.15957" transform="matrix(-1.31134e-07 -1 -1 1.31134e-07 264.53 115.242)" fill="#002B53"/>
<ellipse cx="6.20878" cy="5.39893" rx="6.20878" ry="5.39893" transform="matrix(-1.31134e-07 -1 -1 1.31134e-07 273.168 127.66)" fill="#FEBC2E"/>
<ellipse cx="6.20878" cy="5.39893" rx="6.20878" ry="5.39893" transform="matrix(-1.31134e-07 -1 -1 1.31134e-07 233.214 124.959)" fill="#FEBC2E"/>
<path d="M234.576 89.1457C235.362 83.6042 237.527 76.1458 245.634 60.1943" stroke="#FEBC2E" stroke-width="10.7979"/>
<path d="M199.373 84.4963C200.542 82.3367 203.26 78.1255 205.851 74.2383" stroke="#FFE4A1" stroke-width="4.85904"/>
<path d="M197.583 77.4487C196.953 78.4385 195.531 80.904 194.883 82.8477" stroke="#FA8D26" stroke-width="2.15957"/>
<path d="M193.803 75.291C193.173 76.2808 191.751 78.7463 191.103 80.6899" stroke="#FA8D26" stroke-width="2.15957"/>
<path d="M237.515 118.663L257.003 120.321C258.071 120.411 258.756 121.507 258.348 122.498C253.609 133.995 249.985 131.814 245.632 131.814C238.886 131.814 236.818 125.313 235.799 120.586C235.572 119.533 236.443 118.572 237.515 118.663Z" fill="#FA8D26" stroke="#FA8D26" stroke-width="0.539894" stroke-linejoin="round"/>
<path d="M251.395 170.197C256.762 173.456 271.521 177.672 282.446 175.372" stroke="#FEBC2E" stroke-width="2.70245" stroke-linecap="square"/>
<path d="M253.122 151.223C258.488 154.481 270.947 160.422 281.871 158.123" stroke="#FEBC2E" stroke-width="2.70245" stroke-linecap="square"/>
<path d="M246.221 156.972C272.671 177.672 328.444 162.147 277.213 140.014" stroke="#FFE4A1" stroke-width="15.117"/>
<path d="M213.446 36.7744C216.13 37.3494 222.531 39.1894 226.671 41.9493" stroke="#C7B5FF" stroke-width="9.19983" stroke-linecap="square"/>
<path d="M301.994 118.508C304.312 117.039 310.171 113.871 315.059 112.942" stroke="#987DF9" stroke-width="9.19983" stroke-linecap="square"/>
<path d="M169.747 27.6099C172.065 26.1415 177.924 22.9727 182.812 22.0443" stroke="#704FE6" stroke-width="9.19983" stroke-linecap="square"/>
<path d="M176.639 154.802C178.983 156.229 184.42 160.076 187.419 164.046" stroke="#704FE6" stroke-width="9.19983" stroke-linecap="square"/>
<path d="M293.944 22.9097C296.263 21.4413 302.121 18.2725 307.009 17.3441" stroke="#C7B5FF" stroke-width="9.19983" stroke-linecap="square"/>
<path d="M316 69C318.522 70.0829 324.447 73.1257 327.975 76.6339" stroke="#704FE6" stroke-width="9.19983" stroke-linecap="square"/>
<path d="M266.218 29.8496C267.07 32.4581 268.699 38.9165 268.396 43.8828" stroke="#704FE6" stroke-width="9.19983" stroke-linecap="square"/>
<rect x="236" y="136" width="14" height="14" rx="3" fill="#4223B2"/>
<rect x="208" y="141" width="47" height="31" rx="4" fill="#502BD5"/>
<rect x="208" y="141" width="43" height="27" rx="4" fill="#8463FD"/>
<circle cx="225" cy="155" r="8.5" fill="#E2DAFC" stroke="#4223B2" stroke-width="3"/>
</g>
<defs>
<clipPath id="clip0_338_9096">
<rect width="181" height="183" fill="white" transform="matrix(-1 0 0 1 342 0)"/>
</clipPath>
</defs>
</svg>
