<svg width="342" height="87" viewBox="0 0 342 87" fill="none" xmlns="http://www.w3.org/2000/svg">
<rect width="342" height="87" rx="21" fill="#704FE6"/>
<path d="M99.88 45.08H86.14C85.18 45.08 84.66 44.58 84.66 43.62V36.1C84.66 35.14 85.18 34.64 86.14 34.64H99.88C100.82 34.64 101.34 35.14 101.34 36.1V43.62C101.34 44.58 100.82 45.08 99.88 45.08ZM88.4 37.6V42.12H97.62V37.6H88.4ZM100.82 52.42H85.2C84.36 52.42 83.64 51.74 83.64 50.86C83.64 50 84.36 49.3 85.2 49.3H91.06V47.36C91.06 46.3 91.92 45.76 93 45.76C94.06 45.76 94.92 46.3 94.92 47.36V49.3H100.82C101.66 49.3 102.38 50 102.38 50.86C102.38 51.74 101.66 52.42 100.82 52.42ZM118.9 53C117.86 53 117 52.3 117 51.26V35.8C117 34.78 117.86 34.08 118.9 34.08C119.96 34.08 120.8 34.78 120.8 35.8V38.44H121.72C122.54 38.44 123.08 39.1 123.08 39.92C123.08 40.76 122.54 41.42 121.72 41.42H120.8V44.8H121.72C122.54 44.8 123.08 45.46 123.08 46.28C123.08 47.12 122.54 47.78 121.72 47.78H120.8V51.26C120.8 52.3 119.96 53 118.9 53ZM109.18 52.42C106.24 52.42 103.9 50.46 103.9 47.54V39.44C103.9 36.54 106.24 34.56 109.18 34.56C112.12 34.56 114.46 36.54 114.46 39.44V47.54C114.46 50.46 112.12 52.42 109.18 52.42ZM109.2 49.46C110.26 49.46 111 48.72 111 47.74V39.24C111 38.3 110.26 37.5 109.2 37.5C108.16 37.5 107.42 38.3 107.42 39.24V47.74C107.42 48.72 108.16 49.46 109.2 49.46ZM128.56 55.8C127.44 55.8 126.82 55.2 126.82 54.28V52.76C124.66 52.38 123.14 51.16 123.14 48.82V38.24C123.14 35.28 125.54 34.14 128.54 34.14C131.54 34.14 133.96 35.28 133.96 38.24V48.82C133.96 51.16 132.44 52.38 130.28 52.76V54.28C130.28 55 129.68 55.8 128.56 55.8ZM126.7 38.74V48.32C126.7 49.28 127.5 49.82 128.54 49.82C129.6 49.82 130.4 49.28 130.4 48.32V38.74C130.4 37.78 129.6 37.24 128.54 37.24C127.5 37.24 126.7 37.78 126.7 38.74ZM147.735 34.08C148.595 34.08 149.295 34.62 149.295 35.48V51.6C149.295 52.46 148.595 53 147.735 53C146.875 53 146.175 52.46 146.175 51.6V44.54H144.315V48.46C144.315 50.78 142.375 52.42 140.055 52.42C137.735 52.42 135.795 50.78 135.795 48.46V38.52C135.795 36.2 137.735 34.56 140.055 34.56C142.375 34.56 144.315 36.2 144.315 38.52V41.42H146.175V35.48C146.175 34.62 146.875 34.08 147.735 34.08ZM151.955 34.08C152.835 34.08 153.555 34.64 153.555 35.5V51.56C153.555 52.44 152.835 53 151.955 53C151.075 53 150.355 52.44 150.355 51.56V35.5C150.355 34.64 151.075 34.08 151.955 34.08ZM141.275 48.36V38.62C141.275 37.96 140.715 37.48 140.115 37.48C139.515 37.48 138.935 37.96 138.935 38.62V48.36C138.935 49.04 139.515 49.5 140.115 49.5C140.715 49.5 141.275 49.04 141.275 48.36ZM167.295 34.08C168.155 34.08 168.855 34.62 168.855 35.48V51.6C168.855 52.46 168.155 53 167.295 53C166.415 53 165.735 52.46 165.735 51.6V44.54H163.195C162.075 48.36 159.955 50.52 157.195 51.66C157.015 51.74 156.795 51.78 156.575 51.78C155.715 51.78 154.975 51.08 154.975 50.18C154.975 49.54 155.395 48.96 155.935 48.72C159.955 46.92 160.815 42.34 160.815 38.06H156.655C155.815 38.06 155.095 37.38 155.095 36.5C155.095 35.64 155.815 34.94 156.655 34.94H162.595C163.575 34.94 164.095 35.48 164.095 36.44V37.22C164.095 38.76 164.015 40.16 163.835 41.42H165.735V35.48C165.735 34.62 166.415 34.08 167.295 34.08ZM171.555 34.08C172.435 34.08 173.155 34.64 173.155 35.5V51.56C173.155 52.44 172.435 53 171.555 53C170.675 53 169.955 52.44 169.955 51.56V35.5C169.955 34.64 170.675 34.08 171.555 34.08ZM196.171 40.28H182.431C181.471 40.28 180.951 39.78 180.951 38.82V35.82C180.951 34.86 181.471 34.36 182.431 34.36H196.171C197.111 34.36 197.631 34.86 197.631 35.82V38.82C197.631 39.78 197.111 40.28 196.171 40.28ZM193.971 36.7H184.631V37.94H193.971V36.7ZM197.371 43.74H191.111V44.94H196.471C197.211 44.94 197.631 45.34 197.631 46.1V48.58C197.631 49.34 197.211 49.76 196.471 49.76H184.751V50.62H197.051C197.651 50.62 198.131 51.12 198.131 51.7C198.131 52.3 197.651 52.78 197.051 52.78H182.131C181.371 52.78 180.951 52.38 180.951 51.62V48.98C180.951 48.22 181.371 47.8 182.131 47.8H193.831V47H181.811C181.231 47 180.771 46.54 180.771 45.98C180.771 45.4 181.231 44.94 181.811 44.94H187.451V43.74H181.231C180.511 43.74 179.931 43.16 179.931 42.44C179.931 41.72 180.511 41.14 181.231 41.14H197.371C198.071 41.14 198.671 41.72 198.671 42.44C198.671 43.16 198.071 43.74 197.371 43.74ZM215.831 34.08C216.871 34.08 217.731 34.78 217.731 35.8V51.26C217.731 52.28 216.871 53 215.831 53C214.771 53 213.931 52.3 213.931 51.26V44.56H210.731V47.54C210.731 50.46 208.391 52.42 205.451 52.42C202.531 52.42 200.191 50.46 200.191 47.54V39.44C200.191 36.54 202.531 34.56 205.451 34.56C208.391 34.56 210.731 36.54 210.731 39.44V41.42H213.931V35.8C213.931 34.78 214.771 34.08 215.831 34.08ZM207.291 47.74V39.24C207.291 38.3 206.531 37.5 205.491 37.5C204.431 37.5 203.691 38.3 203.691 39.24V47.74C203.691 48.72 204.431 49.46 205.491 49.46C206.531 49.46 207.291 48.72 207.291 47.74ZM235.371 45.28H221.631C220.671 45.28 220.151 44.78 220.151 43.82V35.92C220.151 34.86 221.011 34.32 222.071 34.32C223.131 34.32 223.971 34.86 223.971 35.92V36.98H233.031V35.9C233.031 34.86 233.871 34.32 234.931 34.32C235.991 34.32 236.831 34.86 236.831 35.9V43.82C236.831 44.78 236.311 45.28 235.371 45.28ZM223.971 39.72V42.4H233.031V39.72H223.971ZM236.311 52.42H220.691C219.851 52.42 219.131 51.74 219.131 50.86C219.131 50 219.851 49.3 220.691 49.3H226.571V47.58C226.571 46.52 227.431 45.96 228.491 45.96C229.551 45.96 230.411 46.5 230.411 47.56V49.3H236.311C237.151 49.3 237.871 50 237.871 50.86C237.871 51.74 237.151 52.42 236.311 52.42ZM254.971 53C253.871 53 253.011 52.28 253.011 51.22V35.86C253.011 34.78 253.871 34.08 254.971 34.08C256.031 34.08 256.891 34.78 256.891 35.86V51.22C256.891 52.28 256.031 53 254.971 53ZM241.091 51.84C239.951 52.14 238.971 51.32 238.971 50.26C238.971 49.54 239.471 48.9 240.111 48.68C244.571 47.26 247.211 43.86 247.211 38.06H240.651C239.811 38.06 239.091 37.38 239.091 36.5C239.091 35.64 239.811 34.94 240.651 34.94H249.331C250.311 34.94 250.831 35.48 250.831 36.44V37.56C250.831 45.5 246.991 50.14 241.091 51.84Z" fill="white"/>
</svg>
