<svg width="390" height="270" viewBox="0 0 390 270" fill="none" xmlns="http://www.w3.org/2000/svg">
<rect x="24" y="17.5" width="88" height="27" rx="13.5" fill="#987DF9"/>
<path d="M44.2578 26.6641C45.6992 26.6641 46.7773 27.8477 46.9883 29.7695H48.8398V25.9141H50.3164V36.6016H48.8398V30.9648H47.0059C46.8477 33.0156 45.7461 34.2695 44.2578 34.2695C42.6406 34.2695 41.4805 32.8047 41.4922 30.4609C41.4805 28.1348 42.6406 26.6641 44.2578 26.6641ZM42.9219 30.4609C42.916 32.0488 43.4609 32.916 44.2578 32.9102C45.0605 32.916 45.5938 32.0488 45.5938 30.4609C45.5938 28.8789 45.0605 28.0117 44.2578 28.0117C43.4609 28.0117 42.916 28.8789 42.9219 30.4609ZM60.3655 25.9258V33.7773H58.8772V25.9258H60.3655ZM51.9983 27.8125V26.6172H56.9436V30.0156H53.4748V31.1992C55.385 31.1934 56.592 31.1348 57.9748 30.8711L58.1389 32.0664C56.5862 32.3594 55.2034 32.418 52.9475 32.418H52.01V28.9141H55.4553V27.8125H51.9983ZM53.1936 36.3906V33.1211H54.6819V35.1953H60.6467V36.3906H53.1936ZM70.5083 25.9141V36.6016H68.9966V25.9141H70.5083ZM61.895 30.4609C61.8891 28.1348 63.0786 26.6641 64.7192 26.6641C66.3247 26.6641 67.52 28.1348 67.52 30.4609C67.52 32.8047 66.3247 34.2695 64.7192 34.2695C63.0786 34.2695 61.8891 32.8047 61.895 30.4609ZM63.3364 30.4609C63.3305 32.0488 63.8872 32.916 64.7192 32.9102C65.5278 32.916 66.0727 32.0488 66.0786 30.4609C66.0727 28.8789 65.5278 28.0117 64.7192 28.0117C63.8872 28.0117 63.3305 28.8789 63.3364 30.4609ZM79.2392 27.0977V28.2812H77.5986C77.6045 29.3477 78.2138 30.3672 79.5556 30.8359L78.8877 31.9492C77.9384 31.6152 77.2998 31 76.9189 30.2441C76.5439 31.082 75.8994 31.7676 74.9267 32.125L74.2236 31.0469C75.5654 30.5312 76.1689 29.4238 76.1806 28.2812H74.5283V27.0977H76.1806V26.043H77.5986V27.0977H79.2392ZM75.5244 35.3711C77.8037 35.084 78.9463 33.9238 78.9463 32.8047V32.6289H80.4463V32.8047C80.4404 33.9238 81.6005 35.084 83.8681 35.3711L83.3525 36.5312C81.6064 36.2969 80.3584 35.5703 79.7021 34.5742C79.04 35.5703 77.7861 36.2969 76.0517 36.5312L75.5244 35.3711ZM79.7197 32.1953V26.0898H81.1259V28.4688H81.9814V25.9258H83.3994V33.1328H81.9814V29.6875H81.1259V32.1953H79.7197ZM87.0852 26.2188V27.1445H91.3625V26.2188H92.8508V30.2383H89.968V31.1055H94.093V32.2891H84.3664V31.1055H88.4914V30.2383H85.6086V26.2188H87.0852ZM85.0227 35.3828C87.343 35.1367 88.4562 34.0762 88.468 33.0273V32.8281H89.9797V33.0273C89.9738 34.0762 91.0871 35.1367 93.4367 35.3828L92.9211 36.5312C91.1516 36.3027 89.8859 35.6406 89.2238 34.709C88.5559 35.6406 87.302 36.3027 85.55 36.5312L85.0227 35.3828ZM87.0852 29.0781H91.3625V28.2578H87.0852V29.0781Z" fill="white"/>
<path d="M36.054 72.522H26.268C25.68 72.522 25.358 72.2 25.358 71.612V68.63C25.358 68.112 25.792 67.804 26.324 67.804C26.87 67.804 27.304 68.112 27.304 68.63V71.01H36.054C36.474 71.01 36.81 71.346 36.81 71.766C36.81 72.172 36.474 72.522 36.054 72.522ZM31.042 78.038C30.51 78.038 30.09 77.744 30.09 77.226V75.336H25.302C24.868 75.336 24.518 74.986 24.518 74.552C24.518 74.118 24.868 73.768 25.302 73.768H36.698C37.132 73.768 37.482 74.118 37.482 74.552C37.482 74.986 37.132 75.336 36.698 75.336H32.008V77.226C32.008 77.744 31.588 78.038 31.042 78.038ZM36.194 80.754H26.268C25.68 80.754 25.358 80.432 25.358 79.844V77.156C25.358 76.624 25.792 76.316 26.338 76.316C26.87 76.316 27.304 76.624 27.304 77.156V79.242H36.194C36.614 79.242 36.95 79.578 36.95 79.998C36.95 80.418 36.614 80.754 36.194 80.754ZM49.284 74.916C48.738 74.916 48.304 74.608 48.304 74.062V68.644C48.304 68.112 48.738 67.804 49.284 67.804C49.844 67.804 50.264 68.112 50.264 68.644V70.282H51.258C51.692 70.282 52.014 70.646 52.014 71.08C52.014 71.528 51.692 71.892 51.258 71.892H50.264V74.062C50.264 74.608 49.844 74.916 49.284 74.916ZM42.298 74.636C40.31 74.636 38.672 73.642 38.672 71.682V70.87C38.672 68.91 40.31 67.902 42.298 67.902C44.3 67.902 45.924 68.91 45.924 70.87V71.682C45.924 73.642 44.3 74.636 42.298 74.636ZM42.326 73.208C43.32 73.208 44.076 72.704 44.076 71.738V70.814C44.076 69.848 43.32 69.33 42.326 69.33C41.304 69.33 40.548 69.848 40.548 70.814V71.738C40.548 72.704 41.304 73.208 42.326 73.208ZM49.788 76.834H39.862C39.47 76.834 39.148 76.512 39.148 76.12C39.148 75.728 39.47 75.406 39.862 75.406H49.788C50.166 75.406 50.502 75.728 50.502 76.12C50.502 76.512 50.166 76.834 49.788 76.834ZM49.928 80.754H39.722C39.33 80.754 39.008 80.432 39.008 80.04C39.008 79.648 39.33 79.326 39.722 79.326H41.374L41.206 77.926C41.15 77.436 41.556 77.128 42.172 77.128C42.732 77.128 43.082 77.366 43.138 77.8L43.32 79.326H46.316L46.498 77.8C46.54 77.366 46.904 77.128 47.464 77.128C48.066 77.128 48.486 77.436 48.43 77.926L48.262 79.326H49.928C50.306 79.326 50.642 79.648 50.642 80.04C50.642 80.432 50.306 80.754 49.928 80.754ZM60.876 67.804C61.366 67.804 61.758 68.112 61.758 68.588V80.082C61.758 80.558 61.366 80.866 60.876 80.866C60.4 80.866 60.008 80.558 60.008 80.082V74.734H58.286V77.646C58.286 79.298 56.998 80.432 55.374 80.432C53.736 80.432 52.448 79.298 52.448 77.646V70.856C52.448 69.204 53.736 68.07 55.374 68.07C56.998 68.07 58.286 69.204 58.286 70.856V73.11H60.008V68.588C60.008 68.112 60.4 67.804 60.876 67.804ZM63.718 67.804C64.208 67.804 64.6 68.126 64.6 68.602V80.068C64.6 80.544 64.208 80.866 63.718 80.866C63.228 80.866 62.836 80.544 62.836 80.068V68.602C62.836 68.126 63.228 67.804 63.718 67.804ZM56.564 77.618V70.884C56.564 70.142 56.046 69.624 55.388 69.624C54.73 69.624 54.212 70.142 54.212 70.884V77.618C54.212 78.374 54.73 78.878 55.388 78.878C56.046 78.878 56.564 78.374 56.564 77.618ZM81.8033 74.37H77.0293V75.952H79.6053C80.9913 75.952 81.9293 77.072 81.9293 78.36C81.9293 79.69 80.9913 80.81 79.6053 80.81H72.5493C71.1493 80.81 70.2253 79.69 70.2253 78.36C70.2253 77.072 71.1493 75.952 72.5493 75.952H75.1113V74.37H70.3653C69.9453 74.37 69.5953 74.02 69.5953 73.6C69.5953 73.18 69.9453 72.844 70.3653 72.844H78.8493C79.3253 71.668 79.5773 70.576 79.7033 69.554H71.0793C70.6593 69.554 70.3233 69.218 70.3233 68.784C70.3233 68.378 70.6593 68.028 71.0793 68.028H80.8233C81.4393 68.028 81.7333 68.392 81.6773 68.994C81.5233 70.282 81.2573 71.556 80.7953 72.844H81.8033C82.2233 72.844 82.5593 73.18 82.5593 73.6C82.5593 74.02 82.2233 74.37 81.8033 74.37ZM80.0393 78.346C80.0393 77.814 79.6613 77.422 79.1433 77.422H72.9833C72.4793 77.422 72.1153 77.814 72.1153 78.346C72.1153 78.892 72.4793 79.298 72.9833 79.298H79.1433C79.6613 79.298 80.0393 78.892 80.0393 78.346ZM94.5293 72.718H95.5233C95.9293 72.718 96.2793 73.068 96.2793 73.502C96.2793 73.922 95.9293 74.272 95.5233 74.272H84.0853C83.6653 74.272 83.3153 73.922 83.3153 73.502C83.3153 73.068 83.6653 72.718 84.0853 72.718H92.5833C93.0313 71.598 93.2833 70.52 93.3813 69.54H84.7993C84.3793 69.54 84.0433 69.204 84.0433 68.784C84.0433 68.364 84.3793 68.028 84.7993 68.028H94.5293C95.1453 68.028 95.4253 68.392 95.3693 69.008C95.2573 70.24 94.9773 71.486 94.5293 72.718ZM85.0233 75.784H94.5713C95.1313 75.784 95.4393 76.092 95.4393 76.652V80.082C95.4393 80.614 95.0193 80.866 94.4733 80.866C94.0393 80.866 93.6893 80.698 93.5633 80.348L85.0373 80.726C84.4773 80.754 84.1553 80.432 84.1553 79.872V76.652C84.1553 76.092 84.4633 75.784 85.0233 75.784ZM93.5213 77.226H86.0733V79.214L93.5213 78.906V77.226ZM104.959 70.366H97.9033C97.5113 70.366 97.1753 70.044 97.1753 69.638C97.1753 69.232 97.5113 68.91 97.9033 68.91H100.423V68.168C100.423 67.706 100.871 67.44 101.431 67.44C101.991 67.44 102.439 67.706 102.439 68.168V68.91H104.959C105.351 68.91 105.687 69.232 105.687 69.638C105.687 70.044 105.351 70.366 104.959 70.366ZM108.081 77.52C107.535 77.52 107.101 77.212 107.101 76.68V68.644C107.101 68.112 107.535 67.804 108.081 67.804C108.641 67.804 109.061 68.112 109.061 68.644V71.444H110.027C110.489 71.444 110.811 71.808 110.811 72.256C110.811 72.704 110.489 73.068 110.027 73.068H109.061V76.68C109.061 77.212 108.641 77.52 108.081 77.52ZM97.5253 73.432C97.5253 72.004 98.5613 71.024 99.7653 71.024H103.111C104.315 71.024 105.337 72.004 105.337 73.432C105.337 74.86 104.315 75.854 103.111 75.854H99.7653C98.5613 75.854 97.5253 74.86 97.5253 73.432ZM100.367 74.412H102.523C103.195 74.412 103.573 73.964 103.573 73.432C103.573 72.886 103.195 72.452 102.523 72.452H100.367C99.6953 72.452 99.3173 72.886 99.3173 73.432C99.3173 73.964 99.6953 74.412 100.367 74.412ZM108.669 80.754H99.0933C98.5053 80.754 98.1693 80.432 98.1693 79.844V77.408C98.1693 76.876 98.6173 76.568 99.1633 76.568C99.7093 76.568 100.143 76.876 100.143 77.408V79.214H108.669C109.103 79.214 109.453 79.564 109.453 79.984C109.453 80.404 109.103 80.754 108.669 80.754ZM123.507 67.804C123.997 67.804 124.389 68.112 124.389 68.588V80.082C124.389 80.558 123.997 80.866 123.507 80.866C123.017 80.866 122.639 80.558 122.639 80.082V74.734H120.427C119.629 77.576 118.103 79.2 116.059 80.012C115.975 80.054 115.863 80.068 115.751 80.068C115.303 80.068 114.925 79.704 114.925 79.242C114.925 78.906 115.149 78.598 115.429 78.472C118.369 77.24 119.223 74.006 119.223 70.058H115.807C115.373 70.058 114.995 69.708 114.995 69.246C114.995 68.812 115.373 68.434 115.807 68.434H120.077C120.693 68.434 121.015 68.77 121.015 69.372V69.652C121.015 70.94 120.931 72.088 120.777 73.11H122.639V68.588C122.639 68.112 123.017 67.804 123.507 67.804ZM126.433 67.804C126.923 67.804 127.315 68.126 127.315 68.602V80.068C127.315 80.544 126.923 80.866 126.433 80.866C125.943 80.866 125.551 80.544 125.551 80.068V68.602C125.551 68.126 125.943 67.804 126.433 67.804ZM143.818 75.056C143.258 75.056 142.824 74.748 142.824 74.216V68.658C142.824 68.126 143.258 67.804 143.818 67.804C144.364 67.804 144.812 68.126 144.812 68.658V74.216C144.812 74.748 144.364 75.056 143.818 75.056ZM136.622 74.58C134.508 74.58 132.8 73.586 132.8 71.626V70.87C132.8 68.91 134.508 67.902 136.622 67.902C138.708 67.902 140.416 68.91 140.416 70.87V71.626C140.416 73.586 138.708 74.58 136.622 74.58ZM136.622 73.152C137.672 73.152 138.484 72.648 138.484 71.696V70.814C138.484 69.862 137.672 69.33 136.622 69.33C135.544 69.33 134.746 69.862 134.746 70.814V71.696C134.746 72.648 135.544 73.152 136.622 73.152ZM138.54 80.768C137.462 80.362 136.636 79.648 136.286 78.864C135.922 79.746 135.026 80.46 133.794 80.768C133.304 80.894 132.814 80.516 132.814 79.998C132.814 79.634 133.038 79.34 133.374 79.242C134.704 78.864 135.348 77.884 135.348 76.82V76.358C135.348 75.896 135.768 75.616 136.272 75.616C136.79 75.616 137.196 75.896 137.196 76.358V76.82C137.196 78.01 138.148 78.99 139.198 79.368C140.262 78.99 141.214 77.968 141.214 76.736V76.218C141.214 75.756 141.62 75.476 142.138 75.476C142.642 75.476 143.048 75.756 143.048 76.218V76.736C143.048 77.828 143.692 78.864 145.008 79.242C145.316 79.34 145.568 79.634 145.568 79.998C145.568 80.516 145.064 80.894 144.56 80.754C143.384 80.46 142.544 79.718 142.18 78.836C141.816 79.662 140.976 80.376 139.87 80.782C139.394 80.95 139.002 80.95 138.54 80.768ZM157.538 67.804C158.084 67.804 158.518 68.168 158.518 68.686V79.97C158.518 80.502 158.084 80.866 157.538 80.866C156.992 80.866 156.558 80.502 156.558 79.97V74.748H153.744V77.086C153.744 79.088 152.176 80.432 150.132 80.432C148.088 80.432 146.52 79.088 146.52 77.086V71.416C146.52 69.414 148.088 68.07 150.132 68.07C152.176 68.07 153.744 69.414 153.744 71.416V73.124H156.558V68.686C156.558 68.168 156.992 67.804 157.538 67.804ZM151.896 77.184V71.304C151.896 70.338 151.168 69.638 150.146 69.638C149.11 69.638 148.396 70.338 148.396 71.304V77.184C148.396 78.192 149.11 78.864 150.146 78.864C151.168 78.864 151.896 78.192 151.896 77.184ZM165.042 71.332V70.8C165.042 69.89 164.468 69.428 163.432 69.428C162.396 69.428 161.794 69.932 161.794 70.814V71.066C161.794 71.542 161.416 71.892 160.842 71.892C160.268 71.892 159.89 71.542 159.89 71.066V70.534C159.89 68.602 161.374 67.762 163.432 67.762C165.448 67.762 166.96 68.602 166.96 70.562V71.374C166.96 73.362 164.314 73.558 164.286 75.462L164.272 76.47C164.258 77.03 163.88 77.324 163.376 77.324C162.872 77.324 162.494 77.03 162.494 76.456V75.392C162.494 73.194 165.042 72.62 165.042 71.332ZM163.614 80.572H163.166C162.746 80.572 162.438 80.278 162.438 79.858V79.41C162.438 78.99 162.746 78.682 163.166 78.682H163.614C164.034 78.682 164.328 78.99 164.328 79.41V79.858C164.328 80.278 164.034 80.572 163.614 80.572Z" fill="white"/>
<path d="M43.56 120.7C42.312 120.7 41.28 119.86 41.28 118.612V100.06C41.28 98.836 42.312 97.996 43.56 97.996C44.832 97.996 45.84 98.836 45.84 100.06V106.564H46.968C48.048 106.564 48.6 107.452 48.6 108.508C48.6 109.612 48.048 110.5 46.968 110.5H45.84V118.612C45.84 119.86 44.832 120.7 43.56 120.7ZM27.144 119.332C25.968 119.332 25.008 118.396 25.008 117.196C25.008 116.5 25.344 115.876 25.872 115.468C28.344 113.692 30.216 110.956 30.216 104.98V100.564C30.216 99.316 31.224 98.524 32.472 98.524C33.72 98.524 34.728 99.316 34.728 100.564V104.98C34.728 110.956 36.6 113.692 39.048 115.468C39.576 115.876 39.96 116.5 39.96 117.196C39.96 118.396 38.976 119.38 37.776 119.38C37.248 119.38 36.768 119.188 36.408 118.876C34.752 117.58 33.336 115.804 32.472 113.788C31.608 115.78 30.168 117.556 28.536 118.852C28.176 119.164 27.672 119.332 27.144 119.332ZM67.776 114.964C66.48 114.964 65.448 114.316 65.448 113.044V99.94C65.448 98.668 66.48 97.996 67.776 97.996C69.048 97.996 70.08 98.668 70.08 99.94V113.044C70.08 114.316 69.048 114.964 67.776 114.964ZM50.784 111.364C49.584 111.628 48.552 110.692 48.552 109.564C48.552 108.7 49.152 107.98 49.968 107.764C52.296 107.188 54 105.508 54 102.796V102.22H50.568C49.608 102.22 48.792 101.428 48.792 100.444C48.792 99.484 49.608 98.668 50.568 98.668H61.632C62.592 98.668 63.408 99.484 63.408 100.444C63.408 101.428 62.592 102.22 61.632 102.22H58.2V102.796C58.2 105.532 59.928 107.188 62.232 107.764C63.048 107.98 63.648 108.7 63.648 109.564C63.648 110.74 62.592 111.604 61.416 111.364C59.04 110.836 57.192 109.612 56.088 107.74C55.008 109.612 53.136 110.836 50.784 111.364ZM68.976 120.436H52.128C50.88 120.436 50.184 119.764 50.184 118.516V114.46C50.184 113.164 51.24 112.492 52.536 112.492C53.832 112.492 54.888 113.164 54.888 114.46V116.98H68.976C69.936 116.98 70.704 117.772 70.704 118.708C70.704 119.668 69.936 120.436 68.976 120.436ZM89.256 105.652H76.824C74.592 105.652 72.792 104.02 72.792 101.956C72.792 99.844 74.592 98.212 76.824 98.212H89.256C91.464 98.212 93.288 99.844 93.288 101.956C93.288 104.02 91.464 105.652 89.256 105.652ZM78.096 102.796H88.056C88.56 102.796 88.968 102.436 88.968 101.956C88.968 101.5 88.56 101.14 88.056 101.14H78.096C77.592 101.14 77.208 101.5 77.208 101.956C77.208 102.436 77.592 102.796 78.096 102.796ZM92.736 109.876H73.368C72.504 109.876 71.808 109.204 71.808 108.316C71.808 107.452 72.504 106.78 73.368 106.78H92.736C93.576 106.78 94.296 107.452 94.296 108.316C94.296 109.204 93.576 109.876 92.736 109.876ZM92.352 120.436H74.448C73.536 120.436 73.032 119.956 73.032 119.044V115.924C73.032 115.012 73.536 114.532 74.448 114.532H88.512V113.548H73.992C73.344 113.548 72.816 112.996 72.816 112.348C72.816 111.7 73.344 111.148 73.992 111.148H91.656C92.544 111.148 93.048 111.652 93.048 112.54V115.396C93.048 116.308 92.544 116.812 91.656 116.812H77.592V117.844H92.352C93.072 117.844 93.648 118.444 93.648 119.14C93.648 119.86 93.072 120.436 92.352 120.436ZM121.843 97.996C123.067 97.996 124.075 98.62 124.075 99.844V110.164C124.075 111.388 123.067 111.988 121.843 111.988C120.595 111.988 119.587 111.388 119.587 110.164V99.844C119.587 98.62 120.595 97.996 121.843 97.996ZM105.211 110.596C104.923 110.86 104.467 110.98 104.035 110.98C103.075 110.98 102.307 110.212 102.307 109.276C102.307 108.676 102.619 108.22 103.003 107.812C103.963 106.78 104.779 105.46 104.779 103.228V102.1H104.107C103.195 102.1 102.571 101.332 102.571 100.396C102.571 99.436 103.195 98.668 104.107 98.668H108.931C109.699 98.668 110.155 99.436 110.155 100.396C110.155 101.332 109.699 102.1 108.931 102.1H108.475V103.228C108.475 105.628 109.435 107.092 110.299 107.908C111.187 107.092 112.147 105.628 112.147 103.228V102.1H111.715C110.947 102.1 110.491 101.332 110.491 100.396C110.491 99.436 110.947 98.668 111.715 98.668H116.563C117.475 98.668 118.075 99.436 118.075 100.396C118.075 101.332 117.475 102.1 116.563 102.1H115.867V103.228C115.867 105.46 116.731 106.78 117.667 107.812C118.051 108.244 118.387 108.652 118.387 109.276C118.387 110.26 117.595 111.052 116.635 111.052C116.179 111.052 115.795 110.884 115.507 110.644C114.787 110.068 114.235 109.276 113.779 108.388C113.299 109.348 112.603 110.092 111.883 110.668C110.923 111.484 109.723 111.484 108.739 110.668C108.019 110.092 107.323 109.348 106.819 108.388C106.411 109.276 105.859 110.044 105.211 110.596ZM105.163 112.66H122.131C123.379 112.66 124.075 113.356 124.075 114.604V118.732C124.075 120.028 123.019 120.7 121.699 120.7C120.379 120.7 119.323 120.028 119.323 118.732V116.14H105.163C104.227 116.14 103.435 115.372 103.435 114.388C103.435 113.452 104.227 112.66 105.163 112.66ZM145.123 97.996C146.371 97.996 147.403 98.836 147.403 100.06V118.612C147.403 119.836 146.371 120.7 145.123 120.7C143.851 120.7 142.843 119.86 142.843 118.612V110.572H139.003V114.148C139.003 117.652 136.195 120.004 132.667 120.004C129.163 120.004 126.355 117.652 126.355 114.148V104.428C126.355 100.948 129.163 98.572 132.667 98.572C136.195 98.572 139.003 100.948 139.003 104.428V106.804H142.843V100.06C142.843 98.836 143.851 97.996 145.123 97.996ZM134.875 114.388V104.188C134.875 103.06 133.963 102.1 132.715 102.1C131.443 102.1 130.555 103.06 130.555 104.188V114.388C130.555 115.564 131.443 116.452 132.715 116.452C133.963 116.452 134.875 115.564 134.875 114.388ZM168.595 120.7C167.323 120.7 166.315 119.86 166.315 118.612V109.492H163.267C162.211 109.492 161.395 108.628 161.395 107.596C161.395 106.588 162.211 105.724 163.267 105.724H166.315V100.06C166.315 98.836 167.323 97.996 168.595 97.996C169.867 97.996 170.875 98.836 170.875 100.06V118.612C170.875 119.836 169.867 120.7 168.595 120.7ZM151.267 119.332C150.091 119.332 149.107 118.396 149.107 117.196C149.107 116.5 149.467 115.876 149.995 115.468C152.539 113.644 154.507 110.956 154.507 104.98V100.564C154.507 99.316 155.539 98.524 156.787 98.524C158.011 98.524 159.019 99.316 159.019 100.564V104.98C159.019 110.956 160.987 113.644 163.531 115.468C164.059 115.876 164.443 116.5 164.443 117.196C164.443 118.396 163.459 119.38 162.259 119.38C161.731 119.38 161.251 119.188 160.891 118.876C159.211 117.532 157.675 115.804 156.763 113.788C155.851 115.78 154.339 117.508 152.659 118.852C152.275 119.164 151.771 119.332 151.267 119.332ZM44.256 140.436H27.768C26.616 140.436 25.992 139.836 25.992 138.684V135.084C25.992 133.932 26.616 133.332 27.768 133.332H44.256C45.384 133.332 46.008 133.932 46.008 135.084V138.684C46.008 139.836 45.384 140.436 44.256 140.436ZM41.616 136.14H30.408V137.628H41.616V136.14ZM45.696 144.588H38.184V146.028H44.616C45.504 146.028 46.008 146.508 46.008 147.42V150.396C46.008 151.308 45.504 151.812 44.616 151.812H30.552V152.844H45.312C46.032 152.844 46.608 153.444 46.608 154.14C46.608 154.86 46.032 155.436 45.312 155.436H27.408C26.496 155.436 25.992 154.956 25.992 154.044V150.876C25.992 149.964 26.496 149.46 27.408 149.46H41.448V148.5H27.024C26.328 148.5 25.776 147.948 25.776 147.276C25.776 146.58 26.328 146.028 27.024 146.028H33.792V144.588H26.328C25.464 144.588 24.768 143.892 24.768 143.028C24.768 142.164 25.464 141.468 26.328 141.468H45.696C46.536 141.468 47.256 142.164 47.256 143.028C47.256 143.892 46.536 144.588 45.696 144.588ZM67.848 132.996C69.096 132.996 70.128 133.836 70.128 135.06V153.612C70.128 154.836 69.096 155.7 67.848 155.7C66.576 155.7 65.568 154.86 65.568 153.612V145.572H61.728V149.148C61.728 152.652 58.92 155.004 55.392 155.004C51.888 155.004 49.08 152.652 49.08 149.148V139.428C49.08 135.948 51.888 133.572 55.392 133.572C58.92 133.572 61.728 135.948 61.728 139.428V141.804H65.568V135.06C65.568 133.836 66.576 132.996 67.848 132.996ZM57.6 149.388V139.188C57.6 138.06 56.688 137.1 55.44 137.1C54.168 137.1 53.28 138.06 53.28 139.188V149.388C53.28 150.564 54.168 151.452 55.44 151.452C56.688 151.452 57.6 150.564 57.6 149.388ZM91.296 146.436H74.808C73.656 146.436 73.032 145.836 73.032 144.684V135.204C73.032 133.932 74.064 133.284 75.336 133.284C76.608 133.284 77.616 133.932 77.616 135.204V136.476H88.488V135.18C88.488 133.932 89.496 133.284 90.768 133.284C92.04 133.284 93.048 133.932 93.048 135.18V144.684C93.048 145.836 92.424 146.436 91.296 146.436ZM77.616 139.764V142.98H88.488V139.764H77.616ZM92.424 155.004H73.68C72.672 155.004 71.808 154.188 71.808 153.132C71.808 152.1 72.672 151.26 73.68 151.26H80.736V149.196C80.736 147.924 81.768 147.252 83.04 147.252C84.312 147.252 85.344 147.9 85.344 149.172V151.26H92.424C93.432 151.26 94.296 152.1 94.296 153.132C94.296 154.188 93.432 155.004 92.424 155.004ZM114.12 155.7C112.872 155.7 111.84 154.86 111.84 153.612V135.06C111.84 133.836 112.872 132.996 114.12 132.996C115.392 132.996 116.4 133.836 116.4 135.06V141.564H117.528C118.608 141.564 119.16 142.452 119.16 143.508C119.16 144.612 118.608 145.5 117.528 145.5H116.4V153.612C116.4 154.86 115.392 155.7 114.12 155.7ZM97.632 154.428C96.48 154.428 95.568 153.492 95.568 152.34C95.568 151.596 96 151.02 96.576 150.564C98.784 148.86 100.848 145.884 100.848 139.74V137.892H97.824C96.792 137.892 95.904 137.028 95.904 135.972C95.904 134.916 96.792 134.076 97.824 134.076H108.24C109.272 134.076 110.136 134.916 110.136 135.972C110.136 137.028 109.272 137.892 108.24 137.892H105.192V139.74C105.192 145.884 107.256 148.86 109.464 150.564C110.04 151.02 110.496 151.572 110.496 152.34C110.496 153.492 109.56 154.452 108.408 154.452C107.952 154.452 107.544 154.332 107.208 154.068C105.432 152.892 103.728 150.804 103.008 148.572C102.288 150.804 100.584 152.868 98.832 154.068C98.496 154.308 98.064 154.428 97.632 154.428ZM119.88 147.468L119.712 142.548V135.108C119.712 133.836 120.648 132.948 121.896 132.948C123.144 132.948 124.08 133.836 124.08 135.108V142.548L123.936 147.468C123.888 148.74 123.048 149.508 121.92 149.508C120.768 149.508 119.928 148.74 119.88 147.468ZM122.448 155.316H121.344C120.504 155.316 119.88 154.692 119.88 153.852V152.772C119.88 151.932 120.504 151.308 121.344 151.308H122.448C123.288 151.308 123.912 151.932 123.912 152.772V153.852C123.912 154.692 123.288 155.316 122.448 155.316Z" fill="white"/>
<g clip-path="url(#clip0_338_9095)">
<path d="M279.352 94.7266C274.223 122.801 274.682 157.504 276.41 188.386" stroke="#FFE4A1" stroke-width="66.4069"/>
<path d="M298.127 106.256C299.333 100.791 304.069 86.0373 313.365 70.7485" stroke="#FFE4A1" stroke-width="24.2952"/>
<path d="M300.138 98.7751C301.343 93.3096 304.069 86.0373 313.365 70.7485" stroke="#FEBC2E" stroke-width="10.7979"/>
<path d="M257.763 96.5881C258.428 91.0308 261.698 75.885 269.455 59.7603" stroke="#FFE4A1" stroke-width="24.2952"/>
<path d="M281.512 95.2559C280.455 97.4603 278.999 100.052 276.917 105.946" stroke="#FEBC2E" stroke-width="2.69947"/>
<path d="M274.495 94.1743C273.438 96.3787 271.982 98.9706 269.9 104.865" stroke="#FEBC2E" stroke-width="2.69947"/>
<path d="M249.117 133.598C222.392 123.88 190.916 129.926 221.582 77.4487" stroke="#FFE4A1" stroke-width="15.117"/>
<ellipse cx="2.42952" cy="2.15957" rx="2.42952" ry="2.15957" transform="matrix(-1.31134e-07 -1 -1 1.31134e-07 261.521 111.754)" fill="#002B53"/>
<ellipse cx="2.42952" cy="2.15957" rx="2.42952" ry="2.15957" transform="matrix(-1.31134e-07 -1 -1 1.31134e-07 288.53 115.242)" fill="#002B53"/>
<ellipse cx="6.20878" cy="5.39893" rx="6.20878" ry="5.39893" transform="matrix(-1.31134e-07 -1 -1 1.31134e-07 297.168 127.66)" fill="#FEBC2E"/>
<ellipse cx="6.20878" cy="5.39893" rx="6.20878" ry="5.39893" transform="matrix(-1.31134e-07 -1 -1 1.31134e-07 257.214 124.959)" fill="#FEBC2E"/>
<path d="M258.576 89.1457C259.362 83.6042 261.527 76.1458 269.634 60.1943" stroke="#FEBC2E" stroke-width="10.7979"/>
<path d="M223.373 84.4963C224.542 82.3367 227.26 78.1255 229.851 74.2383" stroke="#FFE4A1" stroke-width="4.85904"/>
<path d="M221.583 77.4487C220.953 78.4385 219.531 80.904 218.883 82.8477" stroke="#FA8D26" stroke-width="2.15957"/>
<path d="M217.803 75.291C217.173 76.2808 215.751 78.7463 215.103 80.6899" stroke="#FA8D26" stroke-width="2.15957"/>
<path d="M261.515 118.663L281.003 120.321C282.071 120.411 282.756 121.507 282.348 122.498C277.609 133.995 273.985 131.814 269.632 131.814C262.886 131.814 260.818 125.313 259.799 120.586C259.572 119.533 260.443 118.572 261.515 118.663Z" fill="#FA8D26" stroke="#FA8D26" stroke-width="0.539894" stroke-linejoin="round"/>
<path d="M275.395 170.197C280.762 173.456 295.521 177.672 306.446 175.372" stroke="#FEBC2E" stroke-width="2.70245" stroke-linecap="square"/>
<path d="M277.122 151.223C282.488 154.481 294.947 160.422 305.871 158.123" stroke="#FEBC2E" stroke-width="2.70245" stroke-linecap="square"/>
<path d="M270.221 156.972C296.671 177.672 352.444 162.147 301.213 140.014" stroke="#FFE4A1" stroke-width="15.117"/>
<path d="M237.446 36.7744C240.13 37.3494 246.531 39.1894 250.671 41.9493" stroke="#C7B5FF" stroke-width="9.19983" stroke-linecap="square"/>
<path d="M325.994 118.508C328.312 117.039 334.171 113.871 339.059 112.942" stroke="#987DF9" stroke-width="9.19983" stroke-linecap="square"/>
<path d="M193.747 27.6099C196.065 26.1415 201.924 22.9727 206.812 22.0443" stroke="#704FE6" stroke-width="9.19983" stroke-linecap="square"/>
<path d="M200.639 154.802C202.983 156.229 208.42 160.076 211.419 164.046" stroke="#704FE6" stroke-width="9.19983" stroke-linecap="square"/>
<path d="M317.944 22.9097C320.263 21.4413 326.121 18.2725 331.009 17.3441" stroke="#C7B5FF" stroke-width="9.19983" stroke-linecap="square"/>
<path d="M340 69C342.522 70.0829 348.447 73.1257 351.975 76.6339" stroke="#704FE6" stroke-width="9.19983" stroke-linecap="square"/>
<path d="M290.218 29.8496C291.07 32.4581 292.699 38.9165 292.396 43.8828" stroke="#704FE6" stroke-width="9.19983" stroke-linecap="square"/>
<rect x="260" y="136" width="14" height="14" rx="3" fill="#4223B2"/>
<rect x="232" y="141" width="47" height="31" rx="4" fill="#502BD5"/>
<rect x="232" y="141" width="43" height="27" rx="4" fill="#8463FD"/>
<circle cx="249" cy="155" r="8.5" fill="#E2DAFC" stroke="#4223B2" stroke-width="3"/>
</g>
<rect x="24" y="183" width="342" height="87" rx="21" fill="#704FE6"/>
<path d="M123.88 228.08H110.14C109.18 228.08 108.66 227.58 108.66 226.62V219.1C108.66 218.14 109.18 217.64 110.14 217.64H123.88C124.82 217.64 125.34 218.14 125.34 219.1V226.62C125.34 227.58 124.82 228.08 123.88 228.08ZM112.4 220.6V225.12H121.62V220.6H112.4ZM124.82 235.42H109.2C108.36 235.42 107.64 234.74 107.64 233.86C107.64 233 108.36 232.3 109.2 232.3H115.06V230.36C115.06 229.3 115.92 228.76 117 228.76C118.06 228.76 118.92 229.3 118.92 230.36V232.3H124.82C125.66 232.3 126.38 233 126.38 233.86C126.38 234.74 125.66 235.42 124.82 235.42ZM142.9 236C141.86 236 141 235.3 141 234.26V218.8C141 217.78 141.86 217.08 142.9 217.08C143.96 217.08 144.8 217.78 144.8 218.8V221.44H145.72C146.54 221.44 147.08 222.1 147.08 222.92C147.08 223.76 146.54 224.42 145.72 224.42H144.8V227.8H145.72C146.54 227.8 147.08 228.46 147.08 229.28C147.08 230.12 146.54 230.78 145.72 230.78H144.8V234.26C144.8 235.3 143.96 236 142.9 236ZM133.18 235.42C130.24 235.42 127.9 233.46 127.9 230.54V222.44C127.9 219.54 130.24 217.56 133.18 217.56C136.12 217.56 138.46 219.54 138.46 222.44V230.54C138.46 233.46 136.12 235.42 133.18 235.42ZM133.2 232.46C134.26 232.46 135 231.72 135 230.74V222.24C135 221.3 134.26 220.5 133.2 220.5C132.16 220.5 131.42 221.3 131.42 222.24V230.74C131.42 231.72 132.16 232.46 133.2 232.46ZM152.56 238.8C151.44 238.8 150.82 238.2 150.82 237.28V235.76C148.66 235.38 147.14 234.16 147.14 231.82V221.24C147.14 218.28 149.54 217.14 152.54 217.14C155.54 217.14 157.96 218.28 157.96 221.24V231.82C157.96 234.16 156.44 235.38 154.28 235.76V237.28C154.28 238 153.68 238.8 152.56 238.8ZM150.7 221.74V231.32C150.7 232.28 151.5 232.82 152.54 232.82C153.6 232.82 154.4 232.28 154.4 231.32V221.74C154.4 220.78 153.6 220.24 152.54 220.24C151.5 220.24 150.7 220.78 150.7 221.74ZM171.735 217.08C172.595 217.08 173.295 217.62 173.295 218.48V234.6C173.295 235.46 172.595 236 171.735 236C170.875 236 170.175 235.46 170.175 234.6V227.54H168.315V231.46C168.315 233.78 166.375 235.42 164.055 235.42C161.735 235.42 159.795 233.78 159.795 231.46V221.52C159.795 219.2 161.735 217.56 164.055 217.56C166.375 217.56 168.315 219.2 168.315 221.52V224.42H170.175V218.48C170.175 217.62 170.875 217.08 171.735 217.08ZM175.955 217.08C176.835 217.08 177.555 217.64 177.555 218.5V234.56C177.555 235.44 176.835 236 175.955 236C175.075 236 174.355 235.44 174.355 234.56V218.5C174.355 217.64 175.075 217.08 175.955 217.08ZM165.275 231.36V221.62C165.275 220.96 164.715 220.48 164.115 220.48C163.515 220.48 162.935 220.96 162.935 221.62V231.36C162.935 232.04 163.515 232.5 164.115 232.5C164.715 232.5 165.275 232.04 165.275 231.36ZM191.295 217.08C192.155 217.08 192.855 217.62 192.855 218.48V234.6C192.855 235.46 192.155 236 191.295 236C190.415 236 189.735 235.46 189.735 234.6V227.54H187.195C186.075 231.36 183.955 233.52 181.195 234.66C181.015 234.74 180.795 234.78 180.575 234.78C179.715 234.78 178.975 234.08 178.975 233.18C178.975 232.54 179.395 231.96 179.935 231.72C183.955 229.92 184.815 225.34 184.815 221.06H180.655C179.815 221.06 179.095 220.38 179.095 219.5C179.095 218.64 179.815 217.94 180.655 217.94H186.595C187.575 217.94 188.095 218.48 188.095 219.44V220.22C188.095 221.76 188.015 223.16 187.835 224.42H189.735V218.48C189.735 217.62 190.415 217.08 191.295 217.08ZM195.555 217.08C196.435 217.08 197.155 217.64 197.155 218.5V234.56C197.155 235.44 196.435 236 195.555 236C194.675 236 193.955 235.44 193.955 234.56V218.5C193.955 217.64 194.675 217.08 195.555 217.08ZM220.171 223.28H206.431C205.471 223.28 204.951 222.78 204.951 221.82V218.82C204.951 217.86 205.471 217.36 206.431 217.36H220.171C221.111 217.36 221.631 217.86 221.631 218.82V221.82C221.631 222.78 221.111 223.28 220.171 223.28ZM217.971 219.7H208.631V220.94H217.971V219.7ZM221.371 226.74H215.111V227.94H220.471C221.211 227.94 221.631 228.34 221.631 229.1V231.58C221.631 232.34 221.211 232.76 220.471 232.76H208.751V233.62H221.051C221.651 233.62 222.131 234.12 222.131 234.7C222.131 235.3 221.651 235.78 221.051 235.78H206.131C205.371 235.78 204.951 235.38 204.951 234.62V231.98C204.951 231.22 205.371 230.8 206.131 230.8H217.831V230H205.811C205.231 230 204.771 229.54 204.771 228.98C204.771 228.4 205.231 227.94 205.811 227.94H211.451V226.74H205.231C204.511 226.74 203.931 226.16 203.931 225.44C203.931 224.72 204.511 224.14 205.231 224.14H221.371C222.071 224.14 222.671 224.72 222.671 225.44C222.671 226.16 222.071 226.74 221.371 226.74ZM239.831 217.08C240.871 217.08 241.731 217.78 241.731 218.8V234.26C241.731 235.28 240.871 236 239.831 236C238.771 236 237.931 235.3 237.931 234.26V227.56H234.731V230.54C234.731 233.46 232.391 235.42 229.451 235.42C226.531 235.42 224.191 233.46 224.191 230.54V222.44C224.191 219.54 226.531 217.56 229.451 217.56C232.391 217.56 234.731 219.54 234.731 222.44V224.42H237.931V218.8C237.931 217.78 238.771 217.08 239.831 217.08ZM231.291 230.74V222.24C231.291 221.3 230.531 220.5 229.491 220.5C228.431 220.5 227.691 221.3 227.691 222.24V230.74C227.691 231.72 228.431 232.46 229.491 232.46C230.531 232.46 231.291 231.72 231.291 230.74ZM259.371 228.28H245.631C244.671 228.28 244.151 227.78 244.151 226.82V218.92C244.151 217.86 245.011 217.32 246.071 217.32C247.131 217.32 247.971 217.86 247.971 218.92V219.98H257.031V218.9C257.031 217.86 257.871 217.32 258.931 217.32C259.991 217.32 260.831 217.86 260.831 218.9V226.82C260.831 227.78 260.311 228.28 259.371 228.28ZM247.971 222.72V225.4H257.031V222.72H247.971ZM260.311 235.42H244.691C243.851 235.42 243.131 234.74 243.131 233.86C243.131 233 243.851 232.3 244.691 232.3H250.571V230.58C250.571 229.52 251.431 228.96 252.491 228.96C253.551 228.96 254.411 229.5 254.411 230.56V232.3H260.311C261.151 232.3 261.871 233 261.871 233.86C261.871 234.74 261.151 235.42 260.311 235.42ZM278.971 236C277.871 236 277.011 235.28 277.011 234.22V218.86C277.011 217.78 277.871 217.08 278.971 217.08C280.031 217.08 280.891 217.78 280.891 218.86V234.22C280.891 235.28 280.031 236 278.971 236ZM265.091 234.84C263.951 235.14 262.971 234.32 262.971 233.26C262.971 232.54 263.471 231.9 264.111 231.68C268.571 230.26 271.211 226.86 271.211 221.06H264.651C263.811 221.06 263.091 220.38 263.091 219.5C263.091 218.64 263.811 217.94 264.651 217.94H273.331C274.311 217.94 274.831 218.48 274.831 219.44V220.56C274.831 228.5 270.991 233.14 265.091 234.84Z" fill="white"/>
<defs>
<clipPath id="clip0_338_9095">
<rect width="181" height="183" fill="white" transform="matrix(-1 0 0 1 366 0)"/>
</clipPath>
</defs>
</svg>
