<svg width="342" height="183" viewBox="0 0 342 183" fill="none" xmlns="http://www.w3.org/2000/svg">
<rect y="19" width="88" height="27" rx="13.5" fill="#987DF9"/>
<path d="M20.2578 28.1641C21.6992 28.1641 22.7773 29.3477 22.9883 31.2695H24.8398V27.4141H26.3164V38.1016H24.8398V32.4648H23.0059C22.8477 34.5156 21.7461 35.7695 20.2578 35.7695C18.6406 35.7695 17.4805 34.3047 17.4922 31.9609C17.4805 29.6348 18.6406 28.1641 20.2578 28.1641ZM18.9219 31.9609C18.916 33.5488 19.4609 34.416 20.2578 34.4102C21.0605 34.416 21.5938 33.5488 21.5938 31.9609C21.5938 30.3789 21.0605 29.5117 20.2578 29.5117C19.4609 29.5117 18.916 30.3789 18.9219 31.9609ZM36.3655 27.4258V35.2773H34.8772V27.4258H36.3655ZM27.9983 29.3125V28.1172H32.9436V31.5156H29.4748V32.6992C31.385 32.6934 32.592 32.6348 33.9748 32.3711L34.1389 33.5664C32.5862 33.8594 31.2034 33.918 28.9475 33.918H28.01V30.4141H31.4553V29.3125H27.9983ZM29.1936 37.8906V34.6211H30.6819V36.6953H36.6467V37.8906H29.1936ZM46.5083 27.4141V38.1016H44.9966V27.4141H46.5083ZM37.895 31.9609C37.8891 29.6348 39.0786 28.1641 40.7192 28.1641C42.3247 28.1641 43.52 29.6348 43.52 31.9609C43.52 34.3047 42.3247 35.7695 40.7192 35.7695C39.0786 35.7695 37.8891 34.3047 37.895 31.9609ZM39.3364 31.9609C39.3305 33.5488 39.8872 34.416 40.7192 34.4102C41.5278 34.416 42.0727 33.5488 42.0786 31.9609C42.0727 30.3789 41.5278 29.5117 40.7192 29.5117C39.8872 29.5117 39.3305 30.3789 39.3364 31.9609ZM55.2392 28.5977V29.7812H53.5986C53.6045 30.8477 54.2138 31.8672 55.5556 32.3359L54.8877 33.4492C53.9384 33.1152 53.2998 32.5 52.9189 31.7441C52.5439 32.582 51.8994 33.2676 50.9267 33.625L50.2236 32.5469C51.5654 32.0312 52.1689 30.9238 52.1806 29.7812H50.5283V28.5977H52.1806V27.543H53.5986V28.5977H55.2392ZM51.5244 36.8711C53.8037 36.584 54.9463 35.4238 54.9463 34.3047V34.1289H56.4463V34.3047C56.4404 35.4238 57.6005 36.584 59.8681 36.8711L59.3525 38.0312C57.6064 37.7969 56.3584 37.0703 55.7021 36.0742C55.04 37.0703 53.7861 37.7969 52.0517 38.0312L51.5244 36.8711ZM55.7197 33.6953V27.5898H57.1259V29.9688H57.9814V27.4258H59.3994V34.6328H57.9814V31.1875H57.1259V33.6953H55.7197ZM63.0852 27.7188V28.6445H67.3625V27.7188H68.8508V31.7383H65.968V32.6055H70.093V33.7891H60.3664V32.6055H64.4914V31.7383H61.6086V27.7188H63.0852ZM61.0227 36.8828C63.343 36.6367 64.4562 35.5762 64.468 34.5273V34.3281H65.9797V34.5273C65.9738 35.5762 67.0871 36.6367 69.4367 36.8828L68.9211 38.0312C67.1516 37.8027 65.8859 37.1406 65.2238 36.209C64.5559 37.1406 63.302 37.8027 61.55 38.0312L61.0227 36.8828ZM63.0852 30.5781H67.3625V29.7578H63.0852V30.5781Z" fill="white"/>
<mask id="path-3-outside-1_338_9096" maskUnits="userSpaceOnUse" x="0" y="68" width="137" height="14" fill="black">
<rect fill="white" y="68" width="137" height="14"/>
<path d="M12.642 75.556C12.642 75.822 12.46 75.962 12.236 75.962H7.28V78.258C7.28 78.538 7.084 78.678 6.818 78.678C6.552 78.678 6.37 78.538 6.37 78.258V75.962H1.036C0.812 75.962 0.63 75.822 0.63 75.556C0.63 75.29 0.812 75.15 1.036 75.15H12.236C12.46 75.15 12.642 75.29 12.642 75.556ZM2.632 69.606V72.308C2.632 72.532 2.716 72.588 2.87 72.588H11.382C11.606 72.588 11.788 72.728 11.788 72.994C11.788 73.26 11.606 73.4 11.382 73.4H2.73C1.806 73.4 1.722 72.826 1.722 72.308V69.606C1.722 69.326 1.904 69.186 2.17 69.186C2.436 69.186 2.632 69.326 2.632 69.606ZM2.632 77.936V79.756C2.632 79.98 2.716 80.036 2.87 80.036H11.368C11.592 80.036 11.774 80.176 11.774 80.442C11.774 80.708 11.592 80.848 11.368 80.848H2.73C1.806 80.848 1.722 80.274 1.722 79.756V77.936C1.722 77.656 1.904 77.516 2.17 77.516C2.436 77.516 2.632 77.656 2.632 77.936ZM24.5307 80.442C24.5307 80.708 24.3487 80.848 24.1247 80.848H14.6047C14.3807 80.848 14.1987 80.708 14.1987 80.442C14.1987 80.176 14.3807 80.036 14.6047 80.036H16.1587V77.348H14.6047C14.3807 77.348 14.1987 77.208 14.1987 76.942C14.1987 76.676 14.3807 76.536 14.6047 76.536H24.1247C24.3487 76.536 24.5307 76.676 24.5307 76.942C24.5307 77.208 24.3487 77.348 24.1247 77.348H22.5707V80.036H24.1247C24.3487 80.036 24.5307 80.176 24.5307 80.442ZM13.8627 72.826V71.552C13.8627 70.194 14.9687 69.2 16.7747 69.2C18.5387 69.2 19.7147 70.18 19.7147 71.552V72.826C19.7147 74.198 18.5387 75.178 16.7747 75.178C14.9687 75.178 13.8627 74.184 13.8627 72.826ZM14.7727 71.944V72.434C14.7727 73.876 15.5987 74.366 16.7747 74.366C17.9787 74.366 18.8047 73.876 18.8047 72.434V71.944C18.8047 70.502 17.9787 70.012 16.7747 70.012C15.5987 70.012 14.7727 70.502 14.7727 71.944ZM17.0687 77.348V80.036H21.6607V77.348H17.0687ZM26.3647 72.098C26.3647 72.364 26.1827 72.504 25.9587 72.504H24.0967V75.052C24.0967 75.332 23.9007 75.472 23.6347 75.472C23.3687 75.472 23.1867 75.332 23.1867 75.052V69.48C23.1867 69.2 23.3687 69.06 23.6347 69.06C23.9007 69.06 24.0967 69.2 24.0967 69.48V71.692H25.9587C26.1827 71.692 26.3647 71.832 26.3647 72.098ZM27.0955 78.356V71.664C27.0955 70.32 27.8095 69.2 29.5875 69.2C31.4075 69.2 32.1075 70.334 32.1075 71.664V78.356C32.1075 79.686 31.4075 80.82 29.5875 80.82C27.8095 80.82 27.0955 79.7 27.0955 78.356ZM28.0055 72.056V77.964C28.0055 79.42 28.4115 80.008 29.5875 80.008C30.7775 80.008 31.1975 79.42 31.1975 77.964V72.056C31.1975 70.6 30.7775 70.012 29.5875 70.012C28.4115 70.012 28.0055 70.6 28.0055 72.056ZM32.6255 74.534C32.6255 74.268 32.8075 74.128 33.0315 74.128H34.4735V69.48C34.4735 69.2 34.6555 69.06 34.9215 69.06C35.1875 69.06 35.3835 69.2 35.3835 69.48V80.666C35.3835 80.946 35.1875 81.086 34.9215 81.086C34.6555 81.086 34.4735 80.946 34.4735 80.666V74.94H33.0315C32.8075 74.94 32.6255 74.8 32.6255 74.534ZM37.0355 80.666V69.48C37.0355 69.2 37.2175 69.06 37.4835 69.06C37.7495 69.06 37.9455 69.2 37.9455 69.48V80.666C37.9455 80.946 37.7495 81.086 37.4835 81.086C37.2175 81.086 37.0355 80.946 37.0355 80.666ZM54.6914 78.916C54.6914 80.19 53.9634 80.848 52.1294 80.848H46.9774C45.1434 80.848 44.4154 80.19 44.4154 78.916C44.4154 77.642 45.1434 76.984 46.9774 76.984H52.1294C53.9634 76.984 54.6914 77.642 54.6914 78.916ZM53.7814 78.916C53.7814 78.174 53.3894 77.796 51.9334 77.796H47.1734C45.7174 77.796 45.3254 78.174 45.3254 78.916C45.3254 79.658 45.7174 80.036 47.1734 80.036H51.9334C53.3894 80.036 53.7814 79.658 53.7814 78.916ZM55.5454 74.128C55.5454 74.394 55.3634 74.534 55.1394 74.534H50.0014V75.976C50.0014 76.256 49.8054 76.396 49.5394 76.396C49.2734 76.396 49.0914 76.256 49.0914 75.976V74.534H43.9394C43.7154 74.534 43.5334 74.394 43.5334 74.128C43.5334 73.862 43.7154 73.722 43.9394 73.722H55.1394C55.3634 73.722 55.5454 73.862 55.5454 74.128ZM44.5974 69.648C44.5974 69.382 44.7794 69.242 45.0034 69.242H53.3894C54.3134 69.242 54.3974 69.816 54.3974 70.334V70.908C54.3974 71.188 54.4394 71.916 54.2854 72.42C54.1874 72.77 54.0334 72.868 53.7394 72.826C53.4454 72.77 53.3334 72.588 53.3894 72.266C53.4594 71.888 53.4874 71.44 53.4874 71.006V70.334C53.4874 70.11 53.4034 70.054 53.2494 70.054H45.0034C44.7794 70.054 44.5974 69.914 44.5974 69.648ZM58.6562 76.886H66.4962C67.4202 76.886 67.5042 77.46 67.5042 77.978V79.756C67.5042 80.274 67.4202 80.848 66.4962 80.848H58.6562C57.7322 80.848 57.6482 80.274 57.6482 79.756V77.978C57.6482 77.46 57.7322 76.886 58.6562 76.886ZM58.7962 80.036H66.3562C66.5102 80.036 66.5942 79.98 66.5942 79.756V77.978C66.5942 77.754 66.5102 77.698 66.3562 77.698H58.7962C58.6422 77.698 58.5582 77.754 58.5582 77.978V79.756C58.5582 79.98 58.6422 80.036 58.7962 80.036ZM68.5682 74.632C68.5682 74.898 68.3862 75.038 68.1622 75.038H56.9622C56.7382 75.038 56.5562 74.898 56.5562 74.632C56.5562 74.366 56.7382 74.226 56.9622 74.226H68.1622C68.3862 74.226 68.5682 74.366 68.5682 74.632ZM57.6202 69.648C57.6202 69.382 57.8022 69.242 58.0262 69.242H66.4122C67.3362 69.242 67.4202 69.816 67.4202 70.334V71.16C67.4202 71.44 67.4622 72.168 67.3082 72.672C67.2102 73.022 67.0562 73.12 66.7622 73.078C66.4682 73.022 66.3562 72.84 66.4122 72.518C66.4822 72.14 66.5102 71.692 66.5102 71.258V70.334C66.5102 70.11 66.4262 70.054 66.2722 70.054H58.0262C57.8022 70.054 57.6202 69.914 57.6202 69.648ZM76.1729 74.772C76.1729 76.158 75.2489 76.802 74.1149 76.802H71.9309C70.7969 76.802 69.8729 76.158 69.8729 74.772C69.8729 73.358 70.8529 72.728 71.9309 72.728H74.1149C75.1929 72.728 76.1729 73.358 76.1729 74.772ZM71.1609 78.076V79.756C71.1609 79.98 71.2449 80.036 71.3989 80.036H80.0369C80.2609 80.036 80.4429 80.176 80.4429 80.442C80.4429 80.708 80.2609 80.848 80.0369 80.848H71.2589C70.3349 80.848 70.2509 80.274 70.2509 79.756V78.076C70.2509 77.796 70.4329 77.656 70.6989 77.656C70.9649 77.656 71.1609 77.796 71.1609 78.076ZM75.2629 74.772C75.2629 74.324 75.1229 73.54 73.9189 73.54H72.1269C70.9229 73.54 70.7829 74.324 70.7829 74.772C70.7829 75.29 70.9649 75.99 72.1269 75.99H73.9189C75.0809 75.99 75.2629 75.29 75.2629 74.772ZM82.2909 73.568C82.2909 73.834 82.1089 73.974 81.8849 73.974H80.0229V77.054C80.0229 77.334 79.8269 77.474 79.5609 77.474C79.2949 77.474 79.1129 77.334 79.1129 77.054V69.48C79.1129 69.2 79.2949 69.06 79.5609 69.06C79.8269 69.06 80.0229 69.2 80.0229 69.48V73.162H81.8849C82.1089 73.162 82.2909 73.302 82.2909 73.568ZM76.6629 71.482C76.6629 71.748 76.4809 71.888 76.2569 71.888H69.7329C69.5089 71.888 69.3269 71.748 69.3269 71.482C69.3269 71.216 69.5089 71.076 69.7329 71.076H76.2569C76.4809 71.076 76.6629 71.216 76.6629 71.482ZM75.4029 69.48C75.4029 69.746 75.2209 69.886 74.9969 69.886H70.9929C70.7689 69.886 70.5869 69.746 70.5869 69.48C70.5869 69.214 70.7689 69.074 70.9929 69.074H74.9969C75.2209 69.074 75.4029 69.214 75.4029 69.48ZM86.5489 69.634C86.5489 69.368 86.7309 69.228 86.9549 69.228H90.0629C90.9869 69.228 91.0709 69.802 91.0709 70.32V73.876C91.0709 75.542 91.0709 78.482 90.1189 80.624C89.9649 80.946 89.6569 81.016 89.4329 80.89C89.2089 80.764 89.1389 80.512 89.2649 80.246C90.1189 78.356 90.1609 75.696 90.1609 73.694V70.32C90.1609 70.096 90.0769 70.04 89.9229 70.04H86.9549C86.7309 70.04 86.5489 69.9 86.5489 69.634ZM91.9109 74.534C91.9109 74.268 92.0929 74.128 92.3169 74.128H93.9829V69.48C93.9829 69.2 94.1649 69.06 94.4309 69.06C94.6969 69.06 94.8929 69.2 94.8929 69.48V80.666C94.8929 80.946 94.6969 81.086 94.4309 81.086C94.1649 81.086 93.9829 80.946 93.9829 80.666V74.94H92.3169C92.0929 74.94 91.9109 74.8 91.9109 74.534ZM96.5449 80.666V69.48C96.5449 69.2 96.7269 69.06 96.9929 69.06C97.2589 69.06 97.4549 69.2 97.4549 69.48V80.666C97.4549 80.946 97.2589 81.086 96.9929 81.086C96.7269 81.086 96.5449 80.946 96.5449 80.666ZM113.249 74.898V69.48C113.249 69.2 113.431 69.06 113.697 69.06C113.963 69.06 114.159 69.2 114.159 69.48V74.898C114.159 75.178 113.963 75.318 113.697 75.318C113.431 75.318 113.249 75.178 113.249 74.898ZM103.505 72.924V71.538C103.505 70.18 104.625 69.2 106.417 69.2C108.195 69.2 109.357 70.166 109.357 71.538V72.924C109.357 74.282 108.181 75.248 106.417 75.248C104.625 75.248 103.505 74.268 103.505 72.924ZM104.415 71.93V72.532C104.415 73.974 105.241 74.436 106.417 74.436C107.649 74.436 108.447 73.946 108.447 72.532V71.93C108.447 70.46 107.593 70.012 106.417 70.012C105.227 70.012 104.415 70.502 104.415 71.93ZM112.647 76.634V77.278C112.647 78.44 112.871 79.322 114.397 79.91C114.663 80.008 114.789 80.232 114.719 80.498C114.649 80.764 114.397 80.876 114.075 80.778C113.515 80.624 112.661 79.952 112.241 79.28C111.947 79.868 111.107 80.624 110.295 80.82C109.945 80.904 109.721 80.806 109.651 80.54C109.581 80.274 109.707 80.05 109.973 79.952C111.611 79.364 111.737 78.398 111.737 77.278V76.634C111.737 76.354 111.919 76.214 112.185 76.214C112.451 76.214 112.647 76.354 112.647 76.634ZM106.865 76.634V77.278C106.865 78.44 107.089 79.322 108.615 79.91C108.881 80.008 109.007 80.232 108.937 80.498C108.867 80.764 108.615 80.876 108.293 80.778C107.733 80.624 106.879 79.952 106.459 79.28C106.165 79.868 105.325 80.624 104.513 80.82C104.163 80.904 103.939 80.806 103.869 80.54C103.799 80.274 103.925 80.05 104.191 79.952C105.829 79.364 105.955 78.398 105.955 77.278V76.634C105.955 76.354 106.137 76.214 106.403 76.214C106.669 76.214 106.865 76.354 106.865 76.634ZM116.738 78.356V71.664C116.738 70.334 117.704 69.2 119.51 69.2C121.274 69.2 122.31 70.306 122.31 71.664V78.356C122.31 79.714 121.274 80.82 119.51 80.82C117.704 80.82 116.738 79.686 116.738 78.356ZM117.648 72.056V77.964C117.648 79.42 118.334 80.008 119.51 80.008C120.7 80.008 121.4 79.42 121.4 77.964V72.056C121.4 70.6 120.7 70.012 119.51 70.012C118.334 70.012 117.648 70.6 117.648 72.056ZM123.528 74.534C123.528 74.268 123.71 74.128 123.934 74.128H126.356V69.48C126.356 69.2 126.538 69.06 126.804 69.06C127.07 69.06 127.266 69.2 127.266 69.48V80.666C127.266 80.946 127.07 81.086 126.804 81.086C126.538 81.086 126.356 80.946 126.356 80.666V74.94H123.934C123.71 74.94 123.528 74.8 123.528 74.534ZM136.046 71.636C136.046 73.092 135.01 73.848 134.016 74.618C132.938 75.402 132.952 75.752 132.952 76.858C132.952 77.012 132.756 77.208 132.518 77.208C132.252 77.208 132.028 77.082 132.028 76.76C132.028 75.416 132.308 74.688 133.19 74.142C134.142 73.498 135.164 72.784 135.164 71.706C135.164 70.53 134.282 69.9 132.714 69.9C131.482 69.9 131.034 70.32 130.544 70.81C130.362 70.978 130.11 71.02 129.886 70.866C129.732 70.768 129.676 70.446 129.83 70.236C130.278 69.62 131.258 69.088 132.784 69.088C135.066 69.088 136.046 70.292 136.046 71.636ZM131.804 79.588C131.804 79.07 132.112 78.86 132.49 78.86C132.882 78.86 133.19 79.07 133.19 79.588C133.19 80.078 132.882 80.288 132.49 80.288C132.112 80.288 131.804 80.078 131.804 79.588Z"/>
</mask>
<path d="M12.642 75.556C12.642 75.822 12.46 75.962 12.236 75.962H7.28V78.258C7.28 78.538 7.084 78.678 6.818 78.678C6.552 78.678 6.37 78.538 6.37 78.258V75.962H1.036C0.812 75.962 0.63 75.822 0.63 75.556C0.63 75.29 0.812 75.15 1.036 75.15H12.236C12.46 75.15 12.642 75.29 12.642 75.556ZM2.632 69.606V72.308C2.632 72.532 2.716 72.588 2.87 72.588H11.382C11.606 72.588 11.788 72.728 11.788 72.994C11.788 73.26 11.606 73.4 11.382 73.4H2.73C1.806 73.4 1.722 72.826 1.722 72.308V69.606C1.722 69.326 1.904 69.186 2.17 69.186C2.436 69.186 2.632 69.326 2.632 69.606ZM2.632 77.936V79.756C2.632 79.98 2.716 80.036 2.87 80.036H11.368C11.592 80.036 11.774 80.176 11.774 80.442C11.774 80.708 11.592 80.848 11.368 80.848H2.73C1.806 80.848 1.722 80.274 1.722 79.756V77.936C1.722 77.656 1.904 77.516 2.17 77.516C2.436 77.516 2.632 77.656 2.632 77.936ZM24.5307 80.442C24.5307 80.708 24.3487 80.848 24.1247 80.848H14.6047C14.3807 80.848 14.1987 80.708 14.1987 80.442C14.1987 80.176 14.3807 80.036 14.6047 80.036H16.1587V77.348H14.6047C14.3807 77.348 14.1987 77.208 14.1987 76.942C14.1987 76.676 14.3807 76.536 14.6047 76.536H24.1247C24.3487 76.536 24.5307 76.676 24.5307 76.942C24.5307 77.208 24.3487 77.348 24.1247 77.348H22.5707V80.036H24.1247C24.3487 80.036 24.5307 80.176 24.5307 80.442ZM13.8627 72.826V71.552C13.8627 70.194 14.9687 69.2 16.7747 69.2C18.5387 69.2 19.7147 70.18 19.7147 71.552V72.826C19.7147 74.198 18.5387 75.178 16.7747 75.178C14.9687 75.178 13.8627 74.184 13.8627 72.826ZM14.7727 71.944V72.434C14.7727 73.876 15.5987 74.366 16.7747 74.366C17.9787 74.366 18.8047 73.876 18.8047 72.434V71.944C18.8047 70.502 17.9787 70.012 16.7747 70.012C15.5987 70.012 14.7727 70.502 14.7727 71.944ZM17.0687 77.348V80.036H21.6607V77.348H17.0687ZM26.3647 72.098C26.3647 72.364 26.1827 72.504 25.9587 72.504H24.0967V75.052C24.0967 75.332 23.9007 75.472 23.6347 75.472C23.3687 75.472 23.1867 75.332 23.1867 75.052V69.48C23.1867 69.2 23.3687 69.06 23.6347 69.06C23.9007 69.06 24.0967 69.2 24.0967 69.48V71.692H25.9587C26.1827 71.692 26.3647 71.832 26.3647 72.098ZM27.0955 78.356V71.664C27.0955 70.32 27.8095 69.2 29.5875 69.2C31.4075 69.2 32.1075 70.334 32.1075 71.664V78.356C32.1075 79.686 31.4075 80.82 29.5875 80.82C27.8095 80.82 27.0955 79.7 27.0955 78.356ZM28.0055 72.056V77.964C28.0055 79.42 28.4115 80.008 29.5875 80.008C30.7775 80.008 31.1975 79.42 31.1975 77.964V72.056C31.1975 70.6 30.7775 70.012 29.5875 70.012C28.4115 70.012 28.0055 70.6 28.0055 72.056ZM32.6255 74.534C32.6255 74.268 32.8075 74.128 33.0315 74.128H34.4735V69.48C34.4735 69.2 34.6555 69.06 34.9215 69.06C35.1875 69.06 35.3835 69.2 35.3835 69.48V80.666C35.3835 80.946 35.1875 81.086 34.9215 81.086C34.6555 81.086 34.4735 80.946 34.4735 80.666V74.94H33.0315C32.8075 74.94 32.6255 74.8 32.6255 74.534ZM37.0355 80.666V69.48C37.0355 69.2 37.2175 69.06 37.4835 69.06C37.7495 69.06 37.9455 69.2 37.9455 69.48V80.666C37.9455 80.946 37.7495 81.086 37.4835 81.086C37.2175 81.086 37.0355 80.946 37.0355 80.666ZM54.6914 78.916C54.6914 80.19 53.9634 80.848 52.1294 80.848H46.9774C45.1434 80.848 44.4154 80.19 44.4154 78.916C44.4154 77.642 45.1434 76.984 46.9774 76.984H52.1294C53.9634 76.984 54.6914 77.642 54.6914 78.916ZM53.7814 78.916C53.7814 78.174 53.3894 77.796 51.9334 77.796H47.1734C45.7174 77.796 45.3254 78.174 45.3254 78.916C45.3254 79.658 45.7174 80.036 47.1734 80.036H51.9334C53.3894 80.036 53.7814 79.658 53.7814 78.916ZM55.5454 74.128C55.5454 74.394 55.3634 74.534 55.1394 74.534H50.0014V75.976C50.0014 76.256 49.8054 76.396 49.5394 76.396C49.2734 76.396 49.0914 76.256 49.0914 75.976V74.534H43.9394C43.7154 74.534 43.5334 74.394 43.5334 74.128C43.5334 73.862 43.7154 73.722 43.9394 73.722H55.1394C55.3634 73.722 55.5454 73.862 55.5454 74.128ZM44.5974 69.648C44.5974 69.382 44.7794 69.242 45.0034 69.242H53.3894C54.3134 69.242 54.3974 69.816 54.3974 70.334V70.908C54.3974 71.188 54.4394 71.916 54.2854 72.42C54.1874 72.77 54.0334 72.868 53.7394 72.826C53.4454 72.77 53.3334 72.588 53.3894 72.266C53.4594 71.888 53.4874 71.44 53.4874 71.006V70.334C53.4874 70.11 53.4034 70.054 53.2494 70.054H45.0034C44.7794 70.054 44.5974 69.914 44.5974 69.648ZM58.6562 76.886H66.4962C67.4202 76.886 67.5042 77.46 67.5042 77.978V79.756C67.5042 80.274 67.4202 80.848 66.4962 80.848H58.6562C57.7322 80.848 57.6482 80.274 57.6482 79.756V77.978C57.6482 77.46 57.7322 76.886 58.6562 76.886ZM58.7962 80.036H66.3562C66.5102 80.036 66.5942 79.98 66.5942 79.756V77.978C66.5942 77.754 66.5102 77.698 66.3562 77.698H58.7962C58.6422 77.698 58.5582 77.754 58.5582 77.978V79.756C58.5582 79.98 58.6422 80.036 58.7962 80.036ZM68.5682 74.632C68.5682 74.898 68.3862 75.038 68.1622 75.038H56.9622C56.7382 75.038 56.5562 74.898 56.5562 74.632C56.5562 74.366 56.7382 74.226 56.9622 74.226H68.1622C68.3862 74.226 68.5682 74.366 68.5682 74.632ZM57.6202 69.648C57.6202 69.382 57.8022 69.242 58.0262 69.242H66.4122C67.3362 69.242 67.4202 69.816 67.4202 70.334V71.16C67.4202 71.44 67.4622 72.168 67.3082 72.672C67.2102 73.022 67.0562 73.12 66.7622 73.078C66.4682 73.022 66.3562 72.84 66.4122 72.518C66.4822 72.14 66.5102 71.692 66.5102 71.258V70.334C66.5102 70.11 66.4262 70.054 66.2722 70.054H58.0262C57.8022 70.054 57.6202 69.914 57.6202 69.648ZM76.1729 74.772C76.1729 76.158 75.2489 76.802 74.1149 76.802H71.9309C70.7969 76.802 69.8729 76.158 69.8729 74.772C69.8729 73.358 70.8529 72.728 71.9309 72.728H74.1149C75.1929 72.728 76.1729 73.358 76.1729 74.772ZM71.1609 78.076V79.756C71.1609 79.98 71.2449 80.036 71.3989 80.036H80.0369C80.2609 80.036 80.4429 80.176 80.4429 80.442C80.4429 80.708 80.2609 80.848 80.0369 80.848H71.2589C70.3349 80.848 70.2509 80.274 70.2509 79.756V78.076C70.2509 77.796 70.4329 77.656 70.6989 77.656C70.9649 77.656 71.1609 77.796 71.1609 78.076ZM75.2629 74.772C75.2629 74.324 75.1229 73.54 73.9189 73.54H72.1269C70.9229 73.54 70.7829 74.324 70.7829 74.772C70.7829 75.29 70.9649 75.99 72.1269 75.99H73.9189C75.0809 75.99 75.2629 75.29 75.2629 74.772ZM82.2909 73.568C82.2909 73.834 82.1089 73.974 81.8849 73.974H80.0229V77.054C80.0229 77.334 79.8269 77.474 79.5609 77.474C79.2949 77.474 79.1129 77.334 79.1129 77.054V69.48C79.1129 69.2 79.2949 69.06 79.5609 69.06C79.8269 69.06 80.0229 69.2 80.0229 69.48V73.162H81.8849C82.1089 73.162 82.2909 73.302 82.2909 73.568ZM76.6629 71.482C76.6629 71.748 76.4809 71.888 76.2569 71.888H69.7329C69.5089 71.888 69.3269 71.748 69.3269 71.482C69.3269 71.216 69.5089 71.076 69.7329 71.076H76.2569C76.4809 71.076 76.6629 71.216 76.6629 71.482ZM75.4029 69.48C75.4029 69.746 75.2209 69.886 74.9969 69.886H70.9929C70.7689 69.886 70.5869 69.746 70.5869 69.48C70.5869 69.214 70.7689 69.074 70.9929 69.074H74.9969C75.2209 69.074 75.4029 69.214 75.4029 69.48ZM86.5489 69.634C86.5489 69.368 86.7309 69.228 86.9549 69.228H90.0629C90.9869 69.228 91.0709 69.802 91.0709 70.32V73.876C91.0709 75.542 91.0709 78.482 90.1189 80.624C89.9649 80.946 89.6569 81.016 89.4329 80.89C89.2089 80.764 89.1389 80.512 89.2649 80.246C90.1189 78.356 90.1609 75.696 90.1609 73.694V70.32C90.1609 70.096 90.0769 70.04 89.9229 70.04H86.9549C86.7309 70.04 86.5489 69.9 86.5489 69.634ZM91.9109 74.534C91.9109 74.268 92.0929 74.128 92.3169 74.128H93.9829V69.48C93.9829 69.2 94.1649 69.06 94.4309 69.06C94.6969 69.06 94.8929 69.2 94.8929 69.48V80.666C94.8929 80.946 94.6969 81.086 94.4309 81.086C94.1649 81.086 93.9829 80.946 93.9829 80.666V74.94H92.3169C92.0929 74.94 91.9109 74.8 91.9109 74.534ZM96.5449 80.666V69.48C96.5449 69.2 96.7269 69.06 96.9929 69.06C97.2589 69.06 97.4549 69.2 97.4549 69.48V80.666C97.4549 80.946 97.2589 81.086 96.9929 81.086C96.7269 81.086 96.5449 80.946 96.5449 80.666ZM113.249 74.898V69.48C113.249 69.2 113.431 69.06 113.697 69.06C113.963 69.06 114.159 69.2 114.159 69.48V74.898C114.159 75.178 113.963 75.318 113.697 75.318C113.431 75.318 113.249 75.178 113.249 74.898ZM103.505 72.924V71.538C103.505 70.18 104.625 69.2 106.417 69.2C108.195 69.2 109.357 70.166 109.357 71.538V72.924C109.357 74.282 108.181 75.248 106.417 75.248C104.625 75.248 103.505 74.268 103.505 72.924ZM104.415 71.93V72.532C104.415 73.974 105.241 74.436 106.417 74.436C107.649 74.436 108.447 73.946 108.447 72.532V71.93C108.447 70.46 107.593 70.012 106.417 70.012C105.227 70.012 104.415 70.502 104.415 71.93ZM112.647 76.634V77.278C112.647 78.44 112.871 79.322 114.397 79.91C114.663 80.008 114.789 80.232 114.719 80.498C114.649 80.764 114.397 80.876 114.075 80.778C113.515 80.624 112.661 79.952 112.241 79.28C111.947 79.868 111.107 80.624 110.295 80.82C109.945 80.904 109.721 80.806 109.651 80.54C109.581 80.274 109.707 80.05 109.973 79.952C111.611 79.364 111.737 78.398 111.737 77.278V76.634C111.737 76.354 111.919 76.214 112.185 76.214C112.451 76.214 112.647 76.354 112.647 76.634ZM106.865 76.634V77.278C106.865 78.44 107.089 79.322 108.615 79.91C108.881 80.008 109.007 80.232 108.937 80.498C108.867 80.764 108.615 80.876 108.293 80.778C107.733 80.624 106.879 79.952 106.459 79.28C106.165 79.868 105.325 80.624 104.513 80.82C104.163 80.904 103.939 80.806 103.869 80.54C103.799 80.274 103.925 80.05 104.191 79.952C105.829 79.364 105.955 78.398 105.955 77.278V76.634C105.955 76.354 106.137 76.214 106.403 76.214C106.669 76.214 106.865 76.354 106.865 76.634ZM116.738 78.356V71.664C116.738 70.334 117.704 69.2 119.51 69.2C121.274 69.2 122.31 70.306 122.31 71.664V78.356C122.31 79.714 121.274 80.82 119.51 80.82C117.704 80.82 116.738 79.686 116.738 78.356ZM117.648 72.056V77.964C117.648 79.42 118.334 80.008 119.51 80.008C120.7 80.008 121.4 79.42 121.4 77.964V72.056C121.4 70.6 120.7 70.012 119.51 70.012C118.334 70.012 117.648 70.6 117.648 72.056ZM123.528 74.534C123.528 74.268 123.71 74.128 123.934 74.128H126.356V69.48C126.356 69.2 126.538 69.06 126.804 69.06C127.07 69.06 127.266 69.2 127.266 69.48V80.666C127.266 80.946 127.07 81.086 126.804 81.086C126.538 81.086 126.356 80.946 126.356 80.666V74.94H123.934C123.71 74.94 123.528 74.8 123.528 74.534ZM136.046 71.636C136.046 73.092 135.01 73.848 134.016 74.618C132.938 75.402 132.952 75.752 132.952 76.858C132.952 77.012 132.756 77.208 132.518 77.208C132.252 77.208 132.028 77.082 132.028 76.76C132.028 75.416 132.308 74.688 133.19 74.142C134.142 73.498 135.164 72.784 135.164 71.706C135.164 70.53 134.282 69.9 132.714 69.9C131.482 69.9 131.034 70.32 130.544 70.81C130.362 70.978 130.11 71.02 129.886 70.866C129.732 70.768 129.676 70.446 129.83 70.236C130.278 69.62 131.258 69.088 132.784 69.088C135.066 69.088 136.046 70.292 136.046 71.636ZM131.804 79.588C131.804 79.07 132.112 78.86 132.49 78.86C132.882 78.86 133.19 79.07 133.19 79.588C133.19 80.078 132.882 80.288 132.49 80.288C132.112 80.288 131.804 80.078 131.804 79.588Z" fill="white"/>
<path d="M7.28 75.962V75.662H6.98V75.962H7.28ZM6.37 75.962H6.67V75.662H6.37V75.962ZM12.342 75.556C12.342 75.6167 12.3235 75.6346 12.3189 75.6389C12.3106 75.6466 12.2867 75.662 12.236 75.662V76.262C12.4093 76.262 12.5884 76.2074 12.7271 76.0786C12.8695 75.9464 12.942 75.7613 12.942 75.556H12.342ZM12.236 75.662H7.28V76.262H12.236V75.662ZM6.98 75.962V78.258H7.58V75.962H6.98ZM6.98 78.258C6.98 78.2928 6.97399 78.3131 6.96954 78.3234C6.96535 78.3332 6.96046 78.3393 6.95431 78.3445C6.94104 78.3558 6.9018 78.378 6.818 78.378V78.978C7.0002 78.978 7.19196 78.9302 7.34319 78.8015C7.50135 78.6669 7.58 78.4735 7.58 78.258H6.98ZM6.818 78.378C6.73449 78.378 6.70178 78.3561 6.69356 78.3488C6.69077 78.3463 6.67 78.3297 6.67 78.258H6.07C6.07 78.4663 6.14023 78.6597 6.29494 78.7972C6.44422 78.9299 6.63551 78.978 6.818 78.978V78.378ZM6.67 78.258V75.962H6.07V78.258H6.67ZM6.37 75.662H1.036V76.262H6.37V75.662ZM1.036 75.662C0.985271 75.662 0.961392 75.6466 0.953135 75.6389C0.948453 75.6346 0.93 75.6167 0.93 75.556H0.33C0.33 75.7613 0.402547 75.9464 0.544865 76.0786C0.683608 76.2074 0.862729 76.262 1.036 76.262V75.662ZM0.93 75.556C0.93 75.4953 0.948453 75.4774 0.953135 75.4731C0.961392 75.4654 0.985271 75.45 1.036 75.45V74.85C0.862729 74.85 0.683608 74.9046 0.544865 75.0334C0.402547 75.1656 0.33 75.3507 0.33 75.556H0.93ZM1.036 75.45H12.236V74.85H1.036V75.45ZM12.236 75.45C12.2867 75.45 12.3106 75.4654 12.3189 75.4731C12.3235 75.4774 12.342 75.4953 12.342 75.556H12.942C12.942 75.3507 12.8695 75.1656 12.7271 75.0334C12.5884 74.9046 12.4093 74.85 12.236 74.85V75.45ZM2.332 69.606V72.308H2.932V69.606H2.332ZM2.332 72.308C2.332 72.4439 2.35478 72.6124 2.47665 72.7396C2.60342 72.8718 2.76801 72.888 2.87 72.888V72.288C2.84748 72.288 2.84483 72.2857 2.85307 72.2881C2.85807 72.2896 2.86685 72.2928 2.87758 72.299C2.88858 72.3054 2.89974 72.3139 2.90985 72.3244C2.93092 72.3464 2.93645 72.3655 2.93644 72.3654C2.93588 72.3634 2.932 72.3471 2.932 72.308H2.332ZM2.87 72.888H11.382V72.288H2.87V72.888ZM11.382 72.888C11.4327 72.888 11.4566 72.9034 11.4649 72.9111C11.4695 72.9154 11.488 72.9333 11.488 72.994H12.088C12.088 72.7887 12.0155 72.6036 11.8731 72.4714C11.7344 72.3426 11.5553 72.288 11.382 72.288V72.888ZM11.488 72.994C11.488 73.0547 11.4695 73.0726 11.4649 73.0769C11.4566 73.0846 11.4327 73.1 11.382 73.1V73.7C11.5553 73.7 11.7344 73.6454 11.8731 73.5166C12.0155 73.3844 12.088 73.1993 12.088 72.994H11.488ZM11.382 73.1H2.73V73.7H11.382V73.1ZM2.73 73.1C2.33368 73.1 2.19449 72.9816 2.13041 72.8838C2.04723 72.7569 2.022 72.5661 2.022 72.308H1.422C1.422 72.5679 1.43877 72.9231 1.6286 73.2127C1.83751 73.5314 2.20232 73.7 2.73 73.7V73.1ZM2.022 72.308V69.606H1.422V72.308H2.022ZM2.022 69.606C2.022 69.5343 2.04277 69.5177 2.04556 69.5152C2.05378 69.5079 2.08649 69.486 2.17 69.486V68.886C1.98751 68.886 1.79622 68.9341 1.64694 69.0668C1.49223 69.2043 1.422 69.3977 1.422 69.606H2.022ZM2.17 69.486C2.2538 69.486 2.29304 69.5082 2.30631 69.5195C2.31246 69.5247 2.31735 69.5308 2.32153 69.5406C2.32599 69.5509 2.332 69.5712 2.332 69.606H2.932C2.932 69.3905 2.85335 69.1971 2.69519 69.0625C2.54396 68.9338 2.3522 68.886 2.17 68.886V69.486ZM2.332 77.936V79.756H2.932V77.936H2.332ZM2.332 79.756C2.332 79.8919 2.35478 80.0604 2.47665 80.1876C2.60342 80.3198 2.76801 80.336 2.87 80.336V79.736C2.84748 79.736 2.84483 79.7337 2.85307 79.7361C2.85807 79.7376 2.86685 79.7408 2.87758 79.747C2.88858 79.7534 2.89974 79.7619 2.90985 79.7724C2.93092 79.7944 2.93645 79.8135 2.93644 79.8134C2.93588 79.8114 2.932 79.7951 2.932 79.756H2.332ZM2.87 80.336H11.368V79.736H2.87V80.336ZM11.368 80.336C11.4187 80.336 11.4426 80.3514 11.4509 80.3591C11.4555 80.3634 11.474 80.3813 11.474 80.442H12.074C12.074 80.2367 12.0015 80.0516 11.8591 79.9194C11.7204 79.7906 11.5413 79.736 11.368 79.736V80.336ZM11.474 80.442C11.474 80.5027 11.4555 80.5206 11.4509 80.5249C11.4426 80.5326 11.4187 80.548 11.368 80.548V81.148C11.5413 81.148 11.7204 81.0934 11.8591 80.9646C12.0015 80.8324 12.074 80.6473 12.074 80.442H11.474ZM11.368 80.548H2.73V81.148H11.368V80.548ZM2.73 80.548C2.33368 80.548 2.19449 80.4296 2.13041 80.3318C2.04723 80.2049 2.022 80.0141 2.022 79.756H1.422C1.422 80.0159 1.43877 80.3711 1.6286 80.6607C1.83751 80.9794 2.20232 81.148 2.73 81.148V80.548ZM2.022 79.756V77.936H1.422V79.756H2.022ZM2.022 77.936C2.022 77.8643 2.04277 77.8477 2.04556 77.8452C2.05378 77.8379 2.08649 77.816 2.17 77.816V77.216C1.98751 77.216 1.79622 77.2641 1.64694 77.3968C1.49223 77.5343 1.422 77.7277 1.422 77.936H2.022ZM2.17 77.816C2.2538 77.816 2.29304 77.8382 2.30631 77.8495C2.31246 77.8547 2.31735 77.8608 2.32153 77.8706C2.32599 77.8809 2.332 77.9012 2.332 77.936H2.932C2.932 77.7205 2.85335 77.5271 2.69519 77.3925C2.54396 77.2638 2.3522 77.216 2.17 77.216V77.816ZM16.1587 80.036V80.336H16.4587V80.036H16.1587ZM16.1587 77.348H16.4587V77.048H16.1587V77.348ZM22.5707 77.348V77.048H22.2707V77.348H22.5707ZM22.5707 80.036H22.2707V80.336H22.5707V80.036ZM17.0687 77.348V77.048H16.7687V77.348H17.0687ZM17.0687 80.036H16.7687V80.336H17.0687V80.036ZM21.6607 80.036V80.336H21.9607V80.036H21.6607ZM21.6607 77.348H21.9607V77.048H21.6607V77.348ZM24.0967 72.504V72.204H23.7967V72.504H24.0967ZM24.0967 71.692H23.7967V71.992H24.0967V71.692ZM24.2307 80.442C24.2307 80.5027 24.2123 80.5206 24.2076 80.5249C24.1993 80.5326 24.1755 80.548 24.1247 80.548V81.148C24.298 81.148 24.4771 81.0934 24.6159 80.9646C24.7582 80.8324 24.8307 80.6473 24.8307 80.442H24.2307ZM24.1247 80.548H14.6047V81.148H24.1247V80.548ZM14.6047 80.548C14.554 80.548 14.5301 80.5326 14.5219 80.5249C14.5172 80.5206 14.4987 80.5027 14.4987 80.442H13.8987C13.8987 80.6473 13.9713 80.8324 14.1136 80.9646C14.2523 81.0934 14.4315 81.148 14.6047 81.148V80.548ZM14.4987 80.442C14.4987 80.3813 14.5172 80.3634 14.5219 80.3591C14.5301 80.3514 14.554 80.336 14.6047 80.336V79.736C14.4315 79.736 14.2523 79.7906 14.1136 79.9194C13.9713 80.0516 13.8987 80.2367 13.8987 80.442H14.4987ZM14.6047 80.336H16.1587V79.736H14.6047V80.336ZM16.4587 80.036V77.348H15.8587V80.036H16.4587ZM16.1587 77.048H14.6047V77.648H16.1587V77.048ZM14.6047 77.048C14.554 77.048 14.5301 77.0326 14.5219 77.0249C14.5172 77.0206 14.4987 77.0027 14.4987 76.942H13.8987C13.8987 77.1473 13.9713 77.3324 14.1136 77.4646C14.2523 77.5934 14.4315 77.648 14.6047 77.648V77.048ZM14.4987 76.942C14.4987 76.8813 14.5172 76.8634 14.5219 76.8591C14.5301 76.8514 14.554 76.836 14.6047 76.836V76.236C14.4315 76.236 14.2523 76.2906 14.1136 76.4194C13.9713 76.5516 13.8987 76.7367 13.8987 76.942H14.4987ZM14.6047 76.836H24.1247V76.236H14.6047V76.836ZM24.1247 76.836C24.1755 76.836 24.1993 76.8514 24.2076 76.8591C24.2123 76.8634 24.2307 76.8813 24.2307 76.942H24.8307C24.8307 76.7367 24.7582 76.5516 24.6159 76.4194C24.4771 76.2906 24.298 76.236 24.1247 76.236V76.836ZM24.2307 76.942C24.2307 77.0027 24.2123 77.0206 24.2076 77.0249C24.1993 77.0326 24.1755 77.048 24.1247 77.048V77.648C24.298 77.648 24.4771 77.5934 24.6159 77.4646C24.7582 77.3324 24.8307 77.1473 24.8307 76.942H24.2307ZM24.1247 77.048H22.5707V77.648H24.1247V77.048ZM22.2707 77.348V80.036H22.8707V77.348H22.2707ZM22.5707 80.336H24.1247V79.736H22.5707V80.336ZM24.1247 80.336C24.1755 80.336 24.1993 80.3514 24.2076 80.3591C24.2123 80.3634 24.2307 80.3813 24.2307 80.442H24.8307C24.8307 80.2367 24.7582 80.0516 24.6159 79.9194C24.4771 79.7906 24.298 79.736 24.1247 79.736V80.336ZM14.1627 72.826V71.552H13.5627V72.826H14.1627ZM14.1627 71.552C14.1627 70.9605 14.4009 70.4575 14.8335 70.0973C15.2702 69.7336 15.9251 69.5 16.7747 69.5V68.9C15.8184 68.9 15.0173 69.1634 14.4495 69.6362C13.8776 70.1125 13.5627 70.7855 13.5627 71.552H14.1627ZM16.7747 69.5C17.6031 69.5 18.267 69.73 18.7175 70.0947C19.1635 70.4558 19.4147 70.959 19.4147 71.552H20.0147C20.0147 70.773 19.6779 70.1002 19.095 69.6283C18.5164 69.16 17.7103 68.9 16.7747 68.9V69.5ZM19.4147 71.552V72.826H20.0147V71.552H19.4147ZM19.4147 72.826C19.4147 73.419 19.1635 73.9222 18.7175 74.2833C18.267 74.648 17.6031 74.878 16.7747 74.878V75.478C17.7103 75.478 18.5164 75.218 19.095 74.7497C19.6779 74.2778 20.0147 73.605 20.0147 72.826H19.4147ZM16.7747 74.878C15.9251 74.878 15.2702 74.6444 14.8335 74.2807C14.4009 73.9205 14.1627 73.4175 14.1627 72.826H13.5627C13.5627 73.5925 13.8776 74.2655 14.4495 74.7418C15.0173 75.2146 15.8184 75.478 16.7747 75.478V74.878ZM14.4727 71.944V72.434H15.0727V71.944H14.4727ZM14.4727 72.434C14.4727 73.2127 14.6978 73.7919 15.1376 74.1686C15.5683 74.5375 16.1526 74.666 16.7747 74.666V74.066C16.2209 74.066 15.8041 73.9495 15.5279 73.7129C15.2607 73.4841 15.0727 73.0973 15.0727 72.434H14.4727ZM16.7747 74.666C17.4095 74.666 18.0007 74.5381 18.4353 74.1696C18.8796 73.7927 19.1047 73.2127 19.1047 72.434H18.5047C18.5047 73.0973 18.3168 73.4833 18.0472 73.7119C17.7678 73.9489 17.3439 74.066 16.7747 74.066V74.666ZM19.1047 72.434V71.944H18.5047V72.434H19.1047ZM19.1047 71.944C19.1047 71.1653 18.8796 70.5853 18.4353 70.2084C18.0007 69.8399 17.4095 69.712 16.7747 69.712V70.312C17.3439 70.312 17.7678 70.4291 18.0472 70.6661C18.3168 70.8947 18.5047 71.2807 18.5047 71.944H19.1047ZM16.7747 69.712C16.1526 69.712 15.5683 69.8405 15.1376 70.2094C14.6978 70.5861 14.4727 71.1653 14.4727 71.944H15.0727C15.0727 71.2807 15.2607 70.8939 15.5279 70.6651C15.8041 70.4285 16.2209 70.312 16.7747 70.312V69.712ZM16.7687 77.348V80.036H17.3687V77.348H16.7687ZM17.0687 80.336H21.6607V79.736H17.0687V80.336ZM21.9607 80.036V77.348H21.3607V80.036H21.9607ZM21.6607 77.048H17.0687V77.648H21.6607V77.048ZM26.0647 72.098C26.0647 72.1587 26.0463 72.1766 26.0416 72.1809C26.0333 72.1886 26.0095 72.204 25.9587 72.204V72.804C26.132 72.804 26.3111 72.7494 26.4499 72.6206C26.5922 72.4884 26.6647 72.3033 26.6647 72.098H26.0647ZM25.9587 72.204H24.0967V72.804H25.9587V72.204ZM23.7967 72.504V75.052H24.3967V72.504H23.7967ZM23.7967 75.052C23.7967 75.0868 23.7907 75.1071 23.7863 75.1174C23.7821 75.1272 23.7772 75.1333 23.771 75.1385C23.7578 75.1498 23.7185 75.172 23.6347 75.172V75.772C23.8169 75.772 24.0087 75.7242 24.1599 75.5955C24.3181 75.4609 24.3967 75.2675 24.3967 75.052H23.7967ZM23.6347 75.172C23.5512 75.172 23.5185 75.1501 23.5103 75.1428C23.5075 75.1403 23.4867 75.1237 23.4867 75.052H22.8867C22.8867 75.2603 22.957 75.4537 23.1117 75.5912C23.261 75.7239 23.4522 75.772 23.6347 75.772V75.172ZM23.4867 75.052V69.48H22.8867V75.052H23.4867ZM23.4867 69.48C23.4867 69.4083 23.5075 69.3917 23.5103 69.3892C23.5185 69.3819 23.5512 69.36 23.6347 69.36V68.76C23.4522 68.76 23.261 68.8081 23.1117 68.9408C22.957 69.0783 22.8867 69.2717 22.8867 69.48H23.4867ZM23.6347 69.36C23.7185 69.36 23.7578 69.3822 23.771 69.3935C23.7772 69.3987 23.7821 69.4048 23.7863 69.4146C23.7907 69.4249 23.7967 69.4452 23.7967 69.48H24.3967C24.3967 69.2645 24.3181 69.0711 24.1599 68.9365C24.0087 68.8078 23.8169 68.76 23.6347 68.76V69.36ZM23.7967 69.48V71.692H24.3967V69.48H23.7967ZM24.0967 71.992H25.9587V71.392H24.0967V71.992ZM25.9587 71.992C26.0095 71.992 26.0333 72.0074 26.0416 72.0151C26.0463 72.0194 26.0647 72.0373 26.0647 72.098H26.6647C26.6647 71.8927 26.5922 71.7076 26.4499 71.5754C26.3111 71.4466 26.132 71.392 25.9587 71.392V71.992ZM34.4735 74.128V74.428H34.7735V74.128H34.4735ZM34.4735 74.94H34.7735V74.64H34.4735V74.94ZM27.3955 78.356V71.664H26.7955V78.356H27.3955ZM27.3955 71.664C27.3955 71.0414 27.5609 70.5052 27.8983 70.128C28.2304 69.7567 28.7645 69.5 29.5875 69.5V68.9C28.6324 68.9 27.9205 69.2033 27.4511 69.728C26.987 70.2468 26.7955 70.9426 26.7955 71.664H27.3955ZM29.5875 69.5C30.4324 69.5 30.973 69.7608 31.3064 70.1333C31.6452 70.5119 31.8075 71.0477 31.8075 71.664H32.4075C32.4075 70.9503 32.2197 70.2541 31.7535 69.7332C31.2819 69.2062 30.5626 68.9 29.5875 68.9V69.5ZM31.8075 71.664V78.356H32.4075V71.664H31.8075ZM31.8075 78.356C31.8075 78.9723 31.6452 79.5081 31.3064 79.8867C30.973 80.2592 30.4324 80.52 29.5875 80.52V81.12C30.5626 81.12 31.2819 80.8138 31.7535 80.2868C32.2197 79.7659 32.4075 79.0697 32.4075 78.356H31.8075ZM29.5875 80.52C28.7645 80.52 28.2304 80.2633 27.8983 79.892C27.5609 79.5148 27.3955 78.9786 27.3955 78.356H26.7955C26.7955 79.0774 26.987 79.7732 27.4511 80.292C27.9205 80.8167 28.6324 81.12 29.5875 81.12V80.52ZM27.7055 72.056V77.964H28.3055V72.056H27.7055ZM27.7055 77.964C27.7055 78.7036 27.805 79.3009 28.1161 79.7128C28.4447 80.1479 28.9526 80.308 29.5875 80.308V79.708C29.0464 79.708 28.7633 79.5741 28.5949 79.3512C28.409 79.1051 28.3055 78.6804 28.3055 77.964H27.7055ZM29.5875 80.308C30.2282 80.308 30.742 80.1486 31.0763 79.7152C31.3941 79.3031 31.4975 78.705 31.4975 77.964H30.8975C30.8975 78.679 30.7908 79.1029 30.6012 79.3488C30.4279 79.5734 30.1367 79.708 29.5875 79.708V80.308ZM31.4975 77.964V72.056H30.8975V77.964H31.4975ZM31.4975 72.056C31.4975 71.315 31.3941 70.7169 31.0763 70.3048C30.742 69.8714 30.2282 69.712 29.5875 69.712V70.312C30.1367 70.312 30.4279 70.4466 30.6012 70.6712C30.7908 70.9171 30.8975 71.341 30.8975 72.056H31.4975ZM29.5875 69.712C28.9526 69.712 28.4447 69.8721 28.1161 70.3072C27.805 70.7191 27.7055 71.3164 27.7055 72.056H28.3055C28.3055 71.3396 28.409 70.9149 28.5949 70.6688C28.7633 70.4459 29.0464 70.312 29.5875 70.312V69.712ZM32.9255 74.534C32.9255 74.4733 32.9439 74.4554 32.9486 74.4511C32.9569 74.4434 32.9807 74.428 33.0315 74.428V73.828C32.8582 73.828 32.6791 73.8826 32.5403 74.0114C32.398 74.1436 32.3255 74.3287 32.3255 74.534H32.9255ZM33.0315 74.428H34.4735V73.828H33.0315V74.428ZM34.7735 74.128V69.48H34.1735V74.128H34.7735ZM34.7735 69.48C34.7735 69.4083 34.7942 69.3917 34.797 69.3892C34.8053 69.3819 34.838 69.36 34.9215 69.36V68.76C34.739 68.76 34.5477 68.8081 34.3984 68.9408C34.2437 69.0783 34.1735 69.2717 34.1735 69.48H34.7735ZM34.9215 69.36C35.0053 69.36 35.0445 69.3822 35.0578 69.3935C35.0639 69.3987 35.0688 69.4048 35.073 69.4146C35.0775 69.4249 35.0835 69.4452 35.0835 69.48H35.6835C35.6835 69.2645 35.6048 69.0711 35.4467 68.9365C35.2954 68.8078 35.1037 68.76 34.9215 68.76V69.36ZM35.0835 69.48V80.666H35.6835V69.48H35.0835ZM35.0835 80.666C35.0835 80.7008 35.0775 80.7211 35.073 80.7314C35.0688 80.7412 35.0639 80.7473 35.0578 80.7525C35.0445 80.7638 35.0053 80.786 34.9215 80.786V81.386C35.1037 81.386 35.2954 81.3382 35.4467 81.2095C35.6048 81.0749 35.6835 80.8815 35.6835 80.666H35.0835ZM34.9215 80.786C34.838 80.786 34.8053 80.7641 34.797 80.7568C34.7942 80.7543 34.7735 80.7377 34.7735 80.666H34.1735C34.1735 80.8743 34.2437 81.0677 34.3984 81.2052C34.5477 81.3379 34.739 81.386 34.9215 81.386V80.786ZM34.7735 80.666V74.94H34.1735V80.666H34.7735ZM34.4735 74.64H33.0315V75.24H34.4735V74.64ZM33.0315 74.64C32.9807 74.64 32.9569 74.6246 32.9486 74.6169C32.9439 74.6126 32.9255 74.5947 32.9255 74.534H32.3255C32.3255 74.7393 32.398 74.9244 32.5403 75.0566C32.6791 75.1854 32.8582 75.24 33.0315 75.24V74.64ZM37.3355 80.666V69.48H36.7355V80.666H37.3355ZM37.3355 69.48C37.3355 69.4083 37.3562 69.3917 37.359 69.3892C37.3673 69.3819 37.4 69.36 37.4835 69.36V68.76C37.301 68.76 37.1097 68.8081 36.9604 68.9408C36.8057 69.0783 36.7355 69.2717 36.7355 69.48H37.3355ZM37.4835 69.36C37.5673 69.36 37.6065 69.3822 37.6198 69.3935C37.6259 69.3987 37.6308 69.4048 37.635 69.4146C37.6395 69.4249 37.6455 69.4452 37.6455 69.48H38.2455C38.2455 69.2645 38.1668 69.0711 38.0087 68.9365C37.8574 68.8078 37.6657 68.76 37.4835 68.76V69.36ZM37.6455 69.48V80.666H38.2455V69.48H37.6455ZM37.6455 80.666C37.6455 80.7008 37.6395 80.7211 37.635 80.7314C37.6308 80.7412 37.6259 80.7473 37.6198 80.7525C37.6065 80.7638 37.5673 80.786 37.4835 80.786V81.386C37.6657 81.386 37.8574 81.3382 38.0087 81.2095C38.1668 81.0749 38.2455 80.8815 38.2455 80.666H37.6455ZM37.4835 80.786C37.4 80.786 37.3673 80.7641 37.359 80.7568C37.3562 80.7543 37.3355 80.7377 37.3355 80.666H36.7355C36.7355 80.8743 36.8057 81.0677 36.9604 81.2052C37.1097 81.3379 37.301 81.386 37.4835 81.386V80.786ZM50.0014 74.534V74.234H49.7014V74.534H50.0014ZM49.0914 74.534H49.3914V74.234H49.0914V74.534ZM54.2854 72.42L53.9985 72.3323L53.9965 72.3391L54.2854 72.42ZM53.7394 72.826L53.6832 73.121L53.697 73.123L53.7394 72.826ZM53.3894 72.266L53.0944 72.2114L53.0939 72.2146L53.3894 72.266ZM54.3914 78.916C54.3914 79.4941 54.2291 79.8749 53.9126 80.124C53.5799 80.386 53.0212 80.548 52.1294 80.548V81.148C53.0717 81.148 53.794 80.981 54.2838 80.5955C54.7898 80.1971 54.9914 79.6119 54.9914 78.916H54.3914ZM52.1294 80.548H46.9774V81.148H52.1294V80.548ZM46.9774 80.548C46.0857 80.548 45.527 80.386 45.1943 80.124C44.8778 79.8749 44.7154 79.4941 44.7154 78.916H44.1154C44.1154 79.6119 44.3171 80.1971 44.8231 80.5955C45.3129 80.981 46.0352 81.148 46.9774 81.148V80.548ZM44.7154 78.916C44.7154 78.3379 44.8778 77.9571 45.1943 77.708C45.527 77.446 46.0857 77.284 46.9774 77.284V76.684C46.0352 76.684 45.3129 76.851 44.8231 77.2365C44.3171 77.6349 44.1154 78.2201 44.1154 78.916H44.7154ZM46.9774 77.284H52.1294V76.684H46.9774V77.284ZM52.1294 77.284C53.0212 77.284 53.5799 77.446 53.9126 77.708C54.2291 77.9571 54.3914 78.3379 54.3914 78.916H54.9914C54.9914 78.2201 54.7898 77.6349 54.2838 77.2365C53.794 76.851 53.0717 76.684 52.1294 76.684V77.284ZM54.0814 78.916C54.0814 78.4881 53.9639 78.0917 53.5702 77.8284C53.2113 77.5884 52.6709 77.496 51.9334 77.496V78.096C52.652 78.096 53.0355 78.1926 53.2367 78.3271C53.4029 78.4383 53.4814 78.6019 53.4814 78.916H54.0814ZM51.9334 77.496H47.1734V78.096H51.9334V77.496ZM47.1734 77.496C46.436 77.496 45.8955 77.5884 45.5367 77.8284C45.1429 78.0917 45.0254 78.4881 45.0254 78.916H45.6254C45.6254 78.6019 45.7039 78.4383 45.8702 78.3271C46.0713 78.1926 46.4549 78.096 47.1734 78.096V77.496ZM45.0254 78.916C45.0254 79.3439 45.1429 79.7403 45.5367 80.0036C45.8955 80.2436 46.436 80.336 47.1734 80.336V79.736C46.4549 79.736 46.0713 79.6394 45.8702 79.5049C45.7039 79.3937 45.6254 79.2301 45.6254 78.916H45.0254ZM47.1734 80.336H51.9334V79.736H47.1734V80.336ZM51.9334 80.336C52.6709 80.336 53.2113 80.2436 53.5702 80.0036C53.9639 79.7403 54.0814 79.3439 54.0814 78.916H53.4814C53.4814 79.2301 53.4029 79.3937 53.2367 79.5049C53.0355 79.6394 52.652 79.736 51.9334 79.736V80.336ZM55.2454 74.128C55.2454 74.1887 55.227 74.2066 55.2223 74.2109C55.214 74.2186 55.1902 74.234 55.1394 74.234V74.834C55.3127 74.834 55.4918 74.7794 55.6306 74.6506C55.7729 74.5184 55.8454 74.3333 55.8454 74.128H55.2454ZM55.1394 74.234H50.0014V74.834H55.1394V74.234ZM49.7014 74.534V75.976H50.3014V74.534H49.7014ZM49.7014 75.976C49.7014 76.0108 49.6954 76.0311 49.691 76.0414C49.6868 76.0512 49.6819 76.0573 49.6758 76.0625C49.6625 76.0738 49.6232 76.096 49.5394 76.096V76.696C49.7216 76.696 49.9134 76.6482 50.0646 76.5195C50.2228 76.3849 50.3014 76.1915 50.3014 75.976H49.7014ZM49.5394 76.096C49.4559 76.096 49.4232 76.0741 49.415 76.0668C49.4122 76.0643 49.3914 76.0477 49.3914 75.976H48.7914C48.7914 76.1843 48.8617 76.3777 49.0164 76.5152C49.1657 76.6479 49.3569 76.696 49.5394 76.696V76.096ZM49.3914 75.976V74.534H48.7914V75.976H49.3914ZM49.0914 74.234H43.9394V74.834H49.0914V74.234ZM43.9394 74.234C43.8887 74.234 43.8648 74.2186 43.8566 74.2109C43.8519 74.2066 43.8334 74.1887 43.8334 74.128H43.2334C43.2334 74.3333 43.306 74.5184 43.4483 74.6506C43.587 74.7794 43.7662 74.834 43.9394 74.834V74.234ZM43.8334 74.128C43.8334 74.0673 43.8519 74.0494 43.8566 74.0451C43.8648 74.0374 43.8887 74.022 43.9394 74.022V73.422C43.7662 73.422 43.587 73.4766 43.4483 73.6054C43.306 73.7376 43.2334 73.9227 43.2334 74.128H43.8334ZM43.9394 74.022H55.1394V73.422H43.9394V74.022ZM55.1394 74.022C55.1902 74.022 55.214 74.0374 55.2223 74.0451C55.227 74.0494 55.2454 74.0673 55.2454 74.128H55.8454C55.8454 73.9227 55.7729 73.7376 55.6306 73.6054C55.4918 73.4766 55.3127 73.422 55.1394 73.422V74.022ZM44.8974 69.648C44.8974 69.5873 44.9159 69.5694 44.9206 69.5651C44.9288 69.5574 44.9527 69.542 45.0034 69.542V68.942C44.8302 68.942 44.651 68.9966 44.5123 69.1254C44.37 69.2576 44.2974 69.4427 44.2974 69.648H44.8974ZM45.0034 69.542H53.3894V68.942H45.0034V69.542ZM53.3894 69.542C53.7858 69.542 53.9249 69.6604 53.989 69.7582C54.0722 69.8851 54.0974 70.0759 54.0974 70.334H54.6974C54.6974 70.0741 54.6807 69.7189 54.4908 69.4293C54.2819 69.1106 53.9171 68.942 53.3894 68.942V69.542ZM54.0974 70.334V70.908H54.6974V70.334H54.0974ZM54.0974 70.908C54.0974 71.0671 54.108 71.2946 54.0993 71.5706C54.0908 71.8432 54.0637 72.1191 53.9985 72.3323L54.5723 72.5077C54.6612 72.2169 54.6901 71.8768 54.699 71.5894C54.7079 71.3054 54.6974 71.0289 54.6974 70.908H54.0974ZM53.9965 72.3391C53.9538 72.4916 53.9152 72.5233 53.9106 72.5265C53.91 72.527 53.906 72.5305 53.8897 72.5329C53.8706 72.5359 53.8371 72.5369 53.7819 72.529L53.697 73.123C53.8783 73.1489 54.083 73.1418 54.2612 73.0135C54.4317 72.8907 54.519 72.6984 54.5743 72.5009L53.9965 72.3391ZM53.7956 72.5313C53.7471 72.5221 53.7194 72.51 53.7049 72.5015C53.6922 72.4941 53.689 72.4891 53.6879 72.4872C53.685 72.4826 53.6633 72.4423 53.685 72.3174L53.0939 72.2146C53.0596 72.4117 53.0659 72.6234 53.1785 72.8043C53.2953 72.9919 53.4862 73.0832 53.6833 73.1207L53.7956 72.5313ZM53.6844 72.3206C53.7589 71.9182 53.7874 71.4504 53.7874 71.006H53.1874C53.1874 71.4296 53.1599 71.8578 53.0945 72.2114L53.6844 72.3206ZM53.7874 71.006V70.334H53.1874V71.006H53.7874ZM53.7874 70.334C53.7874 70.1981 53.7647 70.0296 53.6428 69.9024C53.516 69.7702 53.3514 69.754 53.2494 69.754V70.354C53.272 70.354 53.2746 70.3563 53.2664 70.3539C53.2614 70.3524 53.2526 70.3492 53.2419 70.343C53.2309 70.3366 53.2197 70.3281 53.2096 70.3176C53.1885 70.2956 53.183 70.2765 53.183 70.2766C53.1836 70.2786 53.1874 70.2949 53.1874 70.334H53.7874ZM53.2494 69.754H45.0034V70.354H53.2494V69.754ZM45.0034 69.754C44.9527 69.754 44.9288 69.7386 44.9206 69.7309C44.9159 69.7266 44.8974 69.7087 44.8974 69.648H44.2974C44.2974 69.8533 44.37 70.0384 44.5123 70.1706C44.651 70.2994 44.8302 70.354 45.0034 70.354V69.754ZM67.3082 72.672L67.0212 72.5843L67.0193 72.5911L67.3082 72.672ZM66.7622 73.078L66.706 73.373L66.7197 73.375L66.7622 73.078ZM66.4122 72.518L66.1172 72.4634L66.1166 72.4666L66.4122 72.518ZM58.6562 77.186H66.4962V76.586H58.6562V77.186ZM66.4962 77.186C66.8925 77.186 67.0317 77.3044 67.0958 77.4022C67.1789 77.5291 67.2042 77.7199 67.2042 77.978H67.8042C67.8042 77.7181 67.7874 77.3629 67.5976 77.0733C67.3887 76.7546 67.0239 76.586 66.4962 76.586V77.186ZM67.2042 77.978V79.756H67.8042V77.978H67.2042ZM67.2042 79.756C67.2042 80.0141 67.1789 80.2049 67.0958 80.3318C67.0317 80.4296 66.8925 80.548 66.4962 80.548V81.148C67.0239 81.148 67.3887 80.9794 67.5976 80.6607C67.7874 80.3711 67.8042 80.0159 67.8042 79.756H67.2042ZM66.4962 80.548H58.6562V81.148H66.4962V80.548ZM58.6562 80.548C58.2599 80.548 58.1207 80.4296 58.0566 80.3318C57.9734 80.2049 57.9482 80.0141 57.9482 79.756H57.3482C57.3482 80.0159 57.3649 80.3711 57.5548 80.6607C57.7637 80.9794 58.1285 81.148 58.6562 81.148V80.548ZM57.9482 79.756V77.978H57.3482V79.756H57.9482ZM57.9482 77.978C57.9482 77.7199 57.9734 77.5291 58.0566 77.4022C58.1207 77.3044 58.2599 77.186 58.6562 77.186V76.586C58.1285 76.586 57.7637 76.7546 57.5548 77.0733C57.3649 77.3629 57.3482 77.7181 57.3482 77.978H57.9482ZM58.7962 80.336H66.3562V79.736H58.7962V80.336ZM66.3562 80.336C66.4582 80.336 66.6228 80.3198 66.7495 80.1876C66.8714 80.0604 66.8942 79.8919 66.8942 79.756H66.2942C66.2942 79.7951 66.2903 79.8114 66.2897 79.8134C66.2897 79.8135 66.2952 79.7944 66.3163 79.7724C66.3264 79.7619 66.3376 79.7534 66.3486 79.747C66.3593 79.7408 66.3681 79.7376 66.3731 79.7361C66.3813 79.7337 66.3787 79.736 66.3562 79.736V80.336ZM66.8942 79.756V77.978H66.2942V79.756H66.8942ZM66.8942 77.978C66.8942 77.8421 66.8714 77.6736 66.7495 77.5464C66.6228 77.4142 66.4582 77.398 66.3562 77.398V77.998C66.3787 77.998 66.3813 78.0003 66.3731 77.9979C66.3681 77.9964 66.3593 77.9932 66.3486 77.987C66.3376 77.9806 66.3264 77.9721 66.3163 77.9616C66.2952 77.9396 66.2897 77.9205 66.2897 77.9206C66.2903 77.9226 66.2942 77.9389 66.2942 77.978H66.8942ZM66.3562 77.398H58.7962V77.998H66.3562V77.398ZM58.7962 77.398C58.6942 77.398 58.5296 77.4142 58.4028 77.5464C58.281 77.6736 58.2582 77.8421 58.2582 77.978H58.8582C58.8582 77.9389 58.8621 77.9226 58.8626 77.9206C58.8626 77.9205 58.8571 77.9396 58.836 77.9616C58.8259 77.9721 58.8148 77.9806 58.8037 77.987C58.793 77.9932 58.7842 77.9964 58.7792 77.9979C58.771 78.0003 58.7736 77.998 58.7962 77.998V77.398ZM58.2582 77.978V79.756H58.8582V77.978H58.2582ZM58.2582 79.756C58.2582 79.8919 58.281 80.0604 58.4028 80.1876C58.5296 80.3198 58.6942 80.336 58.7962 80.336V79.736C58.7736 79.736 58.771 79.7337 58.7792 79.7361C58.7842 79.7376 58.793 79.7408 58.8037 79.747C58.8148 79.7534 58.8259 79.7619 58.836 79.7724C58.8571 79.7944 58.8626 79.8135 58.8626 79.8134C58.8621 79.8114 58.8582 79.7951 58.8582 79.756H58.2582ZM68.2682 74.632C68.2682 74.6927 68.2497 74.7106 68.245 74.7149C68.2368 74.7226 68.2129 74.738 68.1622 74.738V75.338C68.3354 75.338 68.5146 75.2834 68.6533 75.1546C68.7956 75.0224 68.8682 74.8373 68.8682 74.632H68.2682ZM68.1622 74.738H56.9622V75.338H68.1622V74.738ZM56.9622 74.738C56.9114 74.738 56.8876 74.7226 56.8793 74.7149C56.8746 74.7106 56.8562 74.6927 56.8562 74.632H56.2562C56.2562 74.8373 56.3287 75.0224 56.471 75.1546C56.6098 75.2834 56.7889 75.338 56.9622 75.338V74.738ZM56.8562 74.632C56.8562 74.5713 56.8746 74.5534 56.8793 74.5491C56.8876 74.5414 56.9114 74.526 56.9622 74.526V73.926C56.7889 73.926 56.6098 73.9806 56.471 74.1094C56.3287 74.2416 56.2562 74.4267 56.2562 74.632H56.8562ZM56.9622 74.526H68.1622V73.926H56.9622V74.526ZM68.1622 74.526C68.2129 74.526 68.2368 74.5414 68.245 74.5491C68.2497 74.5534 68.2682 74.5713 68.2682 74.632H68.8682C68.8682 74.4267 68.7956 74.2416 68.6533 74.1094C68.5146 73.9806 68.3354 73.926 68.1622 73.926V74.526ZM57.9202 69.648C57.9202 69.5873 57.9386 69.5694 57.9433 69.5651C57.9516 69.5574 57.9754 69.542 58.0262 69.542V68.942C57.8529 68.942 57.6738 68.9966 57.535 69.1254C57.3927 69.2576 57.3202 69.4427 57.3202 69.648H57.9202ZM58.0262 69.542H66.4122V68.942H58.0262V69.542ZM66.4122 69.542C66.8085 69.542 66.9477 69.6604 67.0118 69.7582C67.0949 69.8851 67.1202 70.0759 67.1202 70.334H67.7202C67.7202 70.0741 67.7034 69.7189 67.5136 69.4293C67.3047 69.1106 66.9399 68.942 66.4122 68.942V69.542ZM67.1202 70.334V71.16H67.7202V70.334H67.1202ZM67.1202 71.16C67.1202 71.3191 67.1307 71.5466 67.1221 71.8226C67.1136 72.0952 67.0864 72.3711 67.0213 72.5843L67.5951 72.7597C67.6839 72.4689 67.7128 72.1288 67.7218 71.8414C67.7306 71.5574 67.7202 71.2809 67.7202 71.16H67.1202ZM67.0193 72.5911C66.9766 72.7436 66.9379 72.7753 66.9334 72.7785C66.9327 72.779 66.9287 72.7825 66.9125 72.7849C66.8933 72.7879 66.8598 72.7889 66.8046 72.781L66.7197 73.375C66.9011 73.4009 67.1057 73.3938 67.284 73.2655C67.4544 73.1427 67.5418 72.9504 67.5971 72.7529L67.0193 72.5911ZM66.8183 72.7833C66.7698 72.7741 66.7421 72.762 66.7276 72.7535C66.7149 72.7461 66.7118 72.7411 66.7106 72.7392C66.7078 72.7346 66.686 72.6943 66.7077 72.5694L66.1166 72.4666C66.0823 72.6637 66.0886 72.8754 66.2013 73.0563C66.318 73.2439 66.5089 73.3352 66.706 73.3727L66.8183 72.7833ZM66.7072 72.5726C66.7817 72.1702 66.8102 71.7024 66.8102 71.258H66.2102C66.2102 71.6816 66.1827 72.1098 66.1172 72.4634L66.7072 72.5726ZM66.8102 71.258V70.334H66.2102V71.258H66.8102ZM66.8102 70.334C66.8102 70.1981 66.7874 70.0296 66.6655 69.9024C66.5388 69.7702 66.3742 69.754 66.2722 69.754V70.354C66.2947 70.354 66.2973 70.3563 66.2891 70.3539C66.2841 70.3524 66.2753 70.3492 66.2646 70.343C66.2536 70.3366 66.2424 70.3281 66.2323 70.3176C66.2112 70.2956 66.2057 70.2765 66.2057 70.2766C66.2063 70.2786 66.2102 70.2949 66.2102 70.334H66.8102ZM66.2722 69.754H58.0262V70.354H66.2722V69.754ZM58.0262 69.754C57.9754 69.754 57.9516 69.7386 57.9433 69.7309C57.9386 69.7266 57.9202 69.7087 57.9202 69.648H57.3202C57.3202 69.8533 57.3927 70.0384 57.535 70.1706C57.6738 70.2994 57.8529 70.354 58.0262 70.354V69.754ZM80.0229 73.974V73.674H79.7229V73.974H80.0229ZM80.0229 73.162H79.7229V73.462H80.0229V73.162ZM75.8729 74.772C75.8729 75.3942 75.6681 75.815 75.3689 76.0834C75.0643 76.3565 74.6278 76.502 74.1149 76.502V77.102C74.736 77.102 75.3285 76.9255 75.7694 76.5301C76.2157 76.13 76.4729 75.5358 76.4729 74.772H75.8729ZM74.1149 76.502H71.9309V77.102H74.1149V76.502ZM71.9309 76.502C71.418 76.502 70.9815 76.3565 70.6769 76.0834C70.3777 75.815 70.1729 75.3942 70.1729 74.772H69.5729C69.5729 75.5358 69.8301 76.13 70.2764 76.5301C70.7173 76.9255 71.3098 77.102 71.9309 77.102V76.502ZM70.1729 74.772C70.1729 74.1397 70.389 73.715 70.6959 73.4449C71.0089 73.1694 71.4473 73.028 71.9309 73.028V72.428C71.3365 72.428 70.7459 72.6016 70.2994 72.9946C69.8468 73.393 69.5729 73.9903 69.5729 74.772H70.1729ZM71.9309 73.028H74.1149V72.428H71.9309V73.028ZM74.1149 73.028C74.5985 73.028 75.0369 73.1694 75.3499 73.4449C75.6568 73.715 75.8729 74.1397 75.8729 74.772H76.4729C76.4729 73.9903 76.199 73.393 75.7464 72.9946C75.2999 72.6016 74.7093 72.428 74.1149 72.428V73.028ZM70.8609 78.076V79.756H71.4609V78.076H70.8609ZM70.8609 79.756C70.8609 79.8919 70.8837 80.0604 71.0056 80.1876C71.1323 80.3198 71.2969 80.336 71.3989 80.336V79.736C71.3764 79.736 71.3737 79.7337 71.382 79.7361C71.387 79.7376 71.3958 79.7408 71.4065 79.747C71.4175 79.7534 71.4286 79.7619 71.4388 79.7724C71.4598 79.7944 71.4654 79.8135 71.4653 79.8134C71.4648 79.8114 71.4609 79.7951 71.4609 79.756H70.8609ZM71.3989 80.336H80.0369V79.736H71.3989V80.336ZM80.0369 80.336C80.0876 80.336 80.1115 80.3514 80.1198 80.3591C80.1245 80.3634 80.1429 80.3813 80.1429 80.442H80.7429C80.7429 80.2367 80.6704 80.0516 80.528 79.9194C80.3893 79.7906 80.2102 79.736 80.0369 79.736V80.336ZM80.1429 80.442C80.1429 80.5027 80.1245 80.5206 80.1198 80.5249C80.1115 80.5326 80.0876 80.548 80.0369 80.548V81.148C80.2102 81.148 80.3893 81.0934 80.528 80.9646C80.6704 80.8324 80.7429 80.6473 80.7429 80.442H80.1429ZM80.0369 80.548H71.2589V81.148H80.0369V80.548ZM71.2589 80.548C70.8626 80.548 70.7234 80.4296 70.6593 80.3318C70.5761 80.2049 70.5509 80.0141 70.5509 79.756H69.9509C69.9509 80.0159 69.9677 80.3711 70.1575 80.6607C70.3664 80.9794 70.7312 81.148 71.2589 81.148V80.548ZM70.5509 79.756V78.076H69.9509V79.756H70.5509ZM70.5509 78.076C70.5509 78.0043 70.5717 77.9877 70.5745 77.9852C70.5827 77.9779 70.6154 77.956 70.6989 77.956V77.356C70.5164 77.356 70.3251 77.4041 70.1758 77.5368C70.0211 77.6743 69.9509 77.8677 69.9509 78.076H70.5509ZM70.6989 77.956C70.7827 77.956 70.8219 77.9782 70.8352 77.9895C70.8414 77.9947 70.8463 78.0008 70.8504 78.0106C70.8549 78.0209 70.8609 78.0412 70.8609 78.076H71.4609C71.4609 77.8605 71.3823 77.6671 71.2241 77.5325C71.0729 77.4038 70.8811 77.356 70.6989 77.356V77.956ZM75.5629 74.772C75.5629 74.5257 75.5263 74.1394 75.284 73.8102C75.0287 73.4634 74.5915 73.24 73.9189 73.24V73.84C74.4503 73.84 74.6851 74.0086 74.8008 74.1658C74.9295 74.3406 74.9629 74.5703 74.9629 74.772H75.5629ZM73.9189 73.24H72.1269V73.84H73.9189V73.24ZM72.1269 73.24C71.4543 73.24 71.0171 73.4634 70.7618 73.8102C70.5195 74.1394 70.4829 74.5257 70.4829 74.772H71.0829C71.0829 74.5703 71.1163 74.3406 71.245 74.1658C71.3607 74.0086 71.5955 73.84 72.1269 73.84V73.24ZM70.4829 74.772C70.4829 75.0575 70.5313 75.444 70.7844 75.762C71.048 76.0933 71.4836 76.29 72.1269 76.29V75.69C71.6083 75.69 71.3718 75.5367 71.2539 75.3885C71.1255 75.227 71.0829 75.0045 71.0829 74.772H70.4829ZM72.1269 76.29H73.9189V75.69H72.1269V76.29ZM73.9189 76.29C74.5623 76.29 74.9978 76.0933 75.2614 75.762C75.5145 75.444 75.5629 75.0575 75.5629 74.772H74.9629C74.9629 75.0045 74.9203 75.227 74.7919 75.3885C74.674 75.5367 74.4376 75.69 73.9189 75.69V76.29ZM81.9909 73.568C81.9909 73.6287 81.9725 73.6466 81.9678 73.6509C81.9595 73.6586 81.9356 73.674 81.8849 73.674V74.274C82.0582 74.274 82.2373 74.2194 82.376 74.0906C82.5184 73.9584 82.5909 73.7733 82.5909 73.568H81.9909ZM81.8849 73.674H80.0229V74.274H81.8849V73.674ZM79.7229 73.974V77.054H80.3229V73.974H79.7229ZM79.7229 77.054C79.7229 77.0888 79.7169 77.1091 79.7124 77.1194C79.7083 77.1292 79.7034 77.1353 79.6972 77.1405C79.6839 77.1518 79.6447 77.174 79.5609 77.174V77.774C79.7431 77.774 79.9349 77.7262 80.0861 77.5975C80.2443 77.4629 80.3229 77.2695 80.3229 77.054H79.7229ZM79.5609 77.174C79.4774 77.174 79.4447 77.1521 79.4365 77.1448C79.4337 77.1423 79.4129 77.1257 79.4129 77.054H78.8129C78.8129 77.2623 78.8831 77.4557 79.0378 77.5932C79.1871 77.7259 79.3784 77.774 79.5609 77.774V77.174ZM79.4129 77.054V69.48H78.8129V77.054H79.4129ZM79.4129 69.48C79.4129 69.4083 79.4337 69.3917 79.4365 69.3892C79.4447 69.3819 79.4774 69.36 79.5609 69.36V68.76C79.3784 68.76 79.1871 68.8081 79.0378 68.9408C78.8831 69.0783 78.8129 69.2717 78.8129 69.48H79.4129ZM79.5609 69.36C79.6447 69.36 79.6839 69.3822 79.6972 69.3935C79.7034 69.3987 79.7083 69.4048 79.7124 69.4146C79.7169 69.4249 79.7229 69.4452 79.7229 69.48H80.3229C80.3229 69.2645 80.2443 69.0711 80.0861 68.9365C79.9349 68.8078 79.7431 68.76 79.5609 68.76V69.36ZM79.7229 69.48V73.162H80.3229V69.48H79.7229ZM80.0229 73.462H81.8849V72.862H80.0229V73.462ZM81.8849 73.462C81.9356 73.462 81.9595 73.4774 81.9678 73.4851C81.9725 73.4894 81.9909 73.5073 81.9909 73.568H82.5909C82.5909 73.3627 82.5184 73.1776 82.376 73.0454C82.2373 72.9166 82.0582 72.862 81.8849 72.862V73.462ZM76.3629 71.482C76.3629 71.5427 76.3445 71.5606 76.3398 71.5649C76.3315 71.5726 76.3076 71.588 76.2569 71.588V72.188C76.4302 72.188 76.6093 72.1334 76.748 72.0046C76.8904 71.8724 76.9629 71.6873 76.9629 71.482H76.3629ZM76.2569 71.588H69.7329V72.188H76.2569V71.588ZM69.7329 71.588C69.6822 71.588 69.6583 71.5726 69.65 71.5649C69.6454 71.5606 69.6269 71.5427 69.6269 71.482H69.0269C69.0269 71.6873 69.0995 71.8724 69.2418 72.0046C69.3805 72.1334 69.5596 72.188 69.7329 72.188V71.588ZM69.6269 71.482C69.6269 71.4213 69.6454 71.4034 69.65 71.3991C69.6583 71.3914 69.6822 71.376 69.7329 71.376V70.776C69.5596 70.776 69.3805 70.8306 69.2418 70.9594C69.0995 71.0916 69.0269 71.2767 69.0269 71.482H69.6269ZM69.7329 71.376H76.2569V70.776H69.7329V71.376ZM76.2569 71.376C76.3076 71.376 76.3315 71.3914 76.3398 71.3991C76.3445 71.4034 76.3629 71.4213 76.3629 71.482H76.9629C76.9629 71.2767 76.8904 71.0916 76.748 70.9594C76.6093 70.8306 76.4302 70.776 76.2569 70.776V71.376ZM75.1029 69.48C75.1029 69.5407 75.0845 69.5586 75.0798 69.5629C75.0715 69.5706 75.0476 69.586 74.9969 69.586V70.186C75.1702 70.186 75.3493 70.1314 75.488 70.0026C75.6304 69.8704 75.7029 69.6853 75.7029 69.48H75.1029ZM74.9969 69.586H70.9929V70.186H74.9969V69.586ZM70.9929 69.586C70.9422 69.586 70.9183 69.5706 70.91 69.5629C70.9054 69.5586 70.8869 69.5407 70.8869 69.48H70.2869C70.2869 69.6853 70.3595 69.8704 70.5018 70.0026C70.6405 70.1314 70.8196 70.186 70.9929 70.186V69.586ZM70.8869 69.48C70.8869 69.4193 70.9054 69.4014 70.91 69.3971C70.9183 69.3894 70.9422 69.374 70.9929 69.374V68.774C70.8196 68.774 70.6405 68.8286 70.5018 68.9574C70.3595 69.0896 70.2869 69.2747 70.2869 69.48H70.8869ZM70.9929 69.374H74.9969V68.774H70.9929V69.374ZM74.9969 69.374C75.0476 69.374 75.0715 69.3894 75.0798 69.3971C75.0845 69.4014 75.1029 69.4193 75.1029 69.48H75.7029C75.7029 69.2747 75.6304 69.0896 75.488 68.9574C75.3493 68.8286 75.1702 68.774 74.9969 68.774V69.374ZM90.1189 80.624L90.3896 80.7535L90.393 80.7458L90.1189 80.624ZM89.4329 80.89L89.2858 81.1515L89.2858 81.1515L89.4329 80.89ZM89.2649 80.246L89.536 80.3744L89.5383 80.3695L89.2649 80.246ZM93.9829 74.128V74.428H94.2829V74.128H93.9829ZM93.9829 74.94H94.2829V74.64H93.9829V74.94ZM86.8489 69.634C86.8489 69.5733 86.8673 69.5554 86.872 69.5511C86.8803 69.5434 86.9041 69.528 86.9549 69.528V68.928C86.7816 68.928 86.6025 68.9826 86.4637 69.1114C86.3214 69.2436 86.2489 69.4287 86.2489 69.634H86.8489ZM86.9549 69.528H90.0629V68.928H86.9549V69.528ZM90.0629 69.528C90.4592 69.528 90.5984 69.6464 90.6625 69.7442C90.7456 69.8711 90.7709 70.0619 90.7709 70.32H91.3709C91.3709 70.0601 91.3541 69.7049 91.1643 69.4153C90.9554 69.0966 90.5906 68.928 90.0629 68.928V69.528ZM90.7709 70.32V73.876H91.3709V70.32H90.7709ZM90.7709 73.876C90.7709 75.5573 90.7661 78.4291 89.8447 80.5022L90.393 80.7458C91.3757 78.5349 91.3709 75.5267 91.3709 73.876H90.7709ZM89.8482 80.4946C89.8023 80.5906 89.7456 80.6274 89.7061 80.6408C89.6641 80.655 89.6193 80.6507 89.58 80.6285L89.2858 81.1515C89.671 81.3682 90.1657 81.2214 90.3895 80.7534L89.8482 80.4946ZM89.58 80.6285C89.5341 80.6027 89.5153 80.5724 89.5076 80.5435C89.4991 80.5117 89.4978 80.4552 89.536 80.3744L88.9938 80.1176C88.906 80.3028 88.8766 80.5053 88.9277 80.6975C88.9795 80.8926 89.1077 81.0513 89.2858 81.1515L89.58 80.6285ZM89.5383 80.3695C90.4236 78.4101 90.4609 75.6818 90.4609 73.694H89.8609C89.8609 75.7102 89.8141 78.3019 88.9915 80.1225L89.5383 80.3695ZM90.4609 73.694V70.32H89.8609V73.694H90.4609ZM90.4609 70.32C90.4609 70.1841 90.4381 70.0156 90.3162 69.8884C90.1895 69.7562 90.0249 69.74 89.9229 69.74V70.34C89.9454 70.34 89.948 70.3423 89.9398 70.3399C89.9348 70.3384 89.926 70.3352 89.9153 70.329C89.9043 70.3226 89.8931 70.3141 89.883 70.3036C89.862 70.2816 89.8564 70.2625 89.8564 70.2626C89.857 70.2646 89.8609 70.2809 89.8609 70.32H90.4609ZM89.9229 69.74H86.9549V70.34H89.9229V69.74ZM86.9549 69.74C86.9041 69.74 86.8803 69.7246 86.872 69.7169C86.8673 69.7126 86.8489 69.6947 86.8489 69.634H86.2489C86.2489 69.8393 86.3214 70.0244 86.4637 70.1566C86.6025 70.2854 86.7816 70.34 86.9549 70.34V69.74ZM92.2109 74.534C92.2109 74.4733 92.2293 74.4554 92.234 74.4511C92.2423 74.4434 92.2661 74.428 92.3169 74.428V73.828C92.1436 73.828 91.9645 73.8826 91.8257 74.0114C91.6834 74.1436 91.6109 74.3287 91.6109 74.534H92.2109ZM92.3169 74.428H93.9829V73.828H92.3169V74.428ZM94.2829 74.128V69.48H93.6829V74.128H94.2829ZM94.2829 69.48C94.2829 69.4083 94.3037 69.3917 94.3064 69.3892C94.3147 69.3819 94.3474 69.36 94.4309 69.36V68.76C94.2484 68.76 94.0571 68.8081 93.9078 68.9408C93.7531 69.0783 93.6829 69.2717 93.6829 69.48H94.2829ZM94.4309 69.36C94.5147 69.36 94.5539 69.3822 94.5672 69.3935C94.5733 69.3987 94.5782 69.4048 94.5824 69.4146C94.5869 69.4249 94.5929 69.4452 94.5929 69.48H95.1929C95.1929 69.2645 95.1142 69.0711 94.9561 68.9365C94.8048 68.8078 94.6131 68.76 94.4309 68.76V69.36ZM94.5929 69.48V80.666H95.1929V69.48H94.5929ZM94.5929 80.666C94.5929 80.7008 94.5869 80.7211 94.5824 80.7314C94.5782 80.7412 94.5733 80.7473 94.5672 80.7525C94.5539 80.7638 94.5147 80.786 94.4309 80.786V81.386C94.6131 81.386 94.8048 81.3382 94.9561 81.2095C95.1142 81.0749 95.1929 80.8815 95.1929 80.666H94.5929ZM94.4309 80.786C94.3474 80.786 94.3147 80.7641 94.3064 80.7568C94.3037 80.7543 94.2829 80.7377 94.2829 80.666H93.6829C93.6829 80.8743 93.7531 81.0677 93.9078 81.2052C94.0571 81.3379 94.2484 81.386 94.4309 81.386V80.786ZM94.2829 80.666V74.94H93.6829V80.666H94.2829ZM93.9829 74.64H92.3169V75.24H93.9829V74.64ZM92.3169 74.64C92.2661 74.64 92.2423 74.6246 92.234 74.6169C92.2293 74.6126 92.2109 74.5947 92.2109 74.534H91.6109C91.6109 74.7393 91.6834 74.9244 91.8257 75.0566C91.9645 75.1854 92.1436 75.24 92.3169 75.24V74.64ZM96.8449 80.666V69.48H96.2449V80.666H96.8449ZM96.8449 69.48C96.8449 69.4083 96.8657 69.3917 96.8684 69.3892C96.8767 69.3819 96.9094 69.36 96.9929 69.36V68.76C96.8104 68.76 96.6191 68.8081 96.4698 68.9408C96.3151 69.0783 96.2449 69.2717 96.2449 69.48H96.8449ZM96.9929 69.36C97.0767 69.36 97.1159 69.3822 97.1292 69.3935C97.1353 69.3987 97.1402 69.4048 97.1444 69.4146C97.1489 69.4249 97.1549 69.4452 97.1549 69.48H97.7549C97.7549 69.2645 97.6762 69.0711 97.5181 68.9365C97.3668 68.8078 97.1751 68.76 96.9929 68.76V69.36ZM97.1549 69.48V80.666H97.7549V69.48H97.1549ZM97.1549 80.666C97.1549 80.7008 97.1489 80.7211 97.1444 80.7314C97.1402 80.7412 97.1353 80.7473 97.1292 80.7525C97.1159 80.7638 97.0767 80.786 96.9929 80.786V81.386C97.1751 81.386 97.3668 81.3382 97.5181 81.2095C97.6762 81.0749 97.7549 80.8815 97.7549 80.666H97.1549ZM96.9929 80.786C96.9094 80.786 96.8767 80.7641 96.8684 80.7568C96.8657 80.7543 96.8449 80.7377 96.8449 80.666H96.2449C96.2449 80.8743 96.3151 81.0677 96.4698 81.2052C96.6191 81.3379 96.8104 81.386 96.9929 81.386V80.786ZM114.397 79.91L114.289 80.19L114.293 80.1915L114.397 79.91ZM114.719 80.498L115.009 80.5743L115.009 80.5743L114.719 80.498ZM114.075 80.778L114.162 80.4909L114.154 80.4887L114.075 80.778ZM112.241 79.28L112.495 79.121L112.212 78.6674L111.973 79.1458L112.241 79.28ZM110.295 80.82L110.365 81.1117L110.365 81.1116L110.295 80.82ZM109.973 79.952L109.871 79.6696L109.869 79.6705L109.973 79.952ZM108.615 79.91L108.507 80.19L108.511 80.1915L108.615 79.91ZM108.937 80.498L109.227 80.5743L109.227 80.5743L108.937 80.498ZM108.293 80.778L108.38 80.4909L108.372 80.4887L108.293 80.778ZM106.459 79.28L106.713 79.121L106.43 78.6674L106.191 79.1458L106.459 79.28ZM104.513 80.82L104.583 81.1117L104.583 81.1116L104.513 80.82ZM104.191 79.952L104.089 79.6696L104.087 79.6705L104.191 79.952ZM113.549 74.898V69.48H112.949V74.898H113.549ZM113.549 69.48C113.549 69.4083 113.57 69.3917 113.572 69.3892C113.581 69.3819 113.613 69.36 113.697 69.36V68.76C113.514 68.76 113.323 68.8081 113.174 68.9408C113.019 69.0783 112.949 69.2717 112.949 69.48H113.549ZM113.697 69.36C113.781 69.36 113.82 69.3822 113.833 69.3935C113.839 69.3987 113.844 69.4048 113.848 69.4146C113.853 69.4249 113.859 69.4452 113.859 69.48H114.459C114.459 69.2645 114.38 69.0711 114.222 68.9365C114.071 68.8078 113.879 68.76 113.697 68.76V69.36ZM113.859 69.48V74.898H114.459V69.48H113.859ZM113.859 74.898C113.859 74.9328 113.853 74.9531 113.848 74.9634C113.844 74.9732 113.839 74.9793 113.833 74.9845C113.82 74.9958 113.781 75.018 113.697 75.018V75.618C113.879 75.618 114.071 75.5702 114.222 75.4415C114.38 75.3069 114.459 75.1135 114.459 74.898H113.859ZM113.697 75.018C113.613 75.018 113.581 74.9961 113.572 74.9888C113.57 74.9863 113.549 74.9697 113.549 74.898H112.949C112.949 75.1063 113.019 75.2997 113.174 75.4372C113.323 75.5699 113.514 75.618 113.697 75.618V75.018ZM103.805 72.924V71.538H103.205V72.924H103.805ZM103.805 71.538C103.805 70.948 104.045 70.4487 104.479 70.0914C104.918 69.7304 105.574 69.5 106.417 69.5V68.9C105.468 68.9 104.668 69.1596 104.098 69.6281C103.524 70.1003 103.205 70.77 103.205 71.538H103.805ZM106.417 69.5C107.254 69.5 107.917 69.7273 108.365 70.0881C108.808 70.445 109.057 70.9441 109.057 71.538H109.657C109.657 70.7599 109.324 70.09 108.742 69.6209C108.164 69.1557 107.358 68.9 106.417 68.9V69.5ZM109.057 71.538V72.924H109.657V71.538H109.057ZM109.057 72.924C109.057 73.5087 108.807 74.0046 108.361 74.3609C107.911 74.7209 107.246 74.948 106.417 74.948V75.548C107.351 75.548 108.157 75.2921 108.736 74.8296C109.319 74.3634 109.657 73.6973 109.657 72.924H109.057ZM106.417 74.948C105.574 74.948 104.918 74.7176 104.479 74.358C104.044 74.0019 103.805 73.5061 103.805 72.924H103.205C103.205 73.6859 103.525 74.3521 104.099 74.822C104.668 75.2884 105.468 75.548 106.417 75.548V74.948ZM104.115 71.93V72.532H104.715V71.93H104.115ZM104.115 72.532C104.115 73.3108 104.34 73.8848 104.782 74.2548C105.214 74.6159 105.798 74.736 106.417 74.736V74.136C105.86 74.136 105.443 74.0251 105.167 73.7947C104.903 73.5732 104.715 73.1952 104.715 72.532H104.115ZM106.417 74.736C107.064 74.736 107.656 74.6087 108.088 74.2432C108.529 73.8692 108.747 73.2954 108.747 72.532H108.147C108.147 73.1826 107.965 73.5608 107.7 73.7853C107.425 74.0183 107.001 74.136 106.417 74.136V74.736ZM108.747 72.532V71.93H108.147V72.532H108.747ZM108.747 71.93C108.747 71.1359 108.514 70.5575 108.063 70.1878C107.624 69.8279 107.034 69.712 106.417 69.712V70.312C106.976 70.312 107.4 70.4201 107.683 70.6517C107.953 70.8735 108.147 71.2541 108.147 71.93H108.747ZM106.417 69.712C105.788 69.712 105.204 69.8402 104.775 70.2076C104.336 70.5828 104.115 71.1589 104.115 71.93H104.715C104.715 71.2731 104.9 70.8902 105.165 70.6634C105.439 70.4288 105.855 70.312 106.417 70.312V69.712ZM112.347 76.634V77.278H112.947V76.634H112.347ZM112.347 77.278C112.347 77.8713 112.402 78.4472 112.688 78.9562C112.979 79.474 113.483 79.8793 114.289 80.1899L114.505 79.6301C113.785 79.3527 113.414 79.023 113.211 78.6623C113.004 78.2928 112.947 77.8467 112.947 77.278H112.347ZM114.293 80.1915C114.371 80.2201 114.406 80.2582 114.421 80.2859C114.436 80.312 114.447 80.354 114.429 80.4217L115.009 80.5743C115.061 80.376 115.044 80.173 114.947 79.9961C114.85 79.8208 114.689 79.6979 114.501 79.6285L114.293 80.1915ZM114.429 80.4217C114.415 80.4725 114.393 80.49 114.371 80.4997C114.341 80.5126 114.275 80.5252 114.162 80.491L113.987 81.065C114.197 81.1288 114.417 81.1344 114.612 81.0493C114.814 80.961 114.952 80.7895 115.009 80.5743L114.429 80.4217ZM114.154 80.4887C113.931 80.4273 113.615 80.249 113.294 79.9898C112.977 79.7338 112.683 79.4219 112.495 79.121L111.986 79.439C112.218 79.8101 112.562 80.1702 112.917 80.4567C113.268 80.74 113.659 80.9747 113.995 81.0673L114.154 80.4887ZM111.973 79.1458C111.849 79.3919 111.598 79.6966 111.271 79.9655C110.946 80.2337 110.573 80.4442 110.224 80.5284L110.365 81.1116C110.829 80.9998 111.282 80.7343 111.653 80.4285C112.023 80.1234 112.338 79.7561 112.509 79.4142L111.973 79.1458ZM110.225 80.5283C110.083 80.5622 110.013 80.5474 109.988 80.5362C109.977 80.5315 109.971 80.5265 109.966 80.5201C109.96 80.5127 109.95 80.4964 109.941 80.4637L109.361 80.6163C109.415 80.8236 109.542 80.9968 109.748 81.0863C109.939 81.1696 110.156 81.1618 110.365 81.1117L110.225 80.5283ZM109.941 80.4637C109.923 80.396 109.934 80.354 109.949 80.3279C109.964 80.3002 109.999 80.2621 110.077 80.2335L109.869 79.6705C109.681 79.7399 109.52 79.8628 109.423 80.0381C109.326 80.215 109.309 80.418 109.361 80.6163L109.941 80.4637ZM110.074 80.2344C110.942 79.9227 111.455 79.493 111.735 78.9527C112.008 78.4271 112.037 77.8394 112.037 77.278H111.437C111.437 77.8366 111.402 78.2919 111.203 78.6763C111.011 79.046 110.641 79.3933 109.871 79.6696L110.074 80.2344ZM112.037 77.278V76.634H111.437V77.278H112.037ZM112.037 76.634C112.037 76.5623 112.058 76.5457 112.06 76.5432C112.069 76.5359 112.101 76.514 112.185 76.514V75.914C112.002 75.914 111.811 75.9621 111.662 76.0948C111.507 76.2323 111.437 76.4257 111.437 76.634H112.037ZM112.185 76.514C112.269 76.514 112.308 76.5362 112.321 76.5475C112.327 76.5527 112.332 76.5588 112.336 76.5686C112.341 76.5789 112.347 76.5992 112.347 76.634H112.947C112.947 76.4185 112.868 76.2251 112.71 76.0905C112.559 75.9618 112.367 75.914 112.185 75.914V76.514ZM106.565 76.634V77.278H107.165V76.634H106.565ZM106.565 77.278C106.565 77.8713 106.62 78.4472 106.906 78.9562C107.197 79.474 107.701 79.8793 108.507 80.1899L108.723 79.6301C108.003 79.3527 107.632 79.023 107.429 78.6623C107.222 78.2928 107.165 77.8467 107.165 77.278H106.565ZM108.511 80.1915C108.589 80.2201 108.624 80.2582 108.639 80.2859C108.654 80.312 108.665 80.354 108.647 80.4217L109.227 80.5743C109.279 80.376 109.262 80.173 109.165 79.9961C109.068 79.8208 108.907 79.6979 108.719 79.6285L108.511 80.1915ZM108.647 80.4217C108.633 80.4725 108.611 80.49 108.589 80.4997C108.559 80.5126 108.493 80.5252 108.38 80.491L108.205 81.065C108.415 81.1288 108.635 81.1344 108.83 81.0493C109.032 80.961 109.17 80.7895 109.227 80.5743L108.647 80.4217ZM108.372 80.4887C108.149 80.4273 107.833 80.249 107.512 79.9898C107.195 79.7338 106.901 79.4219 106.713 79.121L106.204 79.439C106.436 79.8101 106.78 80.1702 107.135 80.4567C107.486 80.74 107.877 80.9747 108.213 81.0673L108.372 80.4887ZM106.191 79.1458C106.067 79.3919 105.816 79.6966 105.489 79.9655C105.164 80.2337 104.791 80.4442 104.442 80.5284L104.583 81.1116C105.047 80.9998 105.5 80.7343 105.871 80.4285C106.241 80.1234 106.556 79.7561 106.727 79.4142L106.191 79.1458ZM104.443 80.5283C104.301 80.5622 104.231 80.5474 104.206 80.5362C104.195 80.5315 104.189 80.5265 104.184 80.5201C104.178 80.5127 104.168 80.4964 104.159 80.4637L103.579 80.6163C103.633 80.8236 103.76 80.9968 103.966 81.0863C104.157 81.1696 104.374 81.1618 104.583 81.1117L104.443 80.5283ZM104.159 80.4637C104.141 80.396 104.152 80.354 104.167 80.3279C104.182 80.3002 104.217 80.2621 104.295 80.2335L104.087 79.6705C103.899 79.7399 103.738 79.8628 103.641 80.0381C103.544 80.215 103.527 80.418 103.579 80.6163L104.159 80.4637ZM104.292 80.2344C105.16 79.9227 105.673 79.493 105.953 78.9527C106.226 78.4271 106.255 77.8394 106.255 77.278H105.655C105.655 77.8366 105.62 78.2919 105.421 78.6763C105.229 79.046 104.859 79.3933 104.089 79.6696L104.292 80.2344ZM106.255 77.278V76.634H105.655V77.278H106.255ZM106.255 76.634C106.255 76.5623 106.276 76.5457 106.278 76.5432C106.287 76.5359 106.319 76.514 106.403 76.514V75.914C106.22 75.914 106.029 75.9621 105.88 76.0948C105.725 76.2323 105.655 76.4257 105.655 76.634H106.255ZM106.403 76.514C106.487 76.514 106.526 76.5362 106.539 76.5475C106.545 76.5527 106.55 76.5588 106.554 76.5686C106.559 76.5789 106.565 76.5992 106.565 76.634H107.165C107.165 76.4185 107.086 76.2251 106.928 76.0905C106.777 75.9618 106.585 75.914 106.403 75.914V76.514ZM126.356 74.128V74.428H126.656V74.128H126.356ZM126.356 74.94H126.656V74.64H126.356V74.94ZM117.038 78.356V71.664H116.438V78.356H117.038ZM117.038 71.664C117.038 71.0728 117.251 70.5374 117.654 70.1494C118.057 69.762 118.671 69.5 119.51 69.5V68.9C118.542 68.9 117.77 69.205 117.238 69.7171C116.707 70.2286 116.438 70.9252 116.438 71.664H117.038ZM119.51 69.5C120.328 69.5 120.951 69.7556 121.367 70.1424C121.782 70.5288 122.01 71.0637 122.01 71.664H122.61C122.61 70.9063 122.319 70.2092 121.775 69.7031C121.232 69.1974 120.455 68.9 119.51 68.9V69.5ZM122.01 71.664V78.356H122.61V71.664H122.01ZM122.01 78.356C122.01 78.9563 121.782 79.4912 121.367 79.8776C120.951 80.2644 120.328 80.52 119.51 80.52V81.12C120.455 81.12 121.232 80.8226 121.775 80.3169C122.319 79.8108 122.61 79.1137 122.61 78.356H122.01ZM119.51 80.52C118.671 80.52 118.057 80.258 117.654 79.8706C117.251 79.4826 117.038 78.9472 117.038 78.356H116.438C116.438 79.0948 116.707 79.7914 117.238 80.3029C117.77 80.815 118.542 81.12 119.51 81.12V80.52ZM117.348 72.056V77.964H117.948V72.056H117.348ZM117.348 77.964C117.348 78.7338 117.529 79.3342 117.922 79.7407C118.317 80.1491 118.875 80.308 119.51 80.308V79.708C118.968 79.708 118.595 79.5729 118.353 79.3233C118.11 79.0718 117.948 78.6502 117.948 77.964H117.348ZM119.51 80.308C120.15 80.308 120.714 80.1496 121.115 79.7424C121.514 79.3363 121.7 78.7352 121.7 77.964H121.1C121.1 78.6488 120.935 79.0697 120.687 79.3216C120.44 79.5724 120.059 79.708 119.51 79.708V80.308ZM121.7 77.964V72.056H121.1V77.964H121.7ZM121.7 72.056C121.7 71.2848 121.514 70.6837 121.115 70.2776C120.714 69.8704 120.15 69.712 119.51 69.712V70.312C120.059 70.312 120.44 70.4476 120.687 70.6984C120.935 70.9503 121.1 71.3712 121.1 72.056H121.7ZM119.51 69.712C118.875 69.712 118.317 69.8709 117.922 70.2793C117.529 70.6858 117.348 71.2862 117.348 72.056H117.948C117.948 71.3698 118.11 70.9482 118.353 70.6967C118.595 70.4471 118.968 70.312 119.51 70.312V69.712ZM123.828 74.534C123.828 74.4733 123.846 74.4554 123.851 74.4511C123.859 74.4434 123.883 74.428 123.934 74.428V73.828C123.76 73.828 123.581 73.8826 123.442 74.0114C123.3 74.1436 123.228 74.3287 123.228 74.534H123.828ZM123.934 74.428H126.356V73.828H123.934V74.428ZM126.656 74.128V69.48H126.056V74.128H126.656ZM126.656 69.48C126.656 69.4083 126.676 69.3917 126.679 69.3892C126.687 69.3819 126.72 69.36 126.804 69.36V68.76C126.621 68.76 126.43 68.8081 126.281 68.9408C126.126 69.0783 126.056 69.2717 126.056 69.48H126.656ZM126.804 69.36C126.887 69.36 126.927 69.3822 126.94 69.3935C126.946 69.3987 126.951 69.4048 126.955 69.4146C126.96 69.4249 126.966 69.4452 126.966 69.48H127.566C127.566 69.2645 127.487 69.0711 127.329 68.9365C127.178 68.8078 126.986 68.76 126.804 68.76V69.36ZM126.966 69.48V80.666H127.566V69.48H126.966ZM126.966 80.666C126.966 80.7008 126.96 80.7211 126.955 80.7314C126.951 80.7412 126.946 80.7473 126.94 80.7525C126.927 80.7638 126.887 80.786 126.804 80.786V81.386C126.986 81.386 127.178 81.3382 127.329 81.2095C127.487 81.0749 127.566 80.8815 127.566 80.666H126.966ZM126.804 80.786C126.72 80.786 126.687 80.7641 126.679 80.7568C126.676 80.7543 126.656 80.7377 126.656 80.666H126.056C126.056 80.8743 126.126 81.0677 126.281 81.2052C126.43 81.3379 126.621 81.386 126.804 81.386V80.786ZM126.656 80.666V74.94H126.056V80.666H126.656ZM126.356 74.64H123.934V75.24H126.356V74.64ZM123.934 74.64C123.883 74.64 123.859 74.6246 123.851 74.6169C123.846 74.6126 123.828 74.5947 123.828 74.534H123.228C123.228 74.7393 123.3 74.9244 123.442 75.0566C123.581 75.1854 123.76 75.24 123.934 75.24V74.64ZM134.016 74.618L134.193 74.8607L134.2 74.8552L134.016 74.618ZM133.19 74.142L133.348 74.3973L133.358 74.3905L133.19 74.142ZM130.544 70.81L130.748 71.0306L130.756 71.0221L130.544 70.81ZM129.886 70.866L130.056 70.6186L130.047 70.6129L129.886 70.866ZM129.83 70.236L130.072 70.4134L130.073 70.4125L129.83 70.236ZM135.746 71.636C135.746 72.9213 134.853 73.5904 133.833 74.3808L134.2 74.8552C135.168 74.1056 136.346 73.2627 136.346 71.636H135.746ZM133.84 74.3754C133.29 74.7751 132.966 75.0998 132.802 75.5045C132.644 75.8947 132.652 76.3271 132.652 76.858H133.252C133.252 76.2829 133.254 75.9873 133.358 75.73C133.457 75.4872 133.664 75.2449 134.193 74.8606L133.84 74.3754ZM132.652 76.858C132.652 76.8342 132.659 76.8256 132.655 76.8327C132.652 76.8387 132.644 76.8506 132.628 76.864C132.596 76.892 132.555 76.908 132.518 76.908V77.508C132.719 77.508 132.896 77.426 133.021 77.3175C133.138 77.2159 133.252 77.0526 133.252 76.858H132.652ZM132.518 76.908C132.427 76.908 132.38 76.8858 132.362 76.8709C132.354 76.8647 132.347 76.8572 132.342 76.8449C132.336 76.8316 132.328 76.8056 132.328 76.76H131.728C131.728 76.9973 131.815 77.2013 131.986 77.3386C132.146 77.4672 132.343 77.508 132.518 77.508V76.908ZM132.328 76.76C132.328 76.1039 132.398 75.6337 132.554 75.2705C132.706 74.9175 132.951 74.6432 133.348 74.3971L133.032 73.8869C132.548 74.1868 132.211 74.5495 132.003 75.033C131.799 75.5063 131.728 76.0721 131.728 76.76H132.328ZM133.358 74.3905C133.83 74.0714 134.351 73.7146 134.752 73.2935C135.156 72.868 135.464 72.3497 135.464 71.706H134.864C134.864 72.1403 134.661 72.518 134.317 72.88C133.968 73.2464 133.502 73.5686 133.022 73.8935L133.358 74.3905ZM135.464 71.706C135.464 71.0334 135.207 70.4871 134.704 70.1198C134.216 69.7631 133.532 69.6 132.714 69.6V70.2C133.465 70.2 134.005 70.3519 134.35 70.6042C134.681 70.8459 134.864 71.2026 134.864 71.706H135.464ZM132.714 69.6C132.063 69.6 131.594 69.7114 131.215 69.9038C130.841 70.094 130.577 70.3534 130.332 70.5979L130.756 71.0221C131.002 70.7766 131.207 70.581 131.487 70.4387C131.763 70.2986 132.134 70.2 132.714 70.2V69.6ZM130.341 70.5896C130.248 70.6752 130.15 70.6833 130.056 70.6188L129.716 71.1132C130.071 71.3567 130.477 71.2808 130.748 71.0304L130.341 70.5896ZM130.047 70.6129C130.064 70.6234 130.064 70.6303 130.057 70.6177C130.051 70.6061 130.044 70.5856 130.041 70.5579C130.034 70.4996 130.048 70.4462 130.072 70.4134L129.588 70.0586C129.458 70.2358 129.424 70.4484 129.445 70.6281C129.465 70.7974 129.544 71.0038 129.725 71.1191L130.047 70.6129ZM130.073 70.4125C130.448 69.8969 131.322 69.388 132.784 69.388V68.788C131.195 68.788 130.109 69.3431 129.588 70.0595L130.073 70.4125ZM132.784 69.388C133.874 69.388 134.611 69.6751 135.072 70.0827C135.531 70.4881 135.746 71.0393 135.746 71.636H136.346C136.346 70.8887 136.072 70.1659 135.47 69.6333C134.87 69.1029 133.976 68.788 132.784 68.788V69.388ZM132.104 79.588C132.104 79.3897 132.162 79.2951 132.211 79.2479C132.265 79.1975 132.354 79.16 132.49 79.16V78.56C132.248 78.56 131.995 78.6275 131.8 78.8116C131.601 78.9989 131.504 79.2683 131.504 79.588H132.104ZM132.49 79.16C132.636 79.16 132.729 79.1988 132.783 79.2494C132.833 79.2961 132.89 79.3897 132.89 79.588H133.49C133.49 79.2683 133.393 78.9979 133.192 78.8101C132.994 78.6262 132.737 78.56 132.49 78.56V79.16ZM132.89 79.588C132.89 79.7674 132.836 79.8539 132.786 79.8991C132.731 79.949 132.636 79.988 132.49 79.988V80.588C132.737 80.588 132.992 80.522 133.188 80.3444C133.39 80.1621 133.49 79.8986 133.49 79.588H132.89ZM132.49 79.988C132.354 79.988 132.263 79.9503 132.208 79.9005C132.158 79.855 132.104 79.7674 132.104 79.588H131.504C131.504 79.8986 131.604 80.161 131.803 80.343C131.997 80.5207 132.249 80.588 132.49 80.588V79.988Z" fill="white" mask="url(#path-3-outside-1_338_9096)"/>
<path d="M2.472 117.12C1.92 117.144 1.296 116.976 0.912 116.328C0.264 115.296 0.672 114.36 1.704 113.616C4.296 111.792 5.016 109.944 5.016 107.256V99.048C5.016 97.392 6 96.96 7.008 96.96C8.016 96.96 9 97.392 9 99.048V107.256C9 109.896 9.744 111.648 12.312 113.448C13.344 114.192 13.752 115.128 13.104 116.16C12.744 116.712 12.24 116.976 11.664 117C11.304 117 10.92 116.952 10.56 116.688C9.12 115.656 7.992 114.456 7.152 113.112C6.312 114.552 5.256 115.8 3.912 116.664C3.48 116.928 3 117.096 2.472 117.12ZM17.016 117.552C15.936 117.552 15.072 117.048 15.072 115.44V99.048C15.072 97.44 15.984 96.96 17.016 96.96C18.024 96.96 18.96 97.392 18.96 99.048V104.808H20.472C22.296 104.808 22.656 105.72 22.656 106.488C22.656 107.448 22.296 108.216 20.472 108.216H18.96V115.44C18.96 117.096 18.048 117.552 17.016 117.552ZM25.0367 109.68C24.4847 109.704 23.8607 109.536 23.4767 108.888C22.8287 107.856 23.2367 106.92 24.2687 106.176C26.6207 104.52 27.3887 103.2 27.4607 100.704V100.656H25.6367C23.8847 100.656 23.4527 99.864 23.4527 99.024C23.4527 98.04 23.8847 97.344 25.6367 97.344H32.8847C34.6367 97.344 35.0687 98.04 35.0687 99.024C35.0687 99.864 34.6367 100.656 32.8847 100.656H31.4447V100.704C31.5167 103.104 31.9247 104.328 34.4207 106.104C35.4527 106.848 35.8607 107.784 35.2127 108.816C34.8527 109.368 34.3487 109.632 33.7727 109.656C33.4127 109.656 33.0287 109.608 32.6687 109.344C31.2527 108.264 30.2687 107.28 29.5007 106.248C28.7327 107.328 27.7247 108.336 26.4767 109.224C26.0927 109.512 25.5407 109.656 25.0367 109.68ZM40.9727 117.816H26.3807C24.6287 117.816 24.4367 117.096 24.4367 116.136V112.608C24.4367 111 25.3487 110.52 26.3807 110.52C27.3887 110.52 28.3247 110.952 28.3247 112.608V114.504H40.9727C42.7247 114.504 43.1567 115.296 43.1567 116.136C43.1567 117.12 42.7247 117.816 40.9727 117.816ZM40.5887 110.76C39.5087 110.76 38.6447 110.256 38.6447 108.648V99.048C38.6447 97.44 39.5567 96.96 40.5887 96.96C41.5967 96.96 42.5327 97.392 42.5327 99.048V108.648C42.5327 110.304 41.6207 110.76 40.5887 110.76ZM63.2254 118.032H49.1374C47.2894 118.032 47.1934 117.216 47.1934 116.328V113.016C47.1934 112.368 47.4094 111.744 49.0174 111.744H60.9934V110.904H48.8014C47.4574 110.904 47.1214 110.352 47.1214 109.56C47.1214 108.912 47.4574 108.24 48.8014 108.24H63.0814C64.6654 108.24 64.8814 108.96 64.8814 109.608V113.088C64.8814 113.856 64.5934 114.336 63.0574 114.336H51.0814V115.344H63.2254C65.0494 115.344 65.4094 115.92 65.4094 116.688C65.4094 117.576 65.0494 118.032 63.2254 118.032ZM65.0014 107.256H47.0734C45.9454 107.256 45.4894 106.896 45.4894 106.032C45.4894 105.336 45.9454 104.832 47.0734 104.832H65.0014C66.1294 104.832 66.5854 105.336 66.5854 106.032C66.5854 106.896 66.1294 107.256 65.0014 107.256ZM60.6094 103.8H51.4654C48.1534 103.8 46.9294 102.792 46.9294 100.944V100.296C46.9294 98.496 48.3934 97.2 51.5614 97.2H60.2494C63.4414 97.2 65.1214 98.472 65.1214 100.296V100.944C65.1214 102.816 63.8974 103.8 60.6094 103.8ZM52.8334 101.184H59.2174C59.9134 101.184 60.4414 101.136 60.8014 101.064C61.1374 100.992 61.3054 100.824 61.3054 100.56V100.44C61.3054 100.176 61.1374 99.984 60.8014 99.912C60.4414 99.84 59.8894 99.816 59.1454 99.816H52.9054C52.1614 99.816 51.6094 99.84 51.2734 99.912C50.9134 99.984 50.7454 100.176 50.7454 100.44V100.56C50.7454 100.824 50.9134 100.992 51.2734 101.064C51.6094 101.136 52.1374 101.184 52.8334 101.184ZM81.3214 108.312C80.8174 108.336 80.3374 108.216 79.9534 107.616C79.5934 107.064 79.5694 106.392 80.4574 105.504C80.9134 105.048 81.4174 104.496 81.7774 103.896C82.3774 102.936 82.3294 102.264 82.3294 101.52V100.464H80.2414V101.088C80.2414 102.432 80.1454 103.44 79.4734 104.76C78.8974 105.912 77.6014 107.232 76.6414 107.904C76.2814 108.168 75.8494 108.264 75.3694 108.216C74.8894 108.192 74.3614 107.928 74.0734 107.28C73.7134 106.416 73.9294 105.768 74.5774 105.216C75.2494 104.616 75.6814 104.256 76.0894 103.608C76.6174 102.768 76.6894 102.288 76.6894 100.536V100.464H76.4254C74.6014 100.464 74.2414 99.696 74.2414 98.928C74.2414 97.968 74.6014 97.344 76.4254 97.344H86.1934C88.0174 97.344 88.3774 97.968 88.3774 98.928C88.3774 99.696 88.0174 100.464 86.1934 100.464H85.8814V101.928C85.8814 102.6 86.0494 103.344 86.6254 103.968C86.9134 104.28 87.2494 104.616 87.6574 105C88.5214 105.816 89.0494 106.416 88.4014 107.448C87.8254 108.384 86.7694 108.432 85.8334 107.64C85.1614 107.064 84.7774 106.416 84.3214 105.72C83.8654 106.56 83.0974 107.448 82.5454 107.856C82.1854 108.144 81.7774 108.288 81.3214 108.312ZM92.5054 117.816C91.4734 117.816 90.5614 117.336 90.5614 115.728V112.944H78.5374C76.7854 112.944 76.3534 112.152 76.3534 111.312C76.3534 110.328 76.7854 109.632 78.5374 109.632H92.6494C94.4254 109.632 94.4494 110.328 94.4494 111.312V115.728C94.4494 117.384 93.5134 117.816 92.5054 117.816ZM92.6734 108.6C91.6414 108.6 90.8014 108.144 90.8014 106.488V99.048C90.8014 97.44 91.6414 96.96 92.6734 96.96C93.6574 96.96 94.4494 97.44 94.4494 99.048V106.488C94.4494 108.144 93.7054 108.6 92.6734 108.6ZM102.95 117.312C99.3021 117.312 98.0541 115.632 97.8621 112.488C97.8141 111.96 97.8141 110.064 97.8141 107.208C97.8141 104.352 97.8141 102.456 97.8621 101.952C98.0541 98.808 99.2061 97.032 102.95 97.032C106.454 97.032 107.846 98.784 108.038 101.952C108.038 102.336 108.014 104.088 108.086 107.232C108.11 110.4 108.038 112.152 108.038 112.488C107.966 115.728 106.574 117.312 102.95 117.312ZM102.95 114.048C103.526 114.048 104.078 113.88 104.15 112.488C104.15 112.344 104.15 111.984 104.174 111.432C104.174 110.88 104.174 110.256 104.174 109.512V104.784C104.174 104.04 104.174 103.392 104.174 102.864C104.15 102.336 104.15 102 104.15 101.856C104.15 100.488 103.478 100.32 102.95 100.32C102.374 100.32 101.822 100.632 101.75 101.928C101.702 102.456 101.702 104.352 101.702 107.232C101.702 110.112 101.678 112.008 101.75 112.488C101.75 114 102.398 114.048 102.95 114.048ZM114.782 117.552C113.702 117.552 112.838 117.048 112.838 115.44V108.024H110.894C109.142 108.024 108.806 107.328 108.806 106.344C108.806 105.48 109.166 104.712 110.894 104.712H112.838V99.048C112.838 97.44 113.75 96.96 114.782 96.96C115.79 96.96 116.726 97.392 116.726 99.048V115.44C116.726 117.096 115.814 117.552 114.782 117.552ZM120.403 117.12C119.851 117.144 119.227 116.976 118.843 116.328C118.195 115.296 118.603 114.36 119.635 113.616C122.227 111.792 122.947 109.944 122.947 107.256V99.048C122.947 97.392 123.931 96.96 124.939 96.96C125.947 96.96 126.931 97.392 126.931 99.048V107.256C126.931 109.896 127.675 111.648 130.243 113.448C131.275 114.192 131.683 115.128 131.035 116.16C130.675 116.712 130.171 116.976 129.595 117C129.235 117 128.851 116.952 128.491 116.688C127.051 115.656 125.923 114.456 125.083 113.112C124.243 114.552 123.187 115.8 121.843 116.664C121.411 116.928 120.931 117.096 120.403 117.12ZM136.699 117.552C135.619 117.552 134.755 117.048 134.755 115.44V107.712H131.851C130.099 107.712 129.763 107.016 129.763 106.032C129.763 105.168 130.123 104.4 131.851 104.4H134.755V99.048C134.755 97.44 135.667 96.96 136.699 96.96C137.707 96.96 138.643 97.392 138.643 99.048V115.44C138.643 117.096 137.731 117.552 136.699 117.552ZM18.576 153.032H4.488C2.64 153.032 2.544 152.264 2.544 151.376V148.184C2.544 147.536 2.76 146.912 4.368 146.912H16.344V146.048H4.152C2.808 146.048 2.472 145.544 2.472 144.752C2.472 144.104 2.808 143.48 4.152 143.48H9.456V142.28H2.424C1.296 142.28 0.84 141.872 0.84 141.008C0.84 140.312 1.296 139.76 2.424 139.76H20.352C21.48 139.76 21.936 140.312 21.936 141.008C21.936 141.872 21.48 142.28 20.352 142.28H13.344V143.48H18.432C19.92 143.48 20.232 144.104 20.232 144.8V148.184C20.232 148.952 19.944 149.432 18.408 149.432H6.432V150.44H18.576C20.4 150.44 20.76 150.968 20.76 151.736C20.76 152.672 20.328 153.032 18.576 153.032ZM18.432 138.752H4.344C2.664 138.752 2.52 137.864 2.52 136.952V134.288C2.52 132.68 3.432 132.2 4.464 132.2H18.312C19.32 132.2 20.256 132.632 20.256 134.288V136.952C20.256 137.864 20.112 138.752 18.432 138.752ZM6.408 136.088H16.368V134.864H6.408V136.088ZM29.2607 152.312C25.6127 152.312 24.3647 150.632 24.1727 147.488C24.1247 146.96 24.1247 145.064 24.1247 142.208C24.1247 139.352 24.1247 137.456 24.1727 136.952C24.3647 133.808 25.5167 132.032 29.2607 132.032C32.7647 132.032 34.1567 133.784 34.3487 136.952C34.3487 137.336 34.3247 139.088 34.3967 142.232C34.4207 145.4 34.3487 147.152 34.3487 147.488C34.2767 150.728 32.8847 152.312 29.2607 152.312ZM29.2607 149.048C29.8367 149.048 30.3887 148.88 30.4607 147.488C30.4607 147.344 30.4607 146.984 30.4847 146.432C30.4847 145.88 30.4847 145.256 30.4847 144.512V139.784C30.4847 139.04 30.4847 138.392 30.4847 137.864C30.4607 137.336 30.4607 137 30.4607 136.856C30.4607 135.488 29.7887 135.32 29.2607 135.32C28.6847 135.32 28.1327 135.632 28.0607 136.928C28.0127 137.456 28.0127 139.352 28.0127 142.232C28.0127 145.112 27.9887 147.008 28.0607 147.488C28.0607 149 28.7087 149.048 29.2607 149.048ZM41.0927 152.552C40.0127 152.552 39.1487 152.048 39.1487 150.44V143.024H37.2047C35.4527 143.024 35.1167 142.328 35.1167 141.344C35.1167 140.48 35.4767 139.712 37.2047 139.712H39.1487V134.048C39.1487 132.44 40.0607 131.96 41.0927 131.96C42.1007 131.96 43.0367 132.392 43.0367 134.048V150.44C43.0367 152.096 42.1247 152.552 41.0927 152.552ZM64.3774 152.264H47.6974C45.9454 152.264 45.5134 151.472 45.5134 150.632C45.5134 149.648 45.9454 148.952 47.6974 148.952H54.1054V144.488H49.1134C47.3614 144.488 47.1694 143.768 47.1694 142.808V134.288C47.1694 132.68 48.0334 132.2 49.0654 132.2C50.1454 132.2 51.0814 132.704 51.0814 134.288V135.752H60.9694V134.288C60.9694 132.704 61.9054 132.2 62.9854 132.2C64.0174 132.2 64.8814 132.704 64.8814 134.288V142.808C64.8814 143.768 64.6894 144.488 62.9374 144.488H57.9934V148.952H64.3774C66.1294 148.952 66.5614 149.648 66.5614 150.632C66.5614 151.472 66.1294 152.264 64.3774 152.264ZM51.0814 141.32H60.9694V138.92H51.0814V141.32ZM69.3981 152.12C68.8461 152.144 68.2221 151.976 67.8381 151.328C67.1901 150.296 67.5981 149.36 68.6301 148.616C71.1501 146.84 71.9901 144.968 71.9901 142.256V135.656H70.1181C68.3661 135.656 67.9341 134.864 67.9341 134.024C67.9341 133.04 68.3661 132.344 70.1181 132.344H77.3661C79.1181 132.344 79.5501 133.04 79.5501 134.024C79.5501 134.864 79.1181 135.656 77.3661 135.656H75.9741V142.256C75.9741 144.992 76.8381 146.696 79.3341 148.448C80.3661 149.192 80.7741 150.128 80.1261 151.16C79.7661 151.712 79.2621 151.976 78.6861 152C78.3261 152 77.9421 151.952 77.5821 151.688C76.1181 150.656 74.9901 149.384 74.1261 148.04C73.2861 149.504 72.2061 150.8 70.8381 151.664C70.4061 151.928 69.9261 152.096 69.3981 152.12ZM83.9901 152.552C82.9101 152.552 82.0461 152.048 82.0461 150.44V134.048C82.0461 132.44 82.9581 131.96 83.9901 131.96C84.9981 131.96 85.9341 132.392 85.9341 134.048V139.808H87.4461C89.2701 139.808 89.6301 140.72 89.6301 141.488C89.6301 142.448 89.2701 143.216 87.4461 143.216H85.9341V150.44C85.9341 152.096 85.0221 152.552 83.9901 152.552ZM94.9148 134.36L94.5068 144.848C94.4828 145.832 93.4268 146.288 92.7548 146.288C91.7708 146.288 90.9788 145.832 90.9548 144.848L90.5948 134.36C90.5708 133.352 91.2188 132.464 92.7548 132.464C94.1948 132.464 94.9148 133.352 94.9148 134.36ZM90.4028 149.432C90.4028 148.112 91.4588 147.368 92.7788 147.368C94.0988 147.368 95.1788 148.112 95.1788 149.432C95.1788 150.752 94.0988 151.472 92.7788 151.472C91.4588 151.472 90.4028 150.752 90.4028 149.432Z" fill="white"/>
<g clip-path="url(#clip0_338_9096)">
<path d="M255.352 94.7266C250.223 122.801 250.682 157.504 252.41 188.386" stroke="#FFE4A1" stroke-width="66.4069"/>
<path d="M274.127 106.256C275.333 100.791 280.069 86.0373 289.365 70.7485" stroke="#FFE4A1" stroke-width="24.2952"/>
<path d="M276.138 98.7751C277.343 93.3096 280.069 86.0373 289.365 70.7485" stroke="#FEBC2E" stroke-width="10.7979"/>
<path d="M233.763 96.5881C234.428 91.0308 237.698 75.885 245.455 59.7603" stroke="#FFE4A1" stroke-width="24.2952"/>
<path d="M257.512 95.2559C256.455 97.4603 254.999 100.052 252.917 105.946" stroke="#FEBC2E" stroke-width="2.69947"/>
<path d="M250.495 94.1743C249.438 96.3787 247.982 98.9706 245.9 104.865" stroke="#FEBC2E" stroke-width="2.69947"/>
<path d="M225.117 133.598C198.392 123.88 166.916 129.926 197.582 77.4487" stroke="#FFE4A1" stroke-width="15.117"/>
<ellipse cx="2.42952" cy="2.15957" rx="2.42952" ry="2.15957" transform="matrix(-1.31134e-07 -1 -1 1.31134e-07 237.521 111.754)" fill="#002B53"/>
<ellipse cx="2.42952" cy="2.15957" rx="2.42952" ry="2.15957" transform="matrix(-1.31134e-07 -1 -1 1.31134e-07 264.53 115.242)" fill="#002B53"/>
<ellipse cx="6.20878" cy="5.39893" rx="6.20878" ry="5.39893" transform="matrix(-1.31134e-07 -1 -1 1.31134e-07 273.168 127.66)" fill="#FEBC2E"/>
<ellipse cx="6.20878" cy="5.39893" rx="6.20878" ry="5.39893" transform="matrix(-1.31134e-07 -1 -1 1.31134e-07 233.214 124.959)" fill="#FEBC2E"/>
<path d="M234.576 89.1457C235.362 83.6042 237.527 76.1458 245.634 60.1943" stroke="#FEBC2E" stroke-width="10.7979"/>
<path d="M199.373 84.4963C200.542 82.3367 203.26 78.1255 205.851 74.2383" stroke="#FFE4A1" stroke-width="4.85904"/>
<path d="M197.583 77.4487C196.953 78.4385 195.531 80.904 194.883 82.8477" stroke="#FA8D26" stroke-width="2.15957"/>
<path d="M193.803 75.291C193.173 76.2808 191.751 78.7463 191.103 80.6899" stroke="#FA8D26" stroke-width="2.15957"/>
<path d="M237.515 118.663L257.003 120.321C258.071 120.411 258.756 121.507 258.348 122.498C253.609 133.995 249.985 131.814 245.632 131.814C238.886 131.814 236.818 125.313 235.799 120.586C235.572 119.533 236.443 118.572 237.515 118.663Z" fill="#FA8D26" stroke="#FA8D26" stroke-width="0.539894" stroke-linejoin="round"/>
<path d="M251.395 170.197C256.762 173.456 271.521 177.672 282.446 175.372" stroke="#FEBC2E" stroke-width="2.70245" stroke-linecap="square"/>
<path d="M253.122 151.223C258.488 154.481 270.947 160.422 281.871 158.123" stroke="#FEBC2E" stroke-width="2.70245" stroke-linecap="square"/>
<path d="M246.221 156.972C272.671 177.672 328.444 162.147 277.213 140.014" stroke="#FFE4A1" stroke-width="15.117"/>
<path d="M213.446 36.7744C216.13 37.3494 222.531 39.1894 226.671 41.9493" stroke="#C7B5FF" stroke-width="9.19983" stroke-linecap="square"/>
<path d="M301.994 118.508C304.312 117.039 310.171 113.871 315.059 112.942" stroke="#987DF9" stroke-width="9.19983" stroke-linecap="square"/>
<path d="M169.747 27.6099C172.065 26.1415 177.924 22.9727 182.812 22.0443" stroke="#704FE6" stroke-width="9.19983" stroke-linecap="square"/>
<path d="M176.639 154.802C178.983 156.229 184.42 160.076 187.419 164.046" stroke="#704FE6" stroke-width="9.19983" stroke-linecap="square"/>
<path d="M293.944 22.9097C296.263 21.4413 302.121 18.2725 307.009 17.3441" stroke="#C7B5FF" stroke-width="9.19983" stroke-linecap="square"/>
<path d="M316 69C318.522 70.0829 324.447 73.1257 327.975 76.6339" stroke="#704FE6" stroke-width="9.19983" stroke-linecap="square"/>
<path d="M266.218 29.8496C267.07 32.4581 268.699 38.9165 268.396 43.8828" stroke="#704FE6" stroke-width="9.19983" stroke-linecap="square"/>
<rect x="236" y="136" width="14" height="14" rx="3" fill="#4223B2"/>
<rect x="208" y="141" width="47" height="31" rx="4" fill="#502BD5"/>
<rect x="208" y="141" width="43" height="27" rx="4" fill="#8463FD"/>
<circle cx="225" cy="155" r="8.5" fill="#E2DAFC" stroke="#4223B2" stroke-width="3"/>
</g>
<defs>
<clipPath id="clip0_338_9096">
<rect width="181" height="183" fill="white" transform="matrix(-1 0 0 1 342 0)"/>
</clipPath>
</defs>
</svg>
