<svg width="342" height="87" viewBox="0 0 342 87" fill="none" xmlns="http://www.w3.org/2000/svg">
<rect width="342" height="87" rx="21" fill="#704FE6"/>
<path d="M92.406 53.128H76.421C74.742 53.128 74.328 52.369 74.328 51.564C74.328 50.621 74.742 49.954 76.421 49.954H82.562V45.308H77.663C76.053 45.308 75.915 44.457 75.915 43.583V35.901C75.915 34.36 76.789 33.9 77.778 33.9H91.049C92.015 33.9 92.912 34.314 92.912 35.901V43.583C92.912 44.457 92.774 45.308 91.164 45.308H86.288V49.954H92.406C94.085 49.954 94.499 50.621 94.499 51.564C94.499 52.369 94.085 53.128 92.406 53.128ZM79.641 42.111H89.186V37.097H79.641V42.111ZM101.541 53.174C98.0455 53.174 96.8495 51.564 96.6655 48.551C96.6195 48.045 96.6195 46.228 96.6195 43.491C96.6195 40.754 96.6195 38.937 96.6655 38.454C96.8495 35.441 97.9535 33.739 101.541 33.739C104.899 33.739 106.233 35.418 106.417 38.454C106.417 38.822 106.394 40.501 106.463 43.514C106.486 46.55 106.417 48.229 106.417 48.551C106.348 51.656 105.014 53.174 101.541 53.174ZM101.541 50.046C102.093 50.046 102.622 49.885 102.691 48.551C102.691 48.413 102.691 48.068 102.714 47.539C102.714 47.01 102.714 46.412 102.714 45.699V41.168C102.714 40.455 102.714 39.834 102.714 39.328C102.691 38.822 102.691 38.5 102.691 38.362C102.691 37.051 102.047 36.89 101.541 36.89C100.989 36.89 100.46 37.189 100.391 38.431C100.345 38.937 100.345 40.754 100.345 43.514C100.345 46.274 100.322 48.091 100.391 48.551C100.391 50 101.012 50.046 101.541 50.046ZM111.201 53.404C110.166 53.404 109.338 52.921 109.338 51.38V35.671C109.338 34.13 110.212 33.67 111.201 33.67C112.167 33.67 113.064 34.084 113.064 35.671V37.879H114.513C116.192 37.879 116.606 38.638 116.606 39.443C116.606 40.386 116.192 41.053 114.513 41.053H113.064V45.032H114.513C116.192 45.032 116.606 45.791 116.606 46.596C116.606 47.539 116.192 48.206 114.513 48.206H113.064V51.38C113.064 52.967 112.19 53.404 111.201 53.404ZM131.17 53.358L122.545 51.817C119.831 51.265 117.922 49.632 117.853 46.55C117.83 45.446 117.807 44.342 117.807 43.238C117.807 42.157 117.83 41.03 117.853 39.88C117.922 35.901 120.912 34.452 124.868 34.452C128.709 34.452 131.676 36.062 131.86 39.88C131.952 42.088 131.929 44.457 131.86 46.55C131.837 48.229 131.17 49.356 129.767 50.299L131.883 50.667C133.171 50.92 133.585 51.564 133.424 52.415C133.24 53.404 132.435 53.611 131.17 53.358ZM128.042 39.88C127.973 38.109 126.777 37.281 124.868 37.281C122.867 37.281 121.763 38.132 121.694 39.903C121.648 42.134 121.648 44.342 121.694 46.55C121.763 48.367 122.867 49.149 124.868 49.149C126.731 49.149 127.927 48.275 128.042 46.527C128.203 44.342 128.111 42.203 128.042 39.88ZM147.131 53.404C146.257 53.404 145.498 52.944 145.498 51.38V44.135H143.083V46.987C143.083 47.378 143.083 47.723 143.083 47.999C143.06 48.275 143.06 48.459 143.06 48.551C142.991 51.564 141.956 53.059 138.667 53.059C135.378 53.059 134.458 51.633 134.274 48.551C134.228 48.045 134.228 46.228 134.228 43.491C134.228 40.754 134.228 38.937 134.274 38.454C134.458 35.418 135.263 33.854 138.667 33.854C141.818 33.854 142.876 35.326 143.06 38.454C143.06 38.569 143.06 38.868 143.083 39.305C143.083 39.765 143.083 40.317 143.083 40.961H145.498V35.671C145.498 34.13 146.28 33.67 147.131 33.67C147.959 33.67 148.741 34.13 148.741 35.671V51.38C148.741 52.944 147.982 53.404 147.131 53.404ZM138.667 50.092C139.196 50.092 139.541 49.908 139.587 48.597C139.61 48.436 139.61 48.114 139.61 47.585V41.145C139.61 40.432 139.61 39.811 139.61 39.282C139.587 38.776 139.587 38.454 139.587 38.316C139.518 37.074 139.242 36.844 138.667 36.844C138.115 36.844 137.816 37.143 137.747 38.385C137.724 38.523 137.724 38.845 137.724 39.374C137.724 41.329 137.724 43.468 137.724 45.791C137.724 46.504 137.724 47.102 137.724 47.631C137.724 48.16 137.724 48.482 137.747 48.597C137.747 49.931 138.092 50.092 138.667 50.092ZM152.053 53.404C151.179 53.404 150.42 52.944 150.42 51.38V35.671C150.42 34.13 151.202 33.67 152.053 33.67C152.881 33.67 153.663 34.13 153.663 35.671V51.38C153.663 52.944 152.904 53.404 152.053 53.404ZM167.582 53.404C166.708 53.404 165.949 52.944 165.949 51.38V44.135H163.442C163.442 46.09 162.591 51.058 160.337 52.737C159.44 53.381 158.497 52.99 158.014 52.507C157.393 51.955 157.577 50.736 158.106 49.977C159.578 47.861 159.969 45.791 159.969 43.215V37.12H156.749C155.07 37.12 154.656 36.453 154.656 35.51C154.656 34.705 155.07 33.946 156.749 33.946H161.671C163.327 33.946 163.442 34.613 163.442 35.694V40.961H165.949V35.671C165.949 34.13 166.731 33.67 167.582 33.67C168.41 33.67 169.192 34.13 169.192 35.671V51.38C169.192 52.944 168.433 53.404 167.582 53.404ZM172.458 53.404C171.584 53.404 170.825 52.944 170.825 51.38V35.671C170.825 34.13 171.607 33.67 172.458 33.67C173.286 33.67 174.068 34.13 174.068 35.671V51.38C174.068 52.944 173.309 53.404 172.458 53.404ZM200.15 53.864H186.649C184.878 53.864 184.786 53.128 184.786 52.277V49.218C184.786 48.597 184.993 47.999 186.534 47.999H198.011V47.171H186.327C185.039 47.171 184.717 46.688 184.717 45.929C184.717 45.308 185.039 44.71 186.327 44.71H191.41V43.56H184.671C183.59 43.56 183.153 43.169 183.153 42.341C183.153 41.674 183.59 41.145 184.671 41.145H201.852C202.933 41.145 203.37 41.674 203.37 42.341C203.37 43.169 202.933 43.56 201.852 43.56H195.136V44.71H200.012C201.438 44.71 201.737 45.308 201.737 45.975V49.218C201.737 49.954 201.461 50.414 199.989 50.414H188.512V51.38H200.15C201.898 51.38 202.243 51.886 202.243 52.622C202.243 53.519 201.829 53.864 200.15 53.864ZM200.012 40.179H186.511C184.901 40.179 184.763 39.328 184.763 38.454V35.901C184.763 34.36 185.637 33.9 186.626 33.9H199.897C200.863 33.9 201.76 34.314 201.76 35.901V38.454C201.76 39.328 201.622 40.179 200.012 40.179ZM188.489 37.626H198.034V36.453H188.489V37.626ZM210.39 53.174C206.894 53.174 205.698 51.564 205.514 48.551C205.468 48.045 205.468 46.228 205.468 43.491C205.468 40.754 205.468 38.937 205.514 38.454C205.698 35.441 206.802 33.739 210.39 33.739C213.748 33.739 215.082 35.418 215.266 38.454C215.266 38.822 215.243 40.501 215.312 43.514C215.335 46.55 215.266 48.229 215.266 48.551C215.197 51.656 213.863 53.174 210.39 53.174ZM210.39 50.046C210.942 50.046 211.471 49.885 211.54 48.551C211.54 48.413 211.54 48.068 211.563 47.539C211.563 47.01 211.563 46.412 211.563 45.699V41.168C211.563 40.455 211.563 39.834 211.563 39.328C211.54 38.822 211.54 38.5 211.54 38.362C211.54 37.051 210.896 36.89 210.39 36.89C209.838 36.89 209.309 37.189 209.24 38.431C209.194 38.937 209.194 40.754 209.194 43.514C209.194 46.274 209.171 48.091 209.24 48.551C209.24 50 209.861 50.046 210.39 50.046ZM221.729 53.404C220.694 53.404 219.866 52.921 219.866 51.38V44.273H218.003C216.324 44.273 216.002 43.606 216.002 42.663C216.002 41.835 216.347 41.099 218.003 41.099H219.866V35.671C219.866 34.13 220.74 33.67 221.729 33.67C222.695 33.67 223.592 34.084 223.592 35.671V51.38C223.592 52.967 222.718 53.404 221.729 53.404ZM244.043 53.128H228.058C226.379 53.128 225.965 52.369 225.965 51.564C225.965 50.621 226.379 49.954 228.058 49.954H234.199V45.676H229.415C227.736 45.676 227.552 44.986 227.552 44.066V35.901C227.552 34.36 228.38 33.9 229.369 33.9C230.404 33.9 231.301 34.383 231.301 35.901V37.304H240.777V35.901C240.777 34.383 241.674 33.9 242.709 33.9C243.698 33.9 244.526 34.383 244.526 35.901V44.066C244.526 44.986 244.342 45.676 242.663 45.676H237.925V49.954H244.043C245.722 49.954 246.136 50.621 246.136 51.564C246.136 52.369 245.722 53.128 244.043 53.128ZM231.301 42.64H240.777V40.34H231.301V42.64ZM253.639 52.967C252.719 53.427 251.937 53.036 251.454 52.507C250.833 51.955 251.017 50.736 251.546 49.977C253.018 47.884 253.294 46.389 253.294 43.859V37.12H249.154C247.475 37.12 247.061 36.453 247.061 35.51C247.061 34.705 247.475 33.946 249.154 33.946H255.341C256.997 33.946 257.112 34.613 257.112 35.694V44.71C257.112 45.653 256.905 47.286 256.399 49.011C255.847 50.736 254.95 52.3 253.639 52.967ZM264.334 53.404C263.299 53.404 262.471 52.921 262.471 51.38V35.671C262.471 34.13 263.345 33.67 264.334 33.67C265.3 33.67 266.197 34.084 266.197 35.671V51.38C266.197 52.967 265.323 53.404 264.334 53.404Z" fill="white"/>
</svg>
