<svg width="71" height="76" viewBox="0 0 71 76" fill="none" xmlns="http://www.w3.org/2000/svg">
<path d="M49.3055 67.0766L17.9984 48.5646C12.4721 45.2969 12.8525 37.1783 18.6601 34.4416L56.5008 16.6102C62.3804 13.8396 68.9348 18.8654 67.7848 25.2625L61.2511 61.6059C60.2644 67.0946 54.1057 69.915 49.3055 67.0766Z" fill="#FA8D26" stroke="white" stroke-width="2"/>
<path d="M25.5071 70.3152V53.9893C25.5071 53.444 25.7297 52.9224 26.1234 52.5452L58.2436 21.7704C59.956 20.1297 62.5933 22.3053 61.308 24.2984L37.9999 60.4429L29.0665 71.5675C27.8839 73.0402 25.5071 72.2039 25.5071 70.3152Z" fill="#DA4E00" stroke="white" stroke-width="2"/>
<g style="mix-blend-mode:soft-light">
<path d="M37 8C20.2882 11.3671 8.00002 30.1266 8 46" stroke="#FFF7E2" stroke-width="16" stroke-linecap="round"/>
</g>
</svg>
